<mxfile host="app.diagrams.net" modified="2024-01-24T18:12:17.291Z" agent="Mozilla/5.0 (Windows NT 10.0; Win64; x64) AppleWebKit/537.36 (KHTML, like Gecko) Chrome/120.0.0.0 Safari/537.36" etag="R-nMzxMMG6vNAygYfhTj" version="22.1.21" type="github" pages="2">
  <diagram id="8riv9arl6T8UOWT12Ais" name="Página-2">
    <mxGraphModel dx="2390" dy="1243" grid="1" gridSize="10" guides="1" tooltips="1" connect="1" arrows="1" fold="1" page="1" pageScale="1" pageWidth="827" pageHeight="1169" math="0" shadow="0">
      <root>
        <mxCell id="0" />
        <mxCell id="1" parent="0" />
        <mxCell id="uJWLFALCa80SSZRDJl_V-4" style="edgeStyle=orthogonalEdgeStyle;rounded=0;orthogonalLoop=1;jettySize=auto;html=1;" edge="1" parent="1" source="uJWLFALCa80SSZRDJl_V-2" target="uJWLFALCa80SSZRDJl_V-3">
          <mxGeometry relative="1" as="geometry" />
        </mxCell>
        <mxCell id="uJWLFALCa80SSZRDJl_V-2" value="" style="ellipse;whiteSpace=wrap;html=1;aspect=fixed;fillColor=#008a00;fontColor=#ffffff;strokeColor=#005700;" vertex="1" parent="1">
          <mxGeometry x="70" y="80" width="80" height="80" as="geometry" />
        </mxCell>
        <mxCell id="uJWLFALCa80SSZRDJl_V-3" value="Transportadora envia solicitação via formulario." style="rounded=1;whiteSpace=wrap;html=1;fillColor=#008a00;fontColor=#ffffff;strokeColor=#005700;" vertex="1" parent="1">
          <mxGeometry x="210" y="90" width="120" height="60" as="geometry" />
        </mxCell>
        <mxCell id="uJWLFALCa80SSZRDJl_V-6" value="" style="shape=image;verticalLabelPosition=bottom;labelBackgroundColor=default;verticalAlign=top;aspect=fixed;imageAspect=0;image=data:image/png,iVBORw0KGgoAAAANSUhEUgAAAKIAAACNCAYAAAA0CKH4AAAAAXNSR0IArs4c6QAAAARnQU1BAACxjwv8YQUAAAAJcEhZcwAADsMAAA7DAcdvqGQAAA9rSURBVHhe7Z1bjCRndcf/fau+36dnZndu6wXb68QYW4lZA47yQBAiBAQSieCBB4SSh0g85IHHRLkoiVCUvEVRBAjxQCQriCBMxEMcBAEMkWwj4di7a3vXu7O3ufT09P1eXTmnume1Wu30pbq66quZ81t96p6a2erbr875zldffe1rtVoGBMFl/KNbQXAVEVFQAhFRUAIRUVACEVFQAhFRUAIRUVACEVFQAhFRUAIRUVACEVFQAhFRUAIRUVACT8++2Wl1UOn1IdOH3CEbCiIX1hDy+0ZbrONJEd+uNfDjSh3bzTZqIqJrpLUgzkTC+Eg2hfOxKIJzCOk5EV85rOKFnSJertbRFwNdh6Phs8k4vrS2jAt0G/RZk9FTIt6lVPy3V2/iV42m2bmdPyEIdtAjgz6QSuAr59ewThHSCp4qVv67eIhLrZZIqBgh+jB+VqnhlXINLV0fbZ0Nz4g4MAz8iNJyf2CIhIryKolY759wETuDAfb0Pqy9TGHRaNQ33Ol26XOy1tPzjIhcmEhtoi6cnnuUtfifFTzVRxROLiKioAQiosfx+f33GmVG9Dtd9Fot9Npt9KnPpvf79Ec+8/d8qyqeGUesUTX2udevoNLty9HDkFSmbCRdv9dFt9PGQNdhUFFn6jaSziA7g8EgtJAGfyQCLRZHMDwa62NzbeR8RMPfPHYOG9HIaMv0iIhegwTr1uvolEtokohmxCMGet+UjvHdF/l4G/8UCATgCwQRICG1aBjRVJakjB390fB2TuYRUYKLR+DU2ut0ULt5A6U7t1CvVNBtt0jEnimh+Tck4P0SMubP1HSKlBw5O8066qUSSre2Uab9dJvN0V+6i4joAVjCxkERByRhrVpFr9sBJeGHijcNHCV5H41KGeW7t1Er7mNAorKwbiEieoDqjXdRKe5RRKR+4EjAeeF9cH+So2rtYB+1/V3ovWFh4wYiouLsk4S1Wo0k6dki4MPgIofTdWX3tlkAuSGjiKgwLGGnUTej4KIxjAGa1O+s7u24IqOIqCDcJ6xt3zAldJpWrUpCljCwOHnBKiKiYhwVJnUXJDyicXiIdrUy+skZRETF4LRY3t2BTqnSClwR69TnM6tgi3CfsVE5RKfZcixFi4gKYUbDUnFmiVi8MkXR5rWrKF56A6Url3Bw+U3z/sG1d1A5PJh5n22KyO16xbEULSIqRLfVRp3SIsW14YYJcPTrVMsov30F3d27aDbrMPr9e23Q70FvNtC5exvFt99C9eBg9D8nwxV6p143h4yciIoioiJwNGweFunedBJy+ty/cwsVKmr0XpfDojmL3Tyfd9QY3qZTNOy20dm9g9rtW1NHx06rSVGx6khUFBEVgQeX6+WyGeUmwSLt79yGTunYFG1KDJK1XS6hcffOVDLyc+lSP5FPIy46KloSkZ9gn16Ik22WN9xW6APwBQL0Ti32g+g2GtN91vzeN2oYFA8QsCAHC69XykOJJ+CnKG20mxh0OqMti2Pq2TfFWg3/9spreOHNy7herdEWZ8XgR6vTG++GjpFwGIUz68isbSIY1mw/KMxxw71d8zQeizIOjmrFy29M/Ltx8NMPJ5JIrq0jcDQl7Bj4cXJn1xHP5Udbjmfh08De2i/iz773fby8swc9FBz2RdxgwelhHPzIyUQC6+cfR2RpyVYZOeKWqZioU/QZu1d6zC712Q6uXkUgMF+vSgsEES8sI0RtEqmlAhL5AvycGcaw0Glg1w5K+MqL/4mf7O2hxxLyRhbCjeYiLEilWsWtG1fRrlRsfz6tweSlU/j3JepHzish06GqutlqTddXHAwn3C6Ssa+o1e3if29s46XtWwAdQacdTqGVwxIO9ndsjYicbo8muI7DR4+ZJnlsgfZlDvP0qBAZA4vabXeGwi4wGIwVsdpq4+Xr12EE5z8CTw5ULFDn3ZwNw6nKwUjN6td4XM8GfFR8dY0BWlwRj4ELFp9v8Z//2Edo0BFzifqH/mBotEXw+QPm2YqrL3wbe9//Hjp3bg9ldLnr4HUk1FkgHAxSC6CzcwfFH/4AlV+9Cr07PrLYAaueDM9eCDwMY2BAo0gXnRBkOCXzFLFFIyLOwXB80Y/G//0anevvWo6KvJ8AyT0Jg/ZfiUZHP80J7ctHj+kLjReRU7MWCZu3dvaLH0REtAEe8G0Wd9GbY7ZK1E9SjO4fB/8+l8lA51N2c8JRPUZSm4JNgLsjXKgtEhHRLg7LMOoW5xBSpAmkUmZ0HQtJHoolEAzNN4JhBrYISZhKDzeMgYdtApS+J40hzouIqAD8YWvRGHk2OZpyZEpvbkG3uOoWw9EwnkxOPKvC8N8GuR9pMdJPi3si8mHpVPMAWjw+3VMlIYLxJPxLeegWXhuLHEhnEMgvjbYcDxcqvkgM/imEnRdXREwE/FimTvIKHW2Lbst0NEcXnFbsgAVJUP9vmqjI/brC6tpQphkiFRdFkUwO8TNnp+sb0r61WNRMzYs+oMeea+bTe3/yne/il9T/sQteleDLzzyNL7z/KSQj9gxFjKPa7uCv/+sl/PDuzkwf2jjCVJwkymUEad8MnxmJnFlD6tnnoC0XLH9ovU4Xe9fepv8+XTFiTtOqVVC/c4dStQ4/RbDB/SmbXy6/Zp45FNAQWSoglZ88eeEIjfqR6dWzCFO0nuY1eWvJEar4svQCN3M5bOUX3zZzGSS0EFWak0+huY1GH2Aim6V70x0wHLHCqQwyjz4ObeUMYlTImEMyo8YnIgKxOMJ0kCw9+thMErLk4UQCIR63XHA0ZKRYUQguWuK5panS5v3wAksZStOx8+/B0hO/idzjTyB/4TfM+/nz70U6m595n5F4ApFEmmR2plsjIipGiLormZVVBCye3+UoyWLOKt798FBNPJ1FmPqHTkRDRkRUDDMqUnRLUERyizh1DyJTjDHaiYioICxjcnOLigTnZYwmU4ilc46l5COUFbHcaGCvWp27FesNdKlAmmZYRDUKW4+YMvqnLF7mgad6xdJppJZXze6BUyn5COeHb7pd/MXzH8affvAiUmPK/G/+/Bd4l69qm1Ogrq7jpzdv4dfmdTb2sKjhm+PgxTnr7Za5JvYiDiizT5jJIpFfRoBPH1p8/gu7ZsVNEf/gX7+OH+/uYTBHp9uEPje/zbPLnRaRB7t5PZwqNX7/eDmSeYXk4RkWMKTxMsZp8+Io83zyHM/9RC5d3PQHYJhjYXO2E3CJw1EBk9/YQjKVMuUJ0BHGMnGbFZaY9xFPZ5ChAyi5VBhW2TYfQLMgxYpHYBlD4TCSJCNf3pmg/hyf+RjOjBkebA8T82gbyxcMaQjHEkjkcsitbyJD+7m3oLvLiIheg6TiCRJJEollyq6cQZLSKqfXSCJJosURjsaGt6MWTVLqzWaRKiwje3YN6dW1oYAs7QPiuoWI6FVIII6QMYpuqZVVLG2eo/YIRcsNZFbPmi1LEY/T+dLWObq/gVg2h6A2WiBAEQGPEBE9Dqfso8b1C69EEYpGzSEYls68BIGk49+rJt/9iIiCEoiIghKIiIISKCuixoO25por87TFX48r2IOyIr5vaQkXCwU8S7dW2zP5rMjoEZQ9xffa9k2U51xwqNpp4/P/8eJUV6vNgtOn+LzCiTzXbAfFRgMbX/0nBHiCp408KCIo6vJ0/NRvX0R4ZZk8PKUihlnELRHxQRYiIp8qo0it7e3BT/s/Iry8gsxTzyA8xWWaJ5X3xiL4+996ClvJ+GjL9IiIs8KTA6pVGNeuwjgsjTYCoWwO0UfeA38ySal5tPE0QcXl0/k8/vmzn8Yj+dxo4/SIiLNCIhqHhzCuXAb290Yb6Y1MpeFbW4cx5aWXJw3+uo3nVlfxjT/+Is4vT14O+UFkHNFm+DQbL4J5+tp8KikrYpMiZ63dnqvVaR+CN1A2Nf/jSz/CO9UaDDrarNLu6/j3y1fMi81tY0JqRmL2jvpJYKAPcJFSstXUrKyIH/mXr+GXVJnCP8fVZJwm7ZSQEREfyrwiKpua+TIBhELwhXhVU4vNbgmFhSHFiqAEIqKgBCKioAQioqAEIqKgBCKioAQioqAEIqLCDCJRajFHW1CLIMRr4DiMiKgwZ3h5kfUNR5u2sgLdpu/7mwURUWF84TC0aNTR5tO0+Vdgs4CIqDD66PY0ICIKSiAiCkogIgpK4LyIAT8O2y1sl0q4cXB8a/fU/6YowT4cnxjL8JdCxnx++MZcZFTq6+jNt0z0YnBwYmzhyfebK706SaPZQGN3B6jPtvi9JyfG1ulJ7/V62O33j21KSigsDPf6iOblbmOacKqQYkVQAhFRUAIRUVACEVFQAhFRUIKxIsaDQTxRWMKg3xttEUy6HaAzWhtRsIWxIvJKDB86dw6+viz/ew9eCrlcBqqV0QbBDsaKGNU0XNzaxO9trgO6nHLj8U2DJLx/XUTBHib2Ec/nc/iHT34Cv7u8jFCvP/wPfGrOjeYyRrWKwbV3gP390RbBLiaKyDxG/cRvfe4P8VfPfxDvSyaRho8aHG1J8tDfp6jMqdHhZrTbGFy/DuO1V+G7e5eejWA3Yyc9HAcvVq47HKHKzSae/8SnsM2Fk5OLK00bjXN5+M6ehS9q3+q0MulhAuZ3//r9jrZ7HwdL8ZCotbA2jYQ+ehvjCSBi77cXnCYsiSjcBx2UvnTaXMRd5mpYx1simmlydF8FOFInEvBxKoqr8U3wXsVTIvoC1Dfkb5GKRNxvfOnlUgG+zXNUTXE5JcyDpWLFDQ7qdfzOn/8lrne6MCgSuQrlYH8gYK6mv0ikWFEVikJ+iogBLeRu42WRFyzhaUOKFUEJRESFcX4pJPcQERXG6HTQbbUcbUa3Cz+PnzqMt4qVv/sqtlttetajjSccXpbO6RerkYQ+vYeePtvKO6erWDll+Nstak1HW7/bnllCOxARBSUQEQUlEBEFJRARBSUQEQUlEBEFJRARBSXwjIhaMOj4TBRhNsKhIPwWPyPPiBgPh1HgSaijnwXFMAxs5XIIB0OjDbPhGRH5SPv9p55EnJ+xJ05KnjJIxA9feAypmLXrdjzVR/yj5y7iQxubCLlwUl44nkhPx8cvPI7nL1wwM5cVPDPp4YifvnkJX/vJ/+AHV95Ch8+J+k/TZCnFoICgaSF8+tFH8eWPfRRPbm5As/g9fp4TkXlj+yZefP11vLO3j2qjKZnaJbLxODaWC/jMM0/jwsoygnN8maQnRWQG1Ce5WTpEha+tEBNdIZNMYiWdogJl/gUPPCuicLLwVLEinFxEREEJRERBCUREQQGA/wc6r0CHnUitzgAAAABJRU5ErkJggg==;imageBorder=default;strokeWidth=2;" vertex="1" parent="1">
          <mxGeometry x="290" y="10" width="91.92" height="80" as="geometry" />
        </mxCell>
        <mxCell id="uJWLFALCa80SSZRDJl_V-12" style="edgeStyle=orthogonalEdgeStyle;rounded=0;orthogonalLoop=1;jettySize=auto;html=1;" edge="1" parent="1" source="uJWLFALCa80SSZRDJl_V-7" target="uJWLFALCa80SSZRDJl_V-11">
          <mxGeometry relative="1" as="geometry" />
        </mxCell>
        <mxCell id="uJWLFALCa80SSZRDJl_V-7" value="Transportadora&lt;br&gt;recebe email de notificação de recebimenot de solicitação." style="rounded=1;whiteSpace=wrap;html=1;fillColor=#008a00;fontColor=#ffffff;strokeColor=#005700;" vertex="1" parent="1">
          <mxGeometry x="414" y="90" width="120" height="80" as="geometry" />
        </mxCell>
        <mxCell id="uJWLFALCa80SSZRDJl_V-9" value="" style="shape=image;verticalLabelPosition=bottom;labelBackgroundColor=default;verticalAlign=top;aspect=fixed;imageAspect=0;image=data:image/png,iVBORw0KGgoAAAANSUhEUgAAALsAAAC0CAYAAADMxl2/AAAAAXNSR0IArs4c6QAAAARnQU1BAACxjwv8YQUAAAAJcEhZcwAADsMAAA7DAcdvqGQAAF8cSURBVHhe7b0JsG3ZWR72nT2e8Y5v7n49qLs1tKRuSQghhLACZghCxoBs48TIFEOqkkpCAnEldsU4pFyJnRSJk5LtclwpAwY5OA6YIIFNwhBASEIDAjS1uls96vXw5jucYY8n3/evvc8997373ju39c57p7vPf+5/99prT2v41r/+f42NMQlLWtKrgA4Eu7yKokBZlua+leUhJRfkiOwjA8qErgY54CFC0WjYdYVIvp5dKflfvrOTnliW8vmSx19j7Fdnh6OSmdtgXntk3/Pg+3xXQ7n90mkf2OXM89yAfruI8DYghmRvnDNQ8iE1BPbQIK3rohrsDcJWfChaIv0WkCG2cs9IyhcxHxPgRQZx4sD3GwjC9ksG/QTsAniWVcC6jVRLbckDBo4nBLxF2sO44U8ksrzow2PB/ywIh6CGXlB/aEnzI2LysILd5TlzWYBmQanzGmNlmMu0MGoR+Kr7D0cGdklz8cLQlSBkbOW1X6LXkafvWBE/XGkfV+9c0vzISWRzzk5Wk0vA6WmWFAq4q4jvDMIQQXBIIUeQjxdBok+oRrSIgFRVNu2lJGgwMRrmW10R2MeHBDtvn37vkm4+GUzLQ6K9IatNgteJNAd21eiqx52vMU9CAt4PZq86GsPh8LBlb74ke8Fi5Rsg8ymwK1qKsmeJIV+nrTfG1PAPEwvdu1ixfmVShddDkYG9Fr71C2Sr+VaPi+QTKPuZh3E7NkN2FlpAsDOi0tu8CCVjpaiLFB2BfVyktNDHLAgRk6QxuZ4x8oOhc/u8UWpfST7IlpFU8Mmmuy9pbqT8K66FQ/lX6e/xPgpphMw35XExHGClFaFhea189FD6zcm7lKWhnmWt4TMjw2bb/G9Eiwf2kvAtWYa9FvIK7DXQi9EQNMgxGKVIGHmvG+PcAPilD/8pnvzqRZw9exZJmlhTVckCo6ZTyn299SrylkCfO40bJfnghN7Z3sbm5hF4vofd3V2cPHEC7373N+Odb1rDazaZP0mOFsVZO+Dzno/dQYao063qcyCid0Mq0niEuLM2k3RfQLCPJL4ZwTYyRkBgF9CtKTIbIs15Le6iz4Lw6Scy/MNf/DV86byP7SxElhWUEAGtdVZ7VIfGEu0SGwdQxpfWTVtLmg8FkrzX0NlbzSbSNEVRNYyUvC+l7fiN93fwEz/4HXjb6QYkr9sZpZkAMPaR+3HVHuPw4Ct/CfYg7tFYlc/1afHAzsA7a7xNoDvtXDZ3pCjmQwp9SoJGE08xDf7uP/kNfPbMEJewhkEZ81lq8NRhPNZ9RcYnlRjSaQ6iJdBvDV0LXQK51FVJZDMyeSxy9MqzePPJEP/Df/F9eGAF6KUDeDkx0WxRdZWs521kQds6EykcvaCNKGrS5/q0eGCHFO+c0aBkZ5FWtWW9qWPKeEr2kqDeoQrza5/dwn/zTz+MC/EdLBSMuqxZJZ7A7bN4OGXPJeqVpBir8liwmL/SqFQeSO88iKiaGAnsYjVMZCmCMEG4ewYf+NY342//9bdgdTRAJKNV7wqFidAEoJ6W2doYJ7TLmojjG+vtCwt2aWw5y64CR9OE+hlL97CPUR4jW1nFj/53H8YfPFvicnya/ucZExaNILDuZVWJJfV+6XHXqt6ukQVLuqnk2s4OojRJKI1jXh8jGyUUQCWiFmtzCqywTPCG7jZ+9Wf+Co7yvmDcr8DeopHaNOmu/AspCj1oOEmEZrOj116XFhDs0tIL/lRuHdhNUyvVSqMKrIlLhY8f+p9+F7//5ABJsIluM4dXDq1jrCyYADR61AYrShO9bz+pQ2mpr8+fGkxo7zr9Hz5rYQkodf/LvsqpxvSLABHF9uuis/jHf+Ov4O3Hxhhdeh7NNeo01NnH1ZARZZ9HsLuRUj7B/jKU7AqM4dCGCdAo4Zn1k0lFEUqpvyXUz/7cf/v7eOQsqzAWgLrDYUmLSIeTKgXzvEm77U2t8/hH/9Vfx5s2aIcZsglrHk35sV5W5nhDWrtnX5DBeyO6drFbcFL1aB1KptXXRWTJi8cvjdwYmfqE7+HfnkCTy13f87sxvWzBvqQlHZaWYF/Sq4aWYF/Sq4aWYF/Sq4ZefmCnVa6hM+oplXky64i3JS3pZSnZZYEL4oexxJe0pKUas6RXDS3BvqRXDS3BvqRXDS3BvqRXDS0c2G1ii7GC5pZS0Mg4NEqUDTXDlDYAblwU8IoxfHr5vE8G67zZ/l/pqQDv43KKda5n5s1Mq0OxxpmU5OIAVjofzG7m0XxZOe4Tll4Z2dS7hkbs2QDA3HDAkNBTo6U00K9hAOYdM5HuXSxiBN1wFxc0OTXUq2Bki0bGEBPsvFSkGcFeEuxMnHHDAD9P1nAjNXNWrupnuCGrCZQZtY8L4or+LJlzZwK40WAoZ2SNJRdsDmSG/SCgiw+8/yazEtX3AnhZiFgYFwA04hVDYmBAFAgLwoaD+d7YqBvT4oH9AFKULBWM92gspNFPA8LmzvyWktRYbn7a+TG56WnMM8ubisf01DzJ+TML1yFYNWKICAHiq1j+hNlVHB3gNw/WsGAWLRYupuUku2swX42Bw9Digb2Oj1SAyumOdDmE7QGOfqUBzx3nyfqWA3nlNlY2TJ9P+7uwe+PxLWB953Ac8Bce8AvGYl69gn0xn5k3K30L1t5OnaoScUL7Tg5NCyzZmSOk6eg5twOTxjGXrJI1/pnyqgLZ/Ph635hIcwbMMf14JA5ZZnnHvFmhOMj/GszbbakR1TwHsZvptZ/tGmuEebMprI2cLPtB+U1SmCd0JeCnr12fFnDCdXUUfKiLSltzcGbkeS2gsTL0mnjnT/0BHjubIWYNkAd7C+jMjwQpO5DqQOpI1viF2m1UHxXeKzNnHuT019mJaSa0X4v2gesWU8i8DnO8udzCP/tbH8Ab1+jXGABRiYSS36OqQ8tDppuLMguGm6nU4vH6tJhqzBXkvPjfgONmJVFG8dRj6Xcs93yZ3+bRhaY66nziN+VfM5/JaQ/Onwlev5ydtZxWY8TgDq/mxgF+NevavNnPMPYo2b1Ksostx6XI2kn1X+SQ4PjGtMDT8pxkd+VW0Kb5R7DrOGgE+K4PPoovnhnZfMWg3UJ5jfVh5kNXJnAJrR9eFDmDzBAWBd7w4BsYJte8dxCNrydZD0UTRBxATC8V0quoQHfVw513RZbM1FBsUQZN8L9uMt4CpOywKqdgxxvTEb7r3ibe3KUnC2bpZVRtYoqTaG81N+r1TrIHL985qCLNLXVzUBUV+rJqNbAzgn36/7sffBxfeG5IsDcwYi5p4eq5k9Us/I4rjfpnRwG3BrvWrNFKZK9/w+sxZpVcaumqA6haKfwmUV2jXE0HgX3cyAj2McF+lGGlB1krW8itiup2ajFa27PF778x7eO77+4Y2D2B3fR4gV0GNG8UG9il6IYvT7Ar7UW2EYGBXROuGUTmQDnWXg5j7BJQ3/nBJ/D55wZoEmQpI33NNQVvFjEIrhqdTi65HdvCTFrZgGApqMO/gWDP/RxJcPXqBjedqg64q4l+B3qn6K7lOH3XCQurjE8t/6xV1FQz7YtiRfK6FSsyFF6IDj/2xtEW3nfPKh7uqCiPWECl1gjsgUl2C5BqzQnYX4ZLaUzAXikwTP4qcgI7DRMm+A7z9js++KSBPQoaSJhhRdVUOS9yy0Iot+uUJlnmO8mu5TtsGY8psI/DAmWzjtEc6TrLVRxEY0rJ7lpByX7MtbKQvYBiRC0ABvar09JirUvudG6UsCZq8vsO7Gt4CwV2ILCrgaLRJC78lwz2w6XSLaLpBDU8Ge2ltODjWBo85a0WR/LnzPrGlUxFt74myai1wuX2fa0bHlJKGvIP5IM7h14is7Ad6E8+8Nt2ZAIaM111lGzZ53d7WFlc0jgtPRZCek1jQRig1xWe+++4Hi0k2K8ixYe8P6JqjbEWZjOw5s+qWaiD27E+r5geBY/GlVv3SgnWwp7zZ9aBh2bKSB7VhNeQm3HSOBTizPyuxVe/5+ayyIbD2O8GxNp8hrsmxPKT8XaNPmEG0UPsHud/ZZgMxZLFnu5aAMyTx7Yi2JDugK4GQ7fFUKqqkqRSCPoWvo0sRY/VbqbiSqvKo34/T7YxJcZBxSE5qlhWhawJFUBJJOrBVBWcmyE/iC1GN4v1HebgFWzjWSwMV7OSjbGxo2xYCxNPtAdSzXYDuW5hvRWsQifQq7NQkYsIivE4tHO3HBZJkTaHWtxn32JIhXUCcB2tFquklDWPyUSvjloYVytGz5OL8cA4Ib5HDFSCy8gKFoCMJwokU4L5gtYoQyPRsKDABZFV87zZ9SYyKRjOklWuO/LbpjOTFTAF0sCu9iHVBLznAJ7UBDeFKYgOYKuJDvgpXKYAMhxi5jTPeKwBX3NdCBSvW8RuOINGZSoA9GP6quTJdlM4nQBmGspbDxQUPBbAGxNrLS0P6Vqy9YgArt41LRfZ9wJsU//c8iMMPB/NxhBNDObKETMvGkd0a1VHrfPYQdCQ8cHIpz6N0R5lO2V/2UYypj+Pkrhu5OEcmd90rHMejdUUWvkx3LzN3aMjM6DSMJe0IORFLCIhOaCq4o8TAi0hqFNErIZdeXJkPYjmmDNbmZXa4k7Vgm7jJFSAW5T0xLwKYtlmeJq8I9C9DKeBbY7M0Ez4qmsVyK/gJS0WebbTRblLprwshmSe5wkCHgMC37ctAQRAXvJaKP32XBnq3WB9Y3qjqQJjA3tKsPfpJ6BLq89C6u4Rw9zhGcOpHRzmz9kBLKWyAriOKqHV0dxLWhjykkAdHyG5R15DGq4TSGvUmVYo7dto5xF6tALb1J1GzNHBnDkfr7FUHbUmVK/0WdiOscaJ4Ml6JdKlI/M2tAcZVoZ9xJcus2YaI9Dux3NlViK1O6j9PGNWNgZwkcJWc/1/SYtBjQvDoW3sskW+TDD9yRd28NzzF8xI8Km7h+OcoKcq4XnYDbV4/HwzsFlIlSKoy1UaSUPyZdqk1N4J/FEyQr+RoH38NH75d57BpUYTfTWMqEXEQe4WEOM/sdjcN5Ph0CqkUpufqRWEKuHrXvcAtGNlTmGicqC76yEC0vVv7nCBw1GDKuraqofTp49Z07va4xoswDKc1QhSU10z1ccZ7cCviRJ+I6Skuzcf4P139PANzN+S6Zj6CUPpoaUqv6CuoXzn/RKKyoZma4ZtZi69OBx/4nng1//sLH7/6Ut4up+ZUTq2hlUpDANKV4nUForiJM+nUmMO5GPHVKcGAd6gQex5WwS7b4UvZoYIPJnvY9g4gVxbejM43SRHM3eq1vxIOS5mEluuKx0suZFltHHikOEtMWJt02DaHT16BJ3NLlJWSTL61emUSxUiuuI4uq1b579qwf6Pf+Px8a9++gk8thvhrLeJUUwVJuCDfIt09pi6fDSmLs8IF1CryHxjrME+Y6ktY3UMj5gxfdYsJc/VS5hVvWsuLIXmUhJYkdSYuUtKvV/M+E+DneG0gWCBpHxJELOeJDq6vTaaqy002rpOMFGaa6cJUa4xKOa6PfRqBbt/+b53/fRzRRPpykmqMm00oh4TI0LMTGzxRV0CrUN9ucUMC7wMUWO+TIuTMeggYFQCAiRkOELmQKAYqbIhyNT7pybKmOpCkwVAMBPtazG52cwcd+4qkfVj7uuncTEOBwQ91T2f+ryG+WbjjOlJvZ5S3fZkrQBvA67q1q3bQKqBms0GVlc7LIiWrKyNFDsd7RajOoSTkN6CIGvUgM+0Xme+PrgS406Gx+FbqCYelNtMd/UDKDhWEOkIQqL/BuQNGl1GMkD//ItYH++gO3weq6Pn0EueRzd9Ec30IsJshwaitmWkZGVVPFcebzM8Zxmf55kJL5IvIscllvhtGs8jGtEZDWjaECH1+XDAzBkyrhobOQXMebCkM0Nj41CuuCZ8WAcc79EGZoK+WmkGgyGGoxFVMc3+Zyjpl+esMQn+Jd168l5I1jEsu+h1VynNc0TZLvXfLYTFDjNvhIz1xIi5OWSRz1mcCpaqeXKDBSooBhWP4BesVigVNQZFwz9Lr01VhyoMax+azyjVbU9wMbBzZsk/cXUukVgdJcUVRukBctvoR6aXQpUkiennkuhSZyTVa3VmSbeWvFHnPgwaa0jyAGNKnojgjmhU+dSFxxRAKauHfhxjFDVR0iCcN4cEiVSmFiVlk+CPWYcFUmIa1MnGLeKpQ8itsGBoa2/WSjxKf75S2t58dlXmxD3FBnaBX8CnoSywS50Jpb5QkiejhPepqVKArwuM6Io36XCLqQ7JQXS9ay9H8gJK8UAtBpTeBcEm4zT1msi92KSmlgiSvixZdCuY9T2lt8/vN5F5EQ0TAsaTBk+w0CwNMaQev0uDlKoLgePGegiCGog1T9aQCg34ckMrbECVvk3h4Nn++gSxxztp6NnYdkr5ImWoswjjhHemKeKwRFu2v5ooWRPkmXT3EEFMQcLCQbuL77g1iBeQKUuM7ZxHG204xYzm5FrtfjmT51FVkc6ryLgEJ6QaBBiNQmUsbzGJpgE6e1JufiwSuGyAl4XDgU1gV7u/QB7Q8JNberSjOjfmzYbGyq2DEoUgt2PN7rJCptGSAdWtPM0w2NnCcHcL+aiPMdWzOFSHlIzVsenxDRm5NGxViG4V6Uv2tSo69fk+nrr2cifl3EJRhZVD8aKSjFIlcJaO0N/dxs7lS+jvbGPY1/CMHHGgGpN1k3R63mdC/ZWAqgWlxQM7M/uwvLAAkZpFgxs0ssd5Sgk/RNLfxmD7EoZbl1hbEvCU8AL8mPdpsVYbwrqkudDCgV3kxjTPxgb46rlFI21RPs6d1I6pskQKbJ5QldlFn4BPCXyPBYF4pzZUEOwaVMZ7ljQXWkiwv1JIhTCgzRFQPxGgI3KTyG+RGwT9zqULJuVllagDTes2LrJa9nKnJdjnSNLZjXVC9URDHgJKd4HexvkkQwx2d6izp06/V9s8j7ebqlbU6qRy3yqeIy0k2A9Kg2vxopM140kPt44nMlWVBlmNmJFav9IUWZLopoUAew10sfrJaqBP+8+b50ULB3aBQwO9rmL6a22Yg7huHls0ssZUDewQ10nN3LRmVh2rnNVKZ/LVIvs6Lmk+VOXA4pCyX8C+kjVA6CB/sU3EXUgSiKtOKEvqSqWRqw4yj7qm+zR3fgn2+dHigX0KxPsATdYkvStZ/aeLCnUBV51iroOuioSSXJJcIDeWW8NrNcysum9Jc6HFlOwHMTFwkD+14IWlWqLbUT3B1MfrgqkiKvckvhXgBfwlzYfmCnZVyxp6oMzWOBZ/XBh7xtVw2Upv1b15Q4vhhLzft4BpSmCzHKJT9NHLt7CSX8ZKsYVesW1+7WKIVjnicYRYht9YwJIkFbgo9TVFzvQFtYQUCEtNMeTbiS5r5puEYS8cCqvC4qSsS55p/fowJNg65n+B2HR3p7/rbQ7wgnr9VR3F08/efHa059rnnoqm+R4+2l8z6buTZtgqEC6E/D9lwLvrswewcfzv/OmMd9cf2fvYjWhY+hiOQ6x4BCRGBK5mmzSQE3BjG/fCd2l8SNDifTF2ixABRXWTd60FCY5GQ5yIRjgRJ1gJMxxZacILIhaIGFuZh/PbKS7uZvCSApeyCI8Vq9giqHM/Q4CBBZXFC3GeY43famu4bc63xx2M/ITf14whF32BO/NCZA29X+PNNRZH43BSFpLM7tP1w5ArHxoykCBopPAbQ3IKr5EbxBHGSGh9N3vraK1s0BDn+2dP3pdM2slvZSXAnXdtImNArHZklDWz0ZsSfwqKsGR44smMQPmaKI+AmN96cLSD953u4a22oUYO7bOU26ZnhIwSrw6cxnUx72ZasvpQYD9kFWszePiI5miqfZnwdlKdntJjL/dHiJottCMPXjbEnZtdvOZEF3esx7j/znU8cBI4xThoMqAiqIlMGr6uEZqKopbVGNAx3AW++gLwuae38IWz5/D4Vh/P9HPsFHxv3EWbKoQ/SNBibsZ+GwV1ooHA7hHskup8j2qTnCAXoFXDKL4Ce1iBXXccFuyS6MJOAwK6ZlSNGHe3qJ9qnUYYIaHlLbC3VzeYvBFZxWresCqwth7gjruOGMBzfY4o0hQ9JpUj+k3wVNGt0LByJnGT33kjwf7dBPtDWl2FeWAbinlaxbfCgm72lFJKzxnXZ58n2FvlgCrGDrb9VSRBh8EK4BcJQgZcq91m2jCqLPGGTR/vffgU3nN3hHuPDijFtwk9N7xYpVZcspYYqw2SgNPquAq0WIV8l6iPeexkO7jMOuQzWz4+/AzwyScv4onnziMb0YwtmSDxGtWfDHl/C+MO1SuFg2B3b6vVLn5L+jW/rmtSuwIWLd1h6w8ehviQoKudoQR2v5HYUXNAc03ZM8lOsHcJdkr2sVeDfc7EMKyvewT7cYbD7a+kUZeFGtY92Q6VKmXhd0eR7KZ5UxZSSvP4Jkn2u3t4i2ZpKv1ZG2WU7Br/aouwKkyLBHbKLcTUqUdpbirNuLWOMl6hKjFGmG/j3m6Cv/TO+/FtD8U4xhKtGmuV4AILCUWyAVtVgwCt6tbXqV6skk1VSBJSrdNnL6botWK04pQSKjaV6CJvOzsCfvtTz+BDH38Oz5THMWidRnN0CethjpHGoRgQZUc40LuiQ7BVgHMZLZdLosmqaDOSOoh8coOSSYB3w6lVH1HSh4GT7AJ7b8PUGEl2xXfGDHnJpMLW7o6oxgjsVPsI8kZANa5kwY60SoKLpwBl44/oVphuBdiHrLYjQuCN6Tb+wt0reGuX+c7aUFv25BRp+8DO8Iytppxtmxm/+57/6Kcr9w1IMT1cbDVeW2uWK0MFwrEfo8wSNIYX8c0PrOEnv/81+J7XBlhLM809slk+MSW/KbuZ5qSWhAiVn5CAp1C3tU2ZEBTI1O2pglivZIlOj9UbpVWZJtQ5S4QedfzBRazxXV//+pN44PV34sLFEc5d3kJIlWmkkYiS0tZC4qS4stOTpCfgteyfWr0FOxWHehOxw8LQUotx0Xu1yFIUUj+PaEPEIVLGb6xJKkwbP2wxXG37ssJSN0fOi1WoOx2P0r3LJGDAWFNa4TOFnffIppJAUXrzaFy5TR7MkVOCXWA+RtXx9esRTmqyi0ocU0bps6caVv8YSPkEwY1VzPnq7AbgjPpxj3oGjcL+Lt6wOsJffPgkPvBNq7iD4fNs2T0GgQWBGjJ1+x16Dvm05LZWrNFR+iSB4rVsY0CtOEDFmujnBQnoVoaUBUIKR6ugAp+TtfKvpvI1Oujz+BS9fvkTj+BDf7qFF6PTrHEIXou5kk+S3ennbmKIM1yVuNLfxUpSyj49MDvp/dbnrplJQxZULS8oI51SXktv0NiWgdpa2aSklYHqFqGat87eoGBYWc1w52ltM0OBIgnC0phTsnsqlVYbKWXI1VGkUM03ZMCItbkM1IeyXXzv/Wt4+4qCJhuHNZCpMa4wWN7xPqk3AvssW0PeVLBPMqk65Ax4Mtb65g10gxzHoxF+9Ftej/e9EThBcBkoA77TdPHY1JsBqyVQ8oWEljRkbT3uaU4npQ20XIKWVGA1TNSQWbWpOZFiJy2YWdEmn6Nkp5/GopRlgME4RJvf1rooL2zv4le/cAE/+ztfpppzCmW0hoGWvo5YhKSrJgO0fBYZLc9BMSYjWq0zqYGQQZWefYjsloTUKgPaMufC2WdZ8AfMpJT+qll4g/QyqnforCLqbTIZIlc23ONzI1s3Zs3D6btP2Ro2TClTUZSiFq6KpgEvuhVqTEJbLmJ6vZWq7I+98/X4pmNMd+af6ngHdrfNzB7YVQNTFbzl+6AqAGSBXjPpS0rrodfBeHgZR4uz+A+/9QF85+uA9VSSmyxQqjlAakI6ssVxmnGPkWpiZ0jwErpaRSAdN5EFLfSTEINcC1t3sUMNX4NjL7OKu7S7RRXBp20wwoAFR82QfV5PqH9q9V8Zlg0C9WR3jO97sIcffvsa2ttPw+ufx1qb1zRriImVMre1woHI/Xe57KTt4ZNKqq82FotCFkHVXnyPtqAJKNHVhGo2iS89PaRAEFOVUFjtOEc20FD1G7d5FHeYBi3CiO7Kz+dR5zq6e24NN1h3jykAZFJpxRGbvUXaP1H9pdHNlexS7HRUoPiXBF1COsYb8Tj+02+/H9/3pjXCl5KYhtl2KhBQR9vdwUqHsZKkT1Td0x12kVGX/DLt1M9dBj7+xFl85vEzSDJKwZ0BejR4HzpyBN/8+tfjrfcBXZb+lJJgvdu2DQ0Ey3K3j7VuE0U2wrbfsVWlpIQc164eoyF++sNfxW/+2YsYxhvoB2s0oFmbxC3aAn0EuVYho7wjWiXZE69tyRyZgTljcolU4Ck5tVfrmWe+wkAlrJIluimp+G7NsbUFIVs9GqlHeM7CKX1ZaT1HksK3vhrjrrvvZHrlzBENvWBQmHCKXf312yHZh0yOgCrfw8U2/uP3vBbfeIT56ecUQiMKLbc15EuV7HM1UJvZNk42LuD977wPf/mbNtGlHh3kWiI7s4ndKSV6RhVC67/Yvj6U7P1wFV+6VOBXPvFl/PPf+iw+8smv4HNnEpxLOricU+9vsACxtjg7KvCZZ87g3/7J0/j0i6wV1o4jpvTuxZRHxJAWIgqom3pq+ZAUJbhGxFk4pj+l6Ym7T+Ls+T6ee+G8tkBAEbJAUI2w7KYOK0NV0lxL7Ekd0/Nqdz9sfksA+ATRztYl916rIByg1fPALGBgm7TfWaBkG5hAmS/r1276VGVWoN05hBvJTZHucP/coW6NMaJD7nlyTlGutD/BvHzHPRs43aa/lnVRkVStx/RSEure+iHFZ5aFp+YK9qPZGbz3rhzf+20PgloGYgYoZCSQ7VCKqvU6wpBh3JYKzhvGSYGf/9Lz+F8/9TR+65EXcaFcp2Q9inRIQzNRtUttjom/S736fJzjuU6BZ5gYj15q45HHzsHffQF3H1tDR9KThlZoIoBg5zdjNVUStEpMLfhE7QWd9hoef+YFnBtR1sWrYJFh9an2cNUOTGCTvs5IFdnyHeaana4Ldr7bhhCErFEiqnsCu4lP3TQ/1lJ+Whpxda1nYHfhUVpVTKpzm0kwcetf7Z4XZ0wgDRU4UaYE+/oe2Cm41PGnZkbFQve6hwR1J9xuRHpubnTHehPf/67X4l5a1GoF7RPnA7lam9Q7htS8t3B8sA3aSra36T/9kwy/8DsXcObcEYybr8f5YRsXU5bpZkCdPaFOvQWPqkCXOt2RYhUnk+M4ndyBkwTp5X6O//NRH//1//UFfHbEQkRQX6RBauhSy0y6jR5VlFXmpZZVamcFHn5NjLe+/l6sdWKMhmrbVwGkvkj1wjUDTpL1ayeHoYosl65mk+r65pxZ37FWDEoZgsgM/smxdju2voyp87mz1TF1evBwE0mxn4nUuRJQCqhlYcwEUSO/05for255JmAajJBQjGnCwmZ+Ht/42hN4/X13oMdAr0qAxXwPFVh1S4Pqi6wQLygx4rV/8buX8H987HE8329ii8gfZSG6a8fIGxR8IdXaGCurLVa/VEMYlvGAqtA2C8DFBNuXd1iQSrzAF338+RL/8689ic9dYGlf2XAJpg8K9JTMY4JcLW3tuIEehcF3fsNpHPN3bYjCSPNBKdm0anDB+rug1HDSRPG0topD0jR4K7eAZpmo8z3ay1e55swmvZmGlRR3R3duv+qo+yZu+z//X0OtdxRmFiQmkbMTeMJ0m+jrrjIyUg+qGolnoZnB7hNgLVbxGhgFL6E6QNCos4TIiYbq4g2xG1zGllpWePYW/6v4C193j20Pg3IHfrllXfpNftHXJEwafdoEbOiv4feeB/7lHz2NQTZGGJWIggEjtINsdJnG5A4BOnJLUWRkVm+Fl9HgJDdZtXUJ4M0NjFsRuskZHlfwe8+W+FefvIzzDKptmyNdnGpK4beQsrBpWeQ+C0CTCfWmI7t434OrGD//RepdHcYitdGUhZ9qvzImY8Q0l7zXy6oUnplUxap1pQI7M8x17NCpf2pO1StZuMY0iJVpZioeJPFuJvMbDZ+Rsw4l1mBUp9TBZUeG1brW6mPttnydP/tqKCjUWmTJZa3SSpeGbC1a0BZ8FwXGRU2SrJFVQ81AeufMVI8ZcfqmY1EzVvtwgVDt4HlCQzHF1z/8OtxxJDQTTE2L+pS7uyJlbtTC0zvAL33k89ZkqAR3upcQ4L7k3AeQin4lddTzp8VCA+npAWVwUeCTX3oKH/38BV7tMl0s6Wz1LRMK/KewaoeMFr/ynm98Izoh35f1WUPxbnu1M+T0GXdOtg9/LTTLG/ihudPV31BqLwYph6qCzyC5kE6J8n1UYXHGsM8MdgFbe1NacxkhrOq9/kgYh0iSISI/piGYokvJ/+5veJgA0vgYkgw8rzkVJLkKJAz/Jx67gCde2MKIhVNDf5NUEvRwVFLqq9w1/MiWquhR7Xlhp8BHv3gGT/cZAhqANtGZhUJAl0ajiAeUZAUBf3wNeMuDr6NeP2ANJukqkLPapPR14+4V3r3QL2mORFvC2Q3SHBzEDeam1+hYsdHh8mVmsKtsaV8lrcGoHYdrsEuXz9XjSINQulSLYH/43mO46zgfyNQFr0BrjLhGMdYBJyL5prN94Le/eBbe2kmklOwFqynT5w9JWohIL9Y3ipEaEjNknSP47AsZPvWcxkKz5tEwY59VIWMsLUqLimojX1WN6tD8d77hHrRpNPNOe6ekuRp1NE7Ggd68lzRvEsg96uEC/BRZHT6NbTvqn7BUe16fZga7JHtOViuFOkKky+kjqkSG6S4CGo7FqMCal+Nb37rhFrXNqU+V2pqdQpOsJ4QZ08/yAo89t43PnR/jEo1RLVct/TGMrC44BNXaHsGupsVhH+nuFgbjFp4dNvF7j29hh2A2wSDQ8lBzOtJoRA8tVlb3nQTuXWshZsDV4aNtbhzInRLkUnpJ86Y9m2WvQcBUlWtIdgndKY/rkuXjLCR5pzZq6wihsSBDRiTJnpYjSmUGMPdwrOXhzadoD/KyJz14TGOW99VgV7D0rhGN0Ue+ehFfTbvYzgP4zY61octmOwzpfapvlCQ+bQBbHZcJlnotjNp34FPPjHCeZa4RsEBVA0/0TEj9vqkOrZQGNj3UMvO2e07a+vRqhfHUyWX30piz42wJuqSvkSo1ppbkgsOeTq5rPNRMmgvY9T41x8mh5qH6A5KqQcxzn7Agoh84voljMQNBFcbebjrwfhI0h40m/uTx59EfU5fXhmV8HzULG5h0WJIEVotGok96AQGv2kEjJkOc2SnxuScvEN1tN9grz5HxRq2f7lGt8VgIFK0eo/DQnasoaXuoBlNKm2S3xOe5Fe7ZEnVJL520U4nn+8gIBkFBQ4oE6LIkPjSkRFlQZUOWsxY2BM6WLzOD3ZU0GWvSZfkYwSA5LwNu7BXIaOj5iHFqtYUV3hPaGBCygFKR3c8jL+NcFuHcUC+LrBnO8MRI2vjqQ5JFl6+SimU2BY/q7VQ1kYwjfOWFbYwMrPq+SxqFoQaxrA81i27wlpBqTEZ/F1IRayzSrAm6pK+NNEsqittod9ZsATXKJxKFElVU4USLxbrMI3Rsh0LxbHlT5+gMxC9Ql5K08yugS4WRVNR8yozA9qk63LG+gq5uVZUja5NGoz5iEBb41aNDevx8hnMD1gq80Cg0XY3v8zXl7iWAXYVF4eBX1LWvo2ZIhWVikuGLT1/ALj8t6S9gy5jWoCeXSGoSTa3VaD3IEVOnKXSdN1ji8m2uIWxJt4La7S6SlLVvxrxh3qntYZSoxm8QXxSGFKJjqszq8c6JL94yM80Odkl1ZrtaJ7QchSS6dGVxLilKgARBB8dWuvB9VUEaTUdF2EaqUWLaSxQ0QQf4wvN9bKUNtMdDBDRkvSKzpsGXttZhLXdlREcGeM19bRfbCFmQnji7RSOYlykqrICyBnHjXviUmImn8G0Q8S0NTaCXwO3aejX6UaBX8V7S/MnDoJ+hoB037DMPJB+Z8OqVT8sMOdHfoEQPI/WTCOyz42VmsLusdvM1BXYn2VUA9EGCKKCuHHexYiMtMwuI9mjSpAzJ6gnY+Yze9LkzWyiCNuJiFxGN2HHmZiepGjssTWDIg1sKI0Sr7KM37lM9SbGTebioPevNHmC4hW+6rCuajjELa8g4rMYNNGMHdo0cqeW6QryU7LeGhsMUR4+eol0F/I8/83P49V//sqkyWhEioCojLT1N+vBDqbwUbtbzPBvNLtn5Ss1wcc1xAnoFeH2KuowCEUdtUDDy1szmNEof1zhBfURNeI4cbJ46t4uw1UWY7hKQOY3bkelj2mnupZGLsrW1NzQ9b4jOeISYYW7EPVwW2BUG6Xxyks1lhUvNixlaVGEigt028tIlsuKlo2K6pPlTq9XB+fOXKcE9fPXZF/GTP/E38aM/8l/ikUcexdnz56yX3HKGeaQaOpBq4x69Ic0Odu0TWfQw4mEUDQmmhDpxiYQfTMbaopGqQ7iFtt5I4HpaHYCk8YMClYbK2udYEHRlZ1hi5HVsbLoAKn2MpqrVFoelkkao3h00dtHKh2jmBXZZ2BLaEM1iBRFVsERgb6zKquFRYyocmE2Pp8SXehaVKe0HhqLooqRuWFJylNqOUo2nnlYFsCeWNEdqpBm6zCM/bqERrcFrnsK//diT+N4f+in8vQ/+On7/o2eQp6sUjLTPUuaHJvBb4/aN6RBgjwmCTQzDBnabu+jmCcFRYkCwDwkolknE3hmCfZvWxJAAYYkzSbpLGMEWkLCeUwGKhqNm411OQgzjYxiWTdYKHbR8VlWHFqCqW9R0KbBvYyXfYdhSXKJFv+OvIcrW0BjuoEhyK6+a5NzAqFJOSIyDen6lz2tNG2R8V9YDI8f7aZGMtXCJOjmkZi1p3hTkOWLiZsDjqNHGKN9AGt+HC9m9+Ge/8ij+s5/83/F3/84v4cuPEeRj1sQEkmrlWWh2sEvqGjzINNikrbuqXbpUw/RgA3NAuR1qWQi+vJLmhiWyk4v6JJ9lifQo5aUOyV+tJupUMq3ikKQmUSpXBG0TOSVy5qcEbpvv9pCy8I2zEpFH9UTBYTj1HbXBWHxYWNX8qOF1Daph2hBA6o5ad3SHHSte0vxpJy5xoc1aP9RE+hzdNEcrVe3LjOPxyXPb+Jf/z0fx7e//Mfwv/+gj2LnUospz4yl5okOAXRm+B1kZd/vAzrOMnlr1S4DX3EZdU6OjnphgRQWAbFPnGBkrMiwpGgSmNVTqntnDUN1a0ij5XT6eBtTBCyUAw+Nvw+d7e9R0lF6qZfLcYOwAXIVHbZHqhFIU3eKr9LYmVnUu1UV0SfOmMRO7aBQ2hDzzc2PNnSis0T1EFKxAk7786A78/X/wS/iBH/5pPP28cvXGNDOyHKwJKbXAmDR2y8TJ19rI6Z9Qgu5Kj2qoC7WCBu/ZKyIkk/Y+Tm2u2DotpjMHNCp5g1b9OizY9V618wvsXqFdsamkBHxn3jSwZvEAHRa+jS5BznulrXueGy+t/gIXTq1wE2KLWswokXrmDHEVBk1KsXE+kwgsaZ7UysboaTUs5mk/ynG5myFpU02JlQEBumUXR4OTGFxqYty8Fx995BL+4c9+2D18A5odWcp8AYUseKjFQ4sS2aApk5c0CmkYnt8VpChGNWNJULwSvHxO+Lr/1AZa4yHjlCLWeHjemuvCS5DshkM9qnewMOVUWazzSMWMdsBqy8dRquEqdAqplrPQVwRipzsxZvQ7R7V8tz9gIaSKZcVH0t+1JlktsKRbQKplA4Ra8JWZFWq5COvHIVO9uegluMDzcbNDjaKLNtbwZ3/0WPXs9WlmZEmq29huA7t0dt8AbxJV6givaUXdiwmrIUlCgta1TutoWHRkhQS4a7M1AXsUaNgwgcjbX1qnkoghsUFcbmEjmzvJcMlu6EZjU5sUDldUHRmA9VGqMFJ/zlOyD0ZaFYxGtEl2B3bH7pklzZeEKw02DEofTeFb1T2NVRvjHkq1STFqN7A72CGOPOZvhBP3vqF6+vp0CDHqJKUAL7dNSjaVhNCnsalWlO1+ij5oJLpWR+q/DuaCl2OdOx3+jXd3sRpIS2ZVdeEcpXtMDUf68yGCVJFJXka9bGj0JQsT1ZkSO0y5EcYD4MH7T9hCYip7Ba13qTKTMRb8phZG2uHpC9KqeN4KWScxngq+57m2XK1qtqT5k1Y2zr2YeahlDkMap9RgBtIvR3BdqlrklO6VMZJmH/1jPpK33V89fX06hGQXO6nuwK5BVwKu1lMpMBr0rTXjmbPb6Kvm4V0yXJ36U31ITZHVG463gRMsoe2AUjemZKdBG1F3NxAegvQ2p18T7J5WdPXo5vuYID7VkXBU4O0P3Web7npS/QJKfm2drkKrNTNYuPxmGzsUHM9RjdFsrEA9uhTle1MPxUu6FaSGipJqaMZ86GtxW7o7UQe9UkNAQnQ04lYL0xI73kN34b73fzOGq1q74sZ0CDHq1BinytRqjJPsIa03bUfux108+syLtg6M4KGr9hz/O7DzAknXjreA+473WF25oQLtZoQs1fS6wwNLhY2aOhNG6hTPSxZLIlvrwB9vxjh1jN+nv3b0kFKl+aq+FnMR8aDx6yMeH3lhTKmiUZCasa4CXRXvJdZvGRUUXB4lk99poQy1VqhkJGtXAr2xlaFJ9eaB+x7AA9/1rTj+7ofw9MYYoxkFZJXjs5FAbtnPAOzNNlfTI9DpNKlTxXjmxUvYZcGT9Da9gayPGPBNsjuwr4dUL+45jkY6gG2Cy5vSUZ/qgt1yKNIiSDKSZTBrqQ9JZlOz8iEevEM9qPwmC2lANUerDZj0VyhkKPCgBqQBg/r5Z1+0EY+ULywsLNC6pQa8blzS3EkNeUkjteEjTeZnXESU8B4uUaXpnzqJ09/3Peh+87twod2jSGqinbfhKaNmoJnB7rLbsaAsoBvg9R2COI7c0Np+WuJzjyTWyDENdvvQFNhDGpBvINiPbfSoxvjY3b7sZvxLvTgUqRHUGchaK1FjcDRtQ0MQIkrvr3/wTvRYi/iaZV0OCXgNX7B2ItPJFRiB/UtPDPH8tpu4oTFAUmOUhmptcqrMkm4JDQYI+juIlZ/Mst2QaufJ42i/8x246/3fj/PrR7ClFY/bR9EfeOh6a4ht2cIb08xgd1SDnS4C3RUBqVCpqSAaAuBFLfx/f/gJDGVU2FUnE92H3LlRNsBpqhdvffMbKIEzm0HU7bRfgs4urlQrln4bgizJzlJ/z9134eveQKXEBoHpxiFrDo1n9DHU+B1Z1fpj4D76yU+z2myzkCq8KhACumMLtT60pLnTMWoFp2X07eygH1KkvuU+bL73Pej9+Xfj4vETSDdOol+2acB2CfIjSAfMcy2GOwPNDHbTa6nrJg1+yJYWJnDIGvKbUopqSea1dEsiFH98bog/uBTjgpa609R9Pa9/1PHzLDEdG8UQm3z2+99IFcgbYPXYJqVqye8YXAlc6m2e1mgnODMam/kIIVWQJsGqgV1SfcaFhncSmp01W+O8HA7RizVs2MNdfon3PHAc96wCRwTUkoj3ZchoIeYU8e45IrjEFlPg03T+6VcL9KjvaBOxkddGVDT4HhUMFuIG7YlGqy6mM5NqDr1BRpedKBzSSXmwhJc+aMy6xmoSHqVG2Vofh2EqiQfw3sJHVzCfSWnkyVDPxcojpT1tKhVzG9bMPNKvdhubT+U3xbRuGK09thrc3KpD6TyAtYeT7fSh+Kr2pJ+Gd6eUKltM+x2/iWNv+Tqc+MZvQuvoKQqsHB7zN8t2MQ5pj/nMfxNqsgNnk0T82myk6jxlAPNGk4HSti4ErXZ/Y3R9AkzrineSXZue91zRxL/+szHO2oOSuk5SpoyE8qFId6nHsDQOzuHhdeAD730Hkq3nMGRBkBpjw3x5pLi31pNeu4kuDdgOjU21f+dZBi3trCbDlKL33G7K0h6g3VtD2k/QTIa4Hxfx/q8HrXggtqZQJidBrJlTaqbUuPVkNAJrQvzKH76A5wZtFjFmEMGeskCHLDAhjW5tX2PDhm0u02yJWpNl4JQaJONb2JbFwGSA9lty4eKBNoIb48P4M81mZz5xDdZSISYQrmClr8aCKzqezzyhW1PcZLRfydrxULuEGE/57buPoK3dwZS/huPaasoHsG1lw6ib/cSq1fcDqrEhUi/AztjHjoZurFFV6azQAOVd1IujnCoq8yPDgOlEQRswHtZ/opS+Mc0MdsskBW6aK39losYWa7K0oB23O/jUH38WjzxLYHtNFFrEiCV9RKtakVOn2Cg8gqR1DNoK5wNvC/F9DzARJRGo3rTKXYJtiEae2LtHjOgLl4c4T+G8zYI2CteQNTeQtzZQxGtoM0Eu76R4EUfQardwsnwBP/0X78O9DJsiqFpuHFBxp4TWcnaFtioLVzEk+B99EfjCY0/DC1s2yZd5MCHJG9kCCpeOhyWFPVSmq4QrQ1k47Z1ktXqqydSIB5cyvI3fcWrZrKy6Q3z1NXvxvgxzrO8HBJR+WkWhQTA1qoFD5pYfa1ZduxbbPTVP3bvPn0xJcSAHRKm+r+/pu2VWIqe9l4wSjCiEUqnFVG0FZMOXaoFrkLUpzECzg50f1VYvLEzMNMcGfl5TwPRF7bjWoEHRWV0hyD381se+gLNDjXd3+32WYZOleUxJy3szgjls4EWq9nrPj7z37fiB1/m4I9hxEWMEGXdcpqTeSZiZtAU0wExSQaoNkh34yZbNSGJZohHawdHsBZxInsLf/uFvx5vuZRhYWOoY8hMkBwEpVheSGBfp+Zt/+Chy6upacyalxFOhdWQKEh+nNNFkFAOUe8uspE875nOMt018oTTWxmdiczNNG/qumOfqk9YSVIdnrXK/n1W0D/LXrLFIg6roEuhsU5+S0KNU8MeUvOIp98TvOqx7rmStveOK1NU/VxCAnHk7on3X3+5j++I2bb0hUtmAtOM0C8nNXJOQmBHR16GZ12dXl7kkk7gGuct8ZiDBqVFp2hlPoN+lRb2+eQTnn/0KTm92cfedq64q5+UWgQPNO6W0TP0WLlPqyk5c5/Gd631cyGI8sdvEpZ2+gbsRU8NmQUlo/Vr1RwAH1N171Nl6XkarfYjLSQQ1RH1d8BX8xPc8jHfdT6BTgnna2oPvdg2kLrQCu/Ye22W1/NEv9vGbn3oUF4s2tkttZ+MjVJVsANeITElIRdY9rTgflpRWqhm2L5wjmDOGX920GsrAA4Gu9Sc1yTxgXEumbUkVTSucjSXVDsPafe8Afxn/B/nFLNQdCoiMunAyohRNCyTDFAVrNwGwSHObA5DXxxsx77uSM75TK68ddG04oPROqJKQda6ebQG7rkCFF0l0sdLf/Oy/o9qtfLmjG+MHH9aciuvTzNvMGNhVGo0YKPu+jtTZKc2TlDo8AVRIXaEhsbq+hnLnMh48uYr//H2vxTee0DiH83xGVXqMbExJSh0m53vUbtNmgnWLp/DV8H78q0eB3/jdz+Mrz11CHtPwbFIX1zPUnbXdpMBbal8mGlfah+k0Nbxvee0G/oPvvFMmMdShpnKnfVi1SNO4oaKg0TLgN/iP9McD4L//uY/hkRdG2ImOoLFyAlvDzBZJ4pdsSxkzpEl1b7Eb5XkI4uOS3Np47KuPP0LQMzw0ttUXoI4tWwueshzNHuLVTdYuEatuFobqu7OTMsMBYj8xa00yXk0x9eM77rwDKcGfqDWMQiqj0W/LmVSvUoFUjHW8ksyruu/Ky/W5AGsG9wHUlCFVgdndUQGbD+t5Z9o6ql2uHDgNvb4uQfKOEyv4jQ/caefXo5klOzUwgl0BoySqw18dZVRqS0ElnJY3WCHQz1+4hKC7gafOjazKfut9PayNtw0Ampg3oGoTUaQ3hiMbCNbWDKbkPN2buOdkA9/yjmM4vXEnwnQHTaoqK36C/OIZbDT6aA3Pkp/Ha48E+I6H7sbfeO8dNEZXsEJBTlvWwtP0+F21wFC0qkJXt5OSJ+C/IQ34D/76Y/jM01tIozWaOk1ep3SNYhrEql5dJ9U+aa6MOyzYJaaYHhqQtnPhLDGsnfIYT43NZjiEQxs/5FONCGxSIgMvI0zqk1ptZmXp+1f7C6RurrDLqmlusiZZ6VGQsGZRMJWzkqy1Lk0N3P2XPm7qiHzcT1/TQD876rxyi92bdCTL38DMn7n1HN/EYzNuMZ61pUKq0sPeO3lucoms/7WP8xMpj+7sRvhrD69WPtemmSW7xnUHVCf0Ofs4HW7SBH+V287pthfyWFDv055gG1GBv/q2o/iJt5Y40gmsQPRpYGqrlzC7RPQz82XEsYZw04jkblHa0CqnOL64TbDs9rG1pTXeM7SDAke7AY6vdZhrRLgGwzfaGFCvV/giSCpfpks7KjX5PX4zazCDW3h+F/jVjz2JD/3xs7bNfObFSMhuKxkmPYEpSRzyaIZpJUME9Hq7mVnJdHSBjdL6q49+gYWetR/BruEVpsIws3MCCVEX0co6048atb5LsB+KNF7EYn41mbS8ihrotldx9NhRDGgMFoyhFzKvKOGnlzOxwjJ9JFtaiKvX2pH3O92a8eJRLqWaXaveVw/R0MA6qb1qSTqY9DH3DrFo8q0qBPX7Rcqjd57s4SM/eNrOr0dVsZqR+C37RH2cJIGYkRIz86y0KhNZZXepV8v4+5VPfxU/89kQf5JQkvo99Ao3bpwXWaL5fNRB36fepVeNdwj6LXh5H6u0iO/aCPDau1fx9ofuwkMP3YcHHnwtNu98Da3S4xTVLNEB9RZ+rk0R1aI0t7mkOdUOcko9VFvatNsEOgX9L3z8DD70J+cJ9HXb31SAUwuIZk1JT1e/gYq0maa8JhbQJSsPSy6t+F/Ms7ppUVmlL6gVRW5ds0LBoxtavPfYTKzn9KlZ2Z7RcU961lSfX33vFFfnosnRPPk+gVuNFXYU01tJR1Y2W38Cf26g3cF8WLo6FgfTzDmoIDAoDIxz75HF0v0E9IpV9WkUY8DAqwNoGG3in3+J6sPvnsczeUhJEjGfmdmUajJCt4YFdvUqgt6FSiCgvkFJ6Ok+OkdU06naWzdCynt2GJBtAnpEqV2qRSiVNOeRakFmk3UDCv4m4s46zrGG+OBHPouPPHIBz3qbLFhdk9SKi/oKnDR36otIw5e1Fr2bpCKdfeak2iPG3eAtST3NihuPAqncDvjyd6A9HClDqky5gu1dB/jv0b6TCU2HQe6aRdPnNS5tFxHz4L+qVU6NFWqbb/g8t9GlvE9gthS59m+edIgcVKa5jJtWV3QUKeL1RAcNzLE9lsZN7Ppr6I6H6GQXMUhL/MajI/wnv/AVfOx8gC2ak2NWb5oS1+y0TBvZymiwYZOAXWfoenxpyHeW1nu6HiSg4oFOmVPHz9Cje8WjotJiNa71XpiirEvQJ9CHjQ4TXbvBxfjtJwv88D/5JH7x6S4eY6WBcsBwC2rMDP4X0DVhQ8MMJN0trgZ7vVPr0FC9IPgPSy59lFZKHAHcpaHLdPcV/dfRSTSxSIl6E9gy5yB2X3Xf28/uVxVIC5cV18n5Pta1CfNpJpF2ErfeUaqkHlnA1yg/XVNlr/irN8Zh6Wp24TocWa0yA80MdkVG7f/iOrOqdKuIkZz+8YFAPaAE5MDr4HIWot2gcUap+9ilAn/z5z+F/+33z+LTLwDnqNtrQsoxvo+2BgpKfXV1T+o/SgtbxFKWlFoqpO8xIGO13TMFc/qXStCo6e7je/oM4GfPefh7v/EUfupDf4THByvY0epHbdYcLRYsSyGpD6W1ujg1xunoIqkuTo1x0v2lSHalkyYLKxMVJoHd0o7u+qgw2DVLUUtVHhTXWdle/BK4etRI+Vl9X2F1LhdOO3NuO7pDffcU87/ukWSXbl6xSXZTa5hfvO6KznXAPgnTzadD7INKUkDIewGqHfKsXXu/sBwiLvq4HJ1AFq6gl1/AOHHt58/lPTz6/GU8/tQZ7PYpteMGTvjqUFJzpCz2vbcbyNVqoQLgxzabSIP7E7Ia8rQbtgHTo2k6GuMrT17Er33safzSpy7i159fwZm0w3tDrGqeVxja5JKQzxrIqRRJfjtjVFm2p76Yri49VD8GRurOocgyjyoK1bD+BY3F4YfJmqCupgcpLSqs1lkWt4hdgdel4eyke/mcHfezvccK9dUcRRE6nY41NwpkAqiERt16Iqrvrk5dvk+5neCr/A3QBDfZQK60s7LoCoHgoRgfLCj3SHVt/f2aLAo6TvnbO0jKs9O9GP/eQzexnf1qqmJwILlAWTc2MzWxAVhMYBqPZq0zIdRuLSnujbaR757HerOB1xxfxXc+eBLvuv8YTp0MNKbMpogWxAjxbWPeBTexPq2vSMN+mvwFqut/+qcJHvvyYzh/cQsjqi9abWxLa8mop5LPagdttfBoYJZ28LfJKHxbPdVQJB8NlrKj+bjvKFFrqX84Yu2RJ3j+y5/ny9UcmiASABgmpUEmpEQ9NFfWWcCoLjFsB7egXI8MVZV7j9xrDngXvdqdHo4cO4ZhojxhSALWrhltFiV0Tcor6eMKLsOcqlAIzGS1rshtINeH+GfpZYXFBUfnFbQPQXuQrsrJHvHdqhn0RrUgKTeEsXef7OLDf+0uu+V69DWAfRZSjPcFd0IKct0EVWiwDG9rxk0cGTyH1f4L6K22cO99d+G++06j22sS8NSrmSFRGJugv3BhhKeePINnnzuHzw9iXGpQNZGUUukQ8X3KEA0uum3EuBMOaOQjPPflLxjYtWlxRNVG7esqUA7s3T2wE1xXSrYbk+4/+JmDCo4yvN1dMbBrHIryQGmrLvp6qIbdJ7A7h01ITz0HdrEGf6lgWE1wwDdqukb2X5NqMOoxgV090Eb2Hgd21SgGdvmxpnz3qS4+8u8vMtiZgDbEgAmmKlWkhM8aK4xEG3mRMGIpfcmSyNT/9UyD6oXvxZTSTWZMTMGiXDiHkIaqjZuh5FYWKQNNKt1OWlCwizR4bgJ2Sg+lXVq1swvsdbbZMA+SgJUJ7AK3gC7Qy13xtehWgP3PEey/NgPYlRe3jSaJpAiRdR5Rz1/x+jjWKrAZpuiOd9HMttEp+1jzE2wEKdZ57KGPOL2Ixu6L1L01EIAZRKA4WeQ6MUxKLelAqoFkoHJelnKqF2tAlTQux2o2pP6o1hXXMeTS1YHcHrv9NGNAbisaTCozhW2EG1UQSWUtMR1oEsjgAqJsFyt+gbWwxEpQoOflaFEyhvQPsx20xn30Ai01LXWFWjgjrQ1/pXtaLcHjkg4mwUOZL9CL7CCA01XoSNa4ljENp7E1H6rtPDDVpQb7XjF5edBtF31KtDrxJJm17sxWuIGd+Agu83ixsc7zo+g3T+D8eJV+mxi0T2LUO8njCd63aeuMSGORcecMPDW6RLdXX19wMphWQDcSuHmQ2mFSXUywm3RXywDzSPlkujoT2CS7e/K2k/J7FrqtYDeVgwFVsuknsGuOqKc1IKmzawxJU1Jb4ocGqmYqhbx/nI14WXusjnhPYZNDpKNbZlDyKCO0HUmmHftexSQQ1EJE6aMt982WoUDQGBXdoGtqJizkz3NJbvV+WmeQmsMk2XXfNKD04upYO28nzRqE2wZ2k+iVGiPVQyy/uJGiTT29rS1iqKuHVGnifBetYoAgkZvqC/V3XW8VO4jyLQQsIEp0m/NozYiuJUYDj17dVMOAYoWgVu0nL3XwqHdT7eCFNTv6BnYBPYwjBBGZtaJrhqya++x5FprquEe3H+0sipXr+rRwaFCHUuJFjn03IjHxmuRWxXT7YvlHSD115b/aQX0wqeBLmkuIyKaRWhcGGk6srrSx7XAoA7SkUNCoxyCm2sfa0fA7heFar19UmrV2WTiUKF0nXep2rnIrVieP2JVjd5+7d0k3ployq7k3y3MzQjOlM6W65uQ0IoJdg/NklNoD9tgE9+JFpVnDtnBg96HRh9TFx9TZay7pp3HgNU9fI9cjFZe0nyTRa509z52qyBNTYwRuGZ92FMDlR+DXgkQkcNS80GCfUbQvHNjV0VKPI3fDazXqsHLvY/m5ezVAdkkHkcDO2rDSsdVxpE11V9fWETQjgjuwebrW8sLrpptPoE6iUxVnzS938jTVTmzLINjIHZVuAcix3JPxmYcmKR2C4p4yssciqSX6Br/NM03CZvbsAXkf8OWuzvmMsQHdGVG3ghwUpn/ym+YrYsi/yV2GmP33uXArxvzxgklQ3VA/s4+vTTUYq09MyKl56m3kkVI8bDXR21jF5vGj8AlybZ6rOacCu9RBGZ/im0bTgZkjuTS7MXnRsMRm0EOcahHJFhO8o4lvNPzI6rbXmPNxG40ysh63eqrZLKyx4bZTkSZGUFcUmOWno03xK7U6u7ZejFjggF6WMAy5uY3tHYTzVSx/Mu+pewHnTTZm26NZ52XVkec2jptwNrAIwHXhdQtiSP8NYvrEDazfcQKNOGJalkikUvAhn0Z2HLYRB00tZsF08qAOywYjtcc6ZwD4HTWnMtqUUAGNTIJVhZ1IDvhcxPdp+SftJqLBd5LSeZmbXt45uoFj992N9btPYdxr4ZJWTuaHNA1PK4NpxKMMU7nrAnJT2CXdXImfYcrNJoi9lDbJc6MtDNseLhOYiRYxb2QEU8IsGzC/dvi2LSbOcCojZ2ON9ci0HosX2DDcVCMOyRkzSVvBZGRN2dNR52qJUfBVUveYGX4g793Dj82d7TtGSt5pmlyoaO8hDV4bDPs0CFOsba7iNfffi807TsELqZoRiCP6pyzcyiunL/PHwrD3jj2yTCXIrQOObhtbQ2ZSWNOhJrybccl31fp31Olg9cgmWisdk+TSzbWag0lye+srg/by5vrk9cMEF4IhXhwT0MfUtDckpIdoleqO30LUuEDRcQ5lsO3UCOnQM7KWvkitGTHEyJc7NHdKtzYLzildNJrOltZjIRgEmvjsW2YuGuv/9LTDev6m46oATlQ2qWO5SWY/FPAkaamU0b2xuYZ77rsHq5vrlPgEOKVsUqS8WiBjradZPAcS00jLyQnsAnjduqJfwoIzYMERC8xxp42No0dw5Pgx9NZW0GyyxmbeuUVjWf9YVfEKIpdBN6TGa/7Wb40vhBHBGCPwm+hmPtpJiZZVaRmyYIRhRAlEqVKMu3rEPTkDqUrVymFKYKvk6xJIsLhq30HFbXLg7tnTwxeMGFQXwivFiM7rNJm6RnFjozb9FO2IaoeGH4/6rO9KNEP+z0tsbe/ixXOXUGhtj84qjUbt3aoP1e9x6eOI6USBYEBnutZgl3/BwiKpjihCi9K8t9pDt7di6skw1ehR3lu9RgarVBatlbn37sWhfTHnyQQzFlTXwaWaqR71qGUVv+v0Kv7FD9xht12PvLXiIprZRaxrfoXWNeHLpW9qyWctYppaRw71eLonEm1WltozpkpjwHaB1zv4WRdQfkXbQ0qfl9/Qb1WSXRJysVgRUNjdOioqoGQLtcWGbOa044ZsFdoeNCp8lvasGCGjBKdyTbWtwCAdop8OsH5sE/drpYT770G82kFByV8wd5VWB7F6OR0zq5l+6hxSjyc6Lfjrq1g9eRRrJ44i7nYwLDPsjAY2E8mWkZNU10v0z4D+CiIrCDemxt//vcfG//qzj+LJPk1J/wiKpEnDr8PMpISlaE4C6paB9vUHNvpav696cgaSapJIF/U0eY7AtmYByTaqMHyn1lBpsYB5NFSHfhsX4y5W8svo5tvuBQtFUh80GZxkSmLNTBgaqnvnJLtOv4ByKNTyc9rNm/HnfVovk8gzVULT//yojfbKJko/wpkXz2P7RU1dVEKJlIt7OakFjRxQWdAEdBvsRuN+o4NGM6KxG7F2Zg1McOda6o6SSyuoSexYWzTPBXobGkAD19Wsi0VVClrIZpXs7717FR/6yzeW7I3Hh8PxJ5/J8YePPI9PPPoizm9Re2xoO3ZnMNma4TY4i7VkIePoEAnEAtMYs5YIaOhSH9UU0PFYa7UEGEXaH2eEXj7ktQ62g1U81TqCTnGJrCUAFowkSgV2i75yoGYCx7Su6nyqIGiPp8KnsS+QWyuS2yFEnGvnBqqOXtRB1F5BSB7Tlsl3Euxe3ML58+eRDgZ8DT8oFUWv1MdVrlhQwlYLve4KOt0u0hbrEVYxk7xx1bOdWY5V3vJz44fo8NSIUF9YHLJokhSyK8GuAqvoC+gGdru7wHcb2G+8/F1jZ2c4HjEPL1KYPH4R+OzjI7ywNSIgVVXzY5QC0jfVxJZW6sisFFBiB3lAKb7LRKfuyhwpWWuohWaXBaCDPo4UQ+qgK/jSpQZ++dkdNP0EXdYmi0dEk/obapoCtRsvtXdec6kRmQS8qTlqdmXGGNh5LaOUzrVybrOL9uomVY81prnSi+nGvBj0+3j++Rewde4c85MeUQxo+iILRIsgX99YN8NT7eJ9qk0yTEU1fBUcA0zFNZmb19zCT9NXFoOUciILN0/2g10p6YCusT1O4TsE2IcXthhnNy1O+ZmEUj/cR0P+i5S+ZPOwTCXPSK4U8p0sTHq0JQzzPdqZ7gI9enSvaIHSsoXffzzHj//fH2fG8aKa0RaOXCvMHjHwBnBekeS1BFKM90hgF7uJ3e7oZJPupNpYUKBQdettHEfUWUPCS1L1tMKuSEs5X7x8CZcuXKR7iDBqYm1jA512lyqNG+MisZ3zdo11maZpsIumjwqp+gT2fBeHXIpWYefJLGB/391r+MUZ1BgPTb5FCjklEMYZYuqEPZ6uUKK3rINHK+ESkLYiLg/KqxmZ+YyQr40p1WLtvpunZJehHd7SavAcTj9vNz3KeV6ICCpKqkVjT2veaLHUCWujBPqJkTnWUGPGoWbrXFM6KNOoYMqorY13j6qcR1XCtpYnq4Wk5D0p032omVYEctBp4uipEzh1z904dvedOHb6FFWeFkZFZgZooR4o6u5Cgn1jig0slrKO6LXv+EqiiZp2A/K2KJW2qVfuxtQVm7uUElpC7hLBqqP2SKL+HNGqbyYYsgIYHIJzsgSI9H7tl2Q7GTBvtOiXIN4nQAwNpB1m9nZ7HUWzSSARYAvHmnlPQ1PcENOwNhbIxbxHIGc86xYcqSt7a9rXXNUQdIdBjIjSukHQC+h6QhuYaS0nRD6BXxjo404Lx+84ie7aqg3eSig8GiELSxjaMF1BWHVBzdeS2QJ6za8cmj02TBe3TFBmLcAhM4a6YdEmawngTWT+EVzS2ohYQcQ7W7xzVpbM0Re0KJ2WMwJBYrmg3CAVtnKAqzX6WYodhiChEacri8cCs6R4Jc0nAK+5AjjBKpCLJ1L2Cqmun5b8ENjjuMX8ooGZ6RkantrWPiTQNaGF9bjc6trP1Dwbelg7soH1I5v08zDMR9YRZVJc35lm+VVcE70n/EqimSX7WNUhgSkKwYSmkWStDjLGKDSYB8xKl91qn6kzchbWEhhCvEwhZiPPWZAIdEkfNet7akaTAWvd5iM9AXV2ODgs3s8CP+EaStNusg4TktRlGliLFl3MFfVCqy+h8COaSmStg8NaTatxufgT5GQNAQg1xtwGazE17b00egluP2ig22uTO4ibakLkjwi3wVzVsf45qs4m/otMdRgZyjouFm53ZZLOZCFl7/zG1BgMh/viPnmseq/7iCNl697ZjSnjvSpKAjbK0IwogwYLQUIJGOSsftV2TJ31I88m+MCvPo4OJWYv39UTB9Ds3749dGWiS4jILqGYkHFFHlNlUdPr5vFTPHduHW3hVBYG13LjVLtZaXdnwJqhtPHqNpeUPxVOmxxNrntb3ZQ6vbtBGUThc1V4bz9pnTSrmvin0Dnec1k7L1nDKrTS27hI8L33ruPn/9IpXr8+WTvCNE+oOtGhlmWOpu++EdfwnHKbc4yQmauBTWrvlWedIZLsqk0OYm0ottg83s8syNoPSgshqQ3do8oSNimNW10D/6RFRH/MYCWN1YiHYqDb1fCALqV808asCxxqhVbPqfWgshBoISRrX7erLj8WlVysrqb9/tNxuNYT+6kxvEKy30zKmOBOsjNgpaSYK13ScdVpZbap7bTh4d+cyfBDH34CbSq57TH1+wPItmR/GZFWMSvKFAFVFnXrhwSjHzZZviOMUo09kkRnnAR8SnWB3+n9SphZiQkqo5fvUKeLtrccjYbo9/v8PlWoKs1qiOse/TzrDZbPYpEku9QWCXcLr7H7b/XVRLKrn4L/Kdm/7zVr+Ln3z9CDOk+wC9ICu23+UhDsTPca7JJ2DWaMxrUjDvHbZ4Ef+zdnsNptoqNhxleQAmnjO15mRGwx8E5eK/LKMIFaW+2YW2C3THTXKH7JhwO7dtwLrAlTH6OQSXMkSWJbdk4vFOUyWkB6qWA/7P2Hp5cC9u9/zTp+9v0zqDHVcW5kyeNS2R1rNx0TJ29SU7NaIrQcdcpgXcnaE6PkTS8ntrH6iKDt7tU2lZaMCwu31BsDeSWNTQBY5hr8q0SZndxiUFT/spwAVytRA51OGz2qNk3WJrGWxwi1Dqblhunue5kxKy8umUCZgW4N2EVML7nrc9s1TT2FJtF4mf+UCdJqkmvwiALv5cQJ1YvRWJseOzawl2pGVHJIZ9/LJaVC3dp1WLJ0tUJDyaec55/SU0OCBfYoihFKl5+ogYf/xmLTbPGZK9iVCfaBKiySXvvIMsVJ+NTaNgUEVWPSYQ9iQuFlxKaPC2B2ZMHWTKOKdV1UG+ZujRcZkeZ9KFJTpQxQpaeGLujVMlCV4GFIwLdi2+a+3aKUj0KzfdJ0RPVHjcosdnxArGek52sWVTmWouCKY339thLTRemk2VkaJqGwSVi6ocuzJdrcwT5JIobnoORSoNWGrOAaSMzvlcHT5NKC/xlHk7776Mq7D0tXfnmKpf+SfQoSqTIR7aO4GaFNNSei+qOQFGMZ0g747n467XkCafpdC0F7YVE6qgA41NyY5gp20STd6uM1wjV9Sc+8IlgZUWWG2MbKVG753xyq31On4DSrpnAsAKuDSvq7tslc6fUI+JZ1XCmskur1fbUk3/OnlFfNsaB0tfA4mG4N2K9BliW8Yfqo++vVCV7urAmGtpIC2W1ORiZo3OjHuhCI9p8dnmpwX8l7ZBKQoFA7fG2wxjHVm1bL9HpN+nBSkkCnmmNgr0BEuBsvKs2aanNXY4yuTvsJTV8S4JniBIMA/0pgTdhwQK/Hs2uorxtHsx/evH1fWtwMElbF0ufrFXxrklvXIurw7QrwTRqyblI3gS6u7hWpICwsTQf0OjR3yX5YUrgPBs7LkVVw3XzUejx7LfX31Jj6+DWQLP+DuCIBPadRpzFIWZYiL9T27tQWU12IgmYzRm+la1v+SKKbUDcQLb4ao664WWjukt0+oCUG1IchsnBJwjnpJmkeMh0FDi2voYFSptK8EpgxVIuMJmo4drLcxsgQTYKjk+9fI+lj1yHJaKeSWIoT/C7d1YFT8KfFnrxACzpRtWlF5BAhDVk/JIx8vZ4hnAxddiGuQ7/HV1Idpivvuz7rKRshymMdYoXUzfOVMlX/eMZ/CtGsNH/JzgBlDE9Wf4luJbIlHKWbBbZgeSCPaEClvgPFK4HdCEct/qShEirIrjDX128K0GualLA9VuUhVnt7oK31tVy157bjEcAlhARm6lcsgJT+ZUbA+2j12mh2YkQEvQqAH6pPRPmWsRbQiEy1osqIJehsSLZicVBM5OdAOitbwSQsHYvqd/O6RtHyKKjb3Yyj7SNb3Xkjmj/Yl/SyIunm+43Z2FpvZMjWkHL3CG6EGQuvoysBP+2eL9WG9I1oCfYl7SMDshmve2AX0LWKweraKkIatNrsbZSOWBPQFpn0yoquBPytobqD7ka0BPuS9lEt2aUaCMjarkeg184dzXbTOqPUG6shCCwRpvq4hkn9BPX6dwthvwT7kr42ImAr4IvdToSltc93KeVXVnpUb9z4+T2VuYZ3DfVbBveZaAn2JR1I0yDX7Cdrp7emSunzMNBLyq+srFgNIFm+9xPMl2CfUKk1T0jqxEBaQkuEK23cGixLWgRygCfABXa5+XPNlfRTcyTzzAs8bBxZx9rGmo25kZTXXZo3q44pm0BCH9kAGoCm5fisNriJNCtkbhvYFXnXmmonk6pw4rekBSOCe9JZVTOpAn0Q+mhR0nd6bTNiNaJSO5dXN1l+i1RL5JWgu1mkxtxZ6LaB3cgwvgfuWZuQlnQbiFnjIM6f2td1bkf5EEismiXZW9TjZcgGGkrsaxEo164vfd9WEzZVaDZwzkpSomah2yvZa4lubh0rXtKC0jSo9tym2xPAYuWpBppJl19dXbFmS7XomM6vNSt5r020v1nE91Enrk6uT7dXspNqae5wvkT6QhOzxyT7vp/zk3pi+6vyKCmvCSMaQmzTAqMIUbWctnpz6zy/WRSawXdjun1gV4TrSOswcd7chFjSzSEHapLlFV2TI41PosiY+VkDXx1PWsdGDQ5N7dLX61HFaVvLjQaj3Uza3NDqdTemOYNdYzA0OcCz+ZXuaxoE5jFBmCg8atGMHdZqa03gXf0ncGL3HFqUBF7oYcirwzBBEqVodPikn9ia5xrXUTDRtPXNKAihBYZUSJa/+f1sncqSOTdhnYuZy2SN9auG2RD/1MsJdi0loosaVxNEkvYhOt2Wja5Ui43j6Z8K1A75Eh0sTWPt3thFSAxFnlaiGCAfvYhOK+GHUmxntAXC03jtMU04vzHNFewa1qPR24K6Wcy2RIaaohpIUpZ8uqRtaaHTjS7wbd0Ux8oBzl7exohSodPtmX4n8Pd3t/iU3qjUnU4cR5N1FJc8N95bnPUKpuBqkCeTViq2PG9oLqvmjFK0EfRRzPykAduxpfu03CIxMi6MlaNaGFabN6iOsAVgS4KDhUvrZQbeGD0WmHy4g2ywgzAvcGotxr0bFQhuQHNdN4ZRNVaJcs1DzkBhTJAS7OOgBW1jyHKKHaL+iWd38Hc/cxZf7t6HYGeAlaTE8Yj3JJTw6QBlk1UgRUguMcLE0EGSpVB77lL7WVBSXk1njiQ2Cw9rY61UprVt0iSz9W001sYvV5mvIdWd81ZjNIomtYAm8T5G0MoQBxEuvnAOp9ePIsjP4TvfdR9+/B0tnKJtcCOaO9glvVW17YFdR5GkPq10RnrAEFzczhA2Q/yDzyX4f8+FyLZ2ERceWgisU0P7eCbjFAVTQBvu2swfvksTImyHvZts9CzpZhAzVtliCKvzR0fmfcE89TUryjfdfjRMMBxRcc17KAn2EOeJjoz5SwHXWEHusRag7s8bcaLZQHzuMbztVIkfed+b8PBGBytx7F5/HbolYJdk13zMPbCTWe1pZaScpXyYUnujW6XiE0PgQ58BvvTUMyhbXSRhTMkdI9OL+FjA54OymurG96kQEfK8uKSXBzmwaxiCLdlX5Z310FKonWM1388baBUJ83jIe0ZI/A4Sr0dliLruzgWcjHfwcPQEfvQ9r8Gfv6eDdriBONb2FtenWwZ2gVKyfAJ2LcsWRuYc5QRw3EbK427g4QX6/erHz+DjT59Bf+0oLuYsFLRQSx5DSvuAOovp7hQZMlYzVnFU65b0ciHp+ZqVxvyWhBepWVIrm+X5FgpKb3/YRUlVNy+GGBLmCXM8LSNshlu4q30ZP/5db8C7j63gBNWgoN2DJqbciG4h2FmS7awCvFgRpQ6WE/gyZ7QfPys3a2k5z1D91ueexu984SlcKNrYKdsYh6t8TuuRSzHS+xT0kjp8QTXGJdqSFpn2VBmb9EHQj8nT1PO30CwTFP0eRn3W+sMMSTGg6jpCs13g7a/bxF/99tfiOPX7I6MUa0Ebcc8ZujeiW2agmnVdw9+k+/RnecckrH1yytu0+8cKRlvAF8/08eiFIS5FHfRZ+jV9TxSw2gvViWFAFy9pccmpL3sktwP8HlEXTy+j66fwqL4OdptI+m20qY5vrAF33UmpfrSFdXVQqaleLZAtH2F3tqbHuYLdyd06mnuSeO9K5dQddZy1WZnmNbLK0i56ttQ102RI1q57imNdW0i+K5piTdhe0suIrpNfanHUevyUYwaTmNiIxBKSmocqnVU7w/CeeGU2qS5q5Hk+nl7W+GaTaw13rr0gye+g2NJPI+XUPEmVJrPFQBtmxKo0xES1QO6AXrW5mzpEn2Xb4+KRZYnymY5Jdru8rC7uUX2dGNbk/ITyTkNoVIlri1KkFUarvWAR+giaoQ0ZnpUaYxIBf9OHXTpSKFU8nUx35CKp8yuiS2KBEHBJfcZBG4qNeJf6RyPK8xa5TdYKW669XiVdkl7WwNVvW9Ii0JU5Lbfy+Eo/d64lvm1LNGZtJKDbvoojmncBs3vDZJpWRIhZEJrBjdvWp8nALofaOm++hBfQHdjFTpFxwLePklwU98jG+pMKlXA+q5/28ZMkN/PVHq7ex+pL7euu721Ji0d1Trv8clS7r/RzpOEjArvWMmix1m6MBzZiMlVfit9lXgNd2m2tQ0j0miZgF8kpCS/g3xwS0PUuRUbtMa5rqU6CmvaiCuwK7SzRq5LntLYxZPQ1FSVkUdbOEgF1eNZvqofqZNT2qlYIlrT4dIN86jObtVtLrxzCl92WajNdqjUacNZtoBPEhME0YmYl4P8HEgiF6/BBWqkAAAAASUVORK5CYII=;strokeWidth=2;imageBorder=default;" vertex="1" parent="1">
          <mxGeometry x="480" y="10" width="83.11" height="80" as="geometry" />
        </mxCell>
        <mxCell id="uJWLFALCa80SSZRDJl_V-10" style="edgeStyle=orthogonalEdgeStyle;rounded=0;orthogonalLoop=1;jettySize=auto;html=1;entryX=-0.002;entryY=0.381;entryDx=0;entryDy=0;entryPerimeter=0;" edge="1" parent="1" source="uJWLFALCa80SSZRDJl_V-3" target="uJWLFALCa80SSZRDJl_V-7">
          <mxGeometry relative="1" as="geometry" />
        </mxCell>
        <mxCell id="uJWLFALCa80SSZRDJl_V-15" style="edgeStyle=orthogonalEdgeStyle;rounded=0;orthogonalLoop=1;jettySize=auto;html=1;" edge="1" parent="1" source="uJWLFALCa80SSZRDJl_V-11" target="uJWLFALCa80SSZRDJl_V-14">
          <mxGeometry relative="1" as="geometry" />
        </mxCell>
        <mxCell id="uJWLFALCa80SSZRDJl_V-11" value="Serviços de validação contratuais é aplicado na solicitação." style="rounded=1;whiteSpace=wrap;html=1;fillColor=#008a00;fontColor=#ffffff;strokeColor=#005700;" vertex="1" parent="1">
          <mxGeometry x="414" y="270" width="120" height="80" as="geometry" />
        </mxCell>
        <mxCell id="uJWLFALCa80SSZRDJl_V-13" value="" style="shape=image;verticalLabelPosition=bottom;labelBackgroundColor=default;verticalAlign=top;aspect=fixed;imageAspect=0;image=data:image/png,iVBORw0KGgoAAAANSUhEUgAAALUAAAC0CAYAAADSD20MAAAAAXNSR0IArs4c6QAAAARnQU1BAACxjwv8YQUAAAAJcEhZcwAADsMAAA7DAcdvqGQAACpXSURBVHhe7Z0JfCNnmeYfSaXbsmz5bB/d7T7dR/rIfUKThCQk4UggA8MyYQZmYHd/4djfwGxghw0ZwjIDs8MAw4RzCRmuGSZcCZAEQkLI0WlydHc6fR++2rdly7qPKu37lqoPWVWyJFtWSa5/Um1VSZZVqqfe7/mu9zOlCZwH76ZSKYiiqBwxMFgaLBYLBEGAyWRSjpRGlqhZyMlkUtkzMKgMVqtVFnipnBU1R2feDAz0AEds3krBzP9whDYEbaAnFmKBTZIkpePxuLJrMB9ynUOUQF8b+L948twX77BmIgtbQrPZDMEixwyDBWC324v22KZEIpE2KoVANJ5EMiXCPxuGPxDGVCCEYCSB6VAEs9EEYvT8ZDiOAIlYZFGTuFng8eS5Es5OXpDha2AhQXusFvgcVjS4Hah3OeBx2tHgsaPe7YSvvg71HgfqnA44bALMC6wc1SrsrdljF4MpGo1mtX4sByKxBEanAjg6OIbDfWMYGAtgaGoWR6aCVOxJSEkS7PytkGgFCrYiRWWOzHQAYhHfFoveSuLmSCOYTYjTewgUwbkqnqb9FL3Xaq8Lq5rrsarFi95VrVjb2YLOtgY0N3gMoSsUG61rWtQcTVnAYdrGZ8J47tUTeP7VPhwcmMBQMCo/Xy9QJCDhsegqQUq+WYA43Uwif14qBbwUuTe2eXHDJRtwxba16FnRhDqXnUqC0ipO1U6xlcaaEzVHx0Aoir4RP/b3j+PlIwN48fAgTlAUtlGUdFHolaOn8nq9wjdclIQeI5FfuKoFl13Qg11be7B1zQp465zKq5YHXD+x2WzK3vzUlKhnghE8vucwfrv/FE4MTWB4cla2C3aLqaqLcrY/EfL7Xb46bN/Qhduv2Iyrt6+FlUqZ5QBbD7YghVITok5SNHvoiZfwpUdeQIQqd1zxZQnXmiflCyVvVHm6bG07/umu2yhqO+Tnah2Ho/DzrGpRi1ShO0wW43PffwK7jwzBbS1n5Mq+QUxUJGoh92fxlsXifs0cvRNko774lzfi2gs3wmkvroWg2lgWouaL+p9P7cO3frUbAxOzcNAFLgU+eZaryUS/T5HdLFgh0b7ZLMBsUdqdWcD8/HmYrS759WqkxTht2Z1ZaYn2SehpSaQf9BfohmTdS6kEP5l5De0XU7hwJdNKlco/ff02fPAtV6DBQ5+pRql5UccTKXz9F8/iu4+/LD+2FNlykYmyZlgcbpgEmyxeE4mYhcuipgfya0yKqBcPEjVZIzmIp/kn7bOo6TaSUknSNv1MRCAmYmeFPh9coWSbdc32NfjUn12HNp9Xeaa2qGlRc4S+/+fP4v6Hd6MYyZktVghuL0VYJ8x2V8ZMkBgyEVre4X8qh6x0/kERnM5RSsaQmB6GJBY2wIyjdk9HE779sbfXpLBrVtQc2Z7edwJ/+/8exUwwRhFKeUIVEixFWoGiscXVAIGELM0RboWapotCSiaQCIxAjEdl65IPFvYbdq7FZ9/3Jng9tdXsV4yos42izvHPRnD/I7sxNhPRFiRFX4vNAZvHB2frGth9nTCRoNN0vNljx9rWOvS0uuFxCLKf5g4PPWO22uBoXgVHUzcEV718flqfmDuQ/rDvJL7z6z2yLVuuVFWk/o8nXsEnHngcdRqtHGwlrCRmgSIzi4GjNbO1qwHXX7AC69s88LqoIkhCnpxN4OjoDH61bwSnJkKwkFj0DluTVGgaieAUWXJ1W8LnZnPY8Pm/vAnXXbRROVr91KT94NFwt/7N1zE8HVbt0mav7fK1Q6jzZXwykRDTeMuODvzXN25AExXH5jm/x6Pt+sYC+NzPD+DQSIiDoP4h0aZiIcT9pzXtCNuQRjrfRz//V6hzFt5poWdq0n785oXX8CpFVjVB0zWEs7GNonTzWUGzq9je7cXdt21Di9eVI2iGh4au62jEPbdtodfY5d/RPXTnCU4PWasemMzqJRZ/R6MzYfzTj34n10OWG1Uhai5Sf/HcIXg1BvRYHU5Y6xqVvQxsMz57x1Z5nMd8rGz34eM3b0ZSKqwZTQ+YrXa5vpC2WFU9NndE/eDZwzg2OKEcWT5UhagnpoN4ZWACDh4HOheKXFZ3Y1bU4uL3zRe0FNW0dcXGNmwkz82/Wy0Ijjo4PE30Faj7JhvdpA8/d0C2WcuJqhD1wKgfszHupMjFLNhhsnLz1bkLy/76qk0rlL3C4A6cXb2t8u9WDSRmi9MLi129J1GiiuXuY8MYp6CwnKgKUR8bnIRVQ2zcA5jpBTyHnSK601H4UMUzdNRXQ00xGzOPNba7ZYHPhXsaJyZmcPL0pHJkeVAVoj5CkVqrFscdLHMrTNz2zD68WOJi9YmaEch+mS25NzGfzVQohhOj0/IUtOVCVYh6LBjT6CThMRq5LQApMU0Xsvgi98DpiPKoupB7Tl0eZS8bHpZ74vQEEssoW4DuRZ1IphClrdgY+vBLQ8qjwghF43jy8BhsapXRKsDiqFceZcNnM+6flScVLxd0fwWjiVTWjO3z4ZF0Zhv5yTmwp97TN40n954sqJ02QRf8G789iplo8TePXrDYsyvLZ7DQdzQ6aYhad9jMPJpO2SkQp9WMz/zyOJ47MiaLVotwLIn/3N2Hn758Wv6daoYrjWoEYonqatVZINV9FechnhDx+UcO4ofPnIR/NqocPUf/eADfpAj9wB9O1vRF5yEGnHhnuaD7sR+BcAwfuv9hvPRaH4Q54ZoriXZfFwRnnXIkFz457pxwOQT0tniwtjVjV06Mh3FwLECRWpRH/FWr7TifyMhRebLB+fC96nHZ8NP7/hxtjeq+uxqo2aGnpSCLlXx1JJrES/1+fPf5PvxwzwBeHvAjFhdhqRFBG5yj5kV9PhzoXVZLxRLXGCwNVW0/WKU8s8VsLbxoKieCu0mzsrYUGPYjQ3WL+iz6iLw8McHesEKe0FsJDFFnqBH7wfdl5TcpGUcyOJmTHsFgaVlWnnop4Dwec6OlwdKie1Fzpk95/Q8OhlUAR2kjUlcW3YuaE5JfvqZNng1eHRgtK5WmKuzHnTdditdtWYkIRWvuSMl2spXZDPRL1cwm5yGUjz1/ACdHphGr8OAcnh716AuH5ZaZuZhM3MvZqTkUtJwYrR8ZqkbUeoJXJ7jzvu/h2LBfOXIOQ9TlwegmN1jWGKIugWIW1TFYepbEfnBxHYzEMBOMIkQ/eXxzgnxptSZa4WGqX/jh7zDiDylHzmHYj/JQcU/NS7ZNTQex9/hp/P5AP4YDEYRJzHHaeKUszsOcSJKoq7gdIRJLkmByP78h6vJQMVFzq8Ceg3148LEX8eTRYTjpovNyvPK1pxKbvY6JH9RA6a11Coaoy8OSVhQ5WvESb4/vOYT/cu+DuONz/46nKTo7WMwij1fOLIzJg5E4DwXbURZEtW8G+mVBoualjx/dcxgf+Zef47/9y8M4ODiBZocV1mU9XpmLpUUr/AxKoGRRj/kDuO/Bx3Hvg7/FC4cGUCeY5Ui83OHhp5y80aBylOSp9x4ZwF3f/DUCU8FMcWxoWUaeM9m4gvw0e9el/1KK9dRSKoaRwz/D1NDztJPbO1oQZgcEWz3cvh5423bAWd8Nu7tFeXLxKFtFkRedf3rfcXziO48hGIwWkX2fMylRoSC/nn117d0FnCXJWt8iZyKtFMWIOpUIYe/DdyI4/jjMFi5ZSp2xww0BceVxBmfDxejc/H609FxH30cjLAILcmHXvGyifuLFI7j3+09g3B+CPU/eZ35DPgWzzQGTYKeTslKR7Mrsk6AXfyk3A6YYUR979tMY2v/PsFgXv0UknY7Jy3fYnK1oWXcHWta8maL4RRTYSr/uZWn9ePqVo/jkA7+ZV9AMLyRk962Aw9cNR2MHbN42uYmLs5MagtYHU/2/oGBTnmlnJpODrrUHqWQEI4e+hSO/vwsn//gPEJO5nVXloCBRv3ZqBHd94zGEw9G8gmZP6WjqhLN5Faxun1xpyizEaaA3JBIcRRhlr1xweW1DPDSC06/ej72/uAHhmVOZp8rIvIqbDIRwzw+eRCKS30NbbE55HRJeGcuIxgbZsMzMCE0dx8HH34vA2F72KJmnykBeUXNSwYefPYhT/WOaETpNd7vg8sLRsspoylqmsD7PbPkwmR2IzBzD8ec+gaD/kHJ08clbUewb9eO9f/8jTM6oL/PGsKC5GUstT7TB0lJMRfG57/bKnncu7BZXtFhQ5yiwtYLen+dshEhG0XgawQgPVFOe0yAtxeBp3YYtb/xhwc1/i1ZR/NpPnsGIP6gpaLYchqCrg0JLexZEY50ZbT5LYVuTBR1tFqxbKWDLOgE7NljR0phXVqQXO4Lj+3HsmbshidnNgYuB5l8/QJXDrz+1H05BXbDcPONsW2MI2gAmumE4JyEPj/C4zdi0xorNPVZY+aAq3G/hwPTpX2Lk4I/phlvcpTtURZ2i8uTLFKVb7NkLBJ0hTR/K3tSt7BkYnAeXCKTRZorW2zda4XWTsDVKibQoYOz4g4gEFrdFRFXUB04M44Wjp+HQiNJ2TyMs9sI9jsEyhITsspuwppuEXacRsU1mhKnCONn3CNkQ9SUFSyFH1Dyr44m9J5CmaK3WgsfJGC2uRnouv28yMGA8ThN6OgUIGlaE11cfPfR9pGIzypGFk6PMyZlZvHDsNCSNJY05QnOPoYFBodRTxXNVu0W9smoSEA0cx+ixh5QDCydH1AOjM5icCtATuXcWR2eLysJBBgZ5ITF3tlk0bYjZ4sDQq19DKj6rHFkYWaLmibBHRqYxPB1WtR7012FxLv4AGIPyYrdauL1B2ascPR0C6KPkQtE6HjqB4cM/Uw4sjCxRxxIpHOofkSfOqmHz+MjbG15ar0gaC4B6HTZ57fWKQtHa7TbD6zGr2hCLtQGjh/95Udqts0UdT+J4/zhsKsLlCiQPIzXQJ2KcVx/LVYtIAaq+zkkVtcoHI4Huq9YGsrCqjWpmJGMTCE68puyXTtaZBqJxHBgYV+1BFOiTmK28AKWBHpHi6sM6ucxt9dVD0GieXWpcLjPcDvUbTEzG4R98esGdMVnvfmp4EjMx9VVfeeRdJdczMchPMqJeyUpRWd+9oknO860HnHYTXBqxMZ0WEJp6kSqMxa8rfz5Zot5/dBAujbW5861VaFBZxEQMaUndT9eTn163ohFWnURqboDwkrdWa4jgWVGxYD+ioWHlSGlkKXjPoUF5XW81zPalT85iUAAUicXIjJxjZS6ck6WzqZ5E7VOOZBDlCQLqRbzVaiKrouyUiSby1erjQsxIhMeRIGEvhLMKTiRTcmpa1aYfuoP0sqybQTbsQ1Mx9tO5lUQeo9PT2YLutmxRxyPjkKTsIapn4Ktf1onR9DFZ0HVuk0oriAnJ+AzC0wc1S55COCvqMX8Qo+G4vKTxXHiIqdErrj+4QiVGA+DFk9QQ6WJet301XGRBzicRnqR/1UXDDV9lb7Uljfk0mvb4fgpOHoaYyl1LvlDOfvwTp8cRF9WLJJ5raKhaf4iRAJJBv2xB1Gisc+CmyzYre+cIjL0ESWMxBh6jsRT2u6FeXU+cizA08VLGIpXI2Xc+3DcGj9bYaYuNbq4yFkkGxUEiTkVDiPmH5WitxlQ8hXvf/QbYbdkGOZ0WEZneQw+0PHVG2GWF7kEewWdTG9nMY0GCJylSlz7z/FykJj+tWUkU6K+X02cZFAyPakuG/YhPDSpHcolRifvWS9Zj18W9ypFzhGf6EAn0KXvZsPX0uMxYkn4a+hs8oUANltrs6D5lr3jkd+VKIk/bUp0tLh8zBK0HuOkuPj2CeGBCM0KzhVzd3oiPvP0aqpDNEQ39TnhiH6Iz3LqQKyi+1B4e1L9ENJEF0fLVkwPP0iN1WzUfGVGnRByeCKgGY5P8ktwvwGDp4DEdsclB2vqRIh+tZYh5kq3bbsOH3noF1nXlTmjlibZTg08oRXvuxRYEE+opUpeopaJxOcjUqt1DJjsiU7uVneKR1RqMxuSeRDXMZLLkimK1QyGBi255U1al1evGIuZZ4SzgGNmM6Ogx8tCz8nP54PEd77l+B268dJNqBtrw9BFM9f+KhJR7PXkMW0ezZenaA+jvOZ0mVavDny8W6keyxKGocoqEw/2juO2zP4JNZZQX57/j9GHVKOyMQJL0k9cLpy3JOd7oWHLxpg6VA67MqZbLGvBgMyvVh+7YtR1//Se7ciqHDCeE3PfwOxHy/5FEk9vnwOK6cJNN7sZeqkidpM/96tEkgpF0TsSWUn5c+I4XUN+8Rd4vOkVCMByD+hRbUr2Z796lun0XDq8nI8YjSM6OI+4/TdsQYvQzERinyDcrP8cN+3reiha01YK73nYVPvZOdUEzg/u+iuDEblVB85/jibJOzvWxRIJmzFQz1aosMuGp48qj4pDfMRpPQKtpsprS7qZiYcQmTpH3HEB8dlLuaZM7JooQSTXBlUJHnRNf+OAtuPOmS2DTGLQ0ceIxDB+8H2bBpRzJhqN0Vyv9rnrds2xwa4vdqqEvOhwY3a/sFIciavWVphjO76Hr3Hj0udlSRMdOkqD7lME9xRXf1QSfFlcIudvvqk3d+NHd78T1F29UH7BELw6MvIhTf7yXvhe2luoC6mq1ZKL0EsP5Qmzcr6fsn4/J5EYiNECPir+O8/oKPUuDm7WSoSlESNBiovRuVb3D14CFHE1JsDusuJjE/Hd3Xoevffydqq0cZwiM78Px3Z9CdPYURyflaDbcCdJE1mNeIZQJvhdVJw3Q5xUTgxCTxV/XSp3LguEWAtkzk1eWRPXBOWqwQM7cqCJFMj1v0ZSIUFLENJWkK5s9uPPGC/HZ99+EL3zgZrzlmm257dDnwZbj6O8/jNDEXtKHeo2Ji/8OzpvnrJwMrAKPCsyN1SaTFfHIEAWu/C0+asitH4/tfg1/8+3H6Srntn9aXF44m7qUPX0gkneOz4xAShY+ny1M4uBKFZ+hlypTdRTx+KLqEQuFrkaXHb0rW7FtXQe2b+xGe2MdPE4HFddkB5XXqcFz/IZe/RZVDP+RIh3d7BoRmpvwutstck6OSka2UCyNI31JhFXylPIKFBe94zmqN7QVvzxGPlFb3Q3yYpd6gVsvuFeNm+fywcU1RzsTlW9N9W5cu7kLl1Cx3dPRguaGOjhsVlkgesNCXjlfBNaCFyWKhYZwYvdn4B94hLTMlUJ1+dPXgkaPCdvWV76ZNpIgUZ9KydlS52Km72H7mx+Fp7m3eFH/ds9BfOybj1GFK1fUvNKUw0eRWgetICzoBEVorgxqwRVeHvvQ2eRB79ou3HH5Bly0cSW8HlfeCFedpJGI+BGa2gf/0FMYP/ZjJONTdKnyC6DebcKGVVa5R6/SlaZEKo3DfSnMBFVELUjYfO2P4Ft5dfGifm7/cdz11UfIlOf6F57GZW/srHgLiDzugTx0vgjNgrZYBdxw8QbcfuVmXEjFtlYzlzpkT1KLn1p28UjL5x+PTSLi70Nw/BmEpw4gNH0QyRhP8KBzzbPkBUdoTiiztssKj0sftzh3wBymSD09qybqFHpf/z0091xbvKhfOTKAd//jQ7CpRGoTL3vR1J0ZqVchMmMf+vMKWu6EIEtx319cjzfs3ACng4fL5odbT6Kzg5geegmzEweQivXRNragYY9lRYohQZE400mTyAwBSdNZyqVofsvCHtrtNGHLWorQ3GuoE0S60Q6dSsIfyBW1yZLEhqu/g7b1NxUv6lPDU7jl3n+DVSVSZ1ba6kLFlr6g8JIIjCIRnOadzLHz4CMJthvNHjxw95+iu6Uh84QqFImTEfKepzHZ/yTGjnwPkelXMk/J2nDTPzwptHI3cDlgzXMSmW0kaPlOr7DlOB+6dDhEFcXFFLV8e9e7HTDTxeTiaS5pioDc9VwZ0nKvIA+IV7sS8hG6Yru2r8G//+878wqaWwWm+p/G0Wf+Fi//9Gb07bmbovRxKoF8mc3C2afsNSdojsqc7mvrGuW8dCRomTJ8HlnUDrsVK+udcmvBXHiRR94qAd9MyeBkpqtbgys2r8Qn33M9mr3aiStD08dx7NlP4MjT/50qUz+g942SgD01J+Az8GXk5sr2Zgs29gjobLXotvmyHMiidpGoV7WoJ37MDEavTKTmVFqZdFrqpMlDf/xdb9CO0HR1p/qfwoFH34PRw99HKh6QozGZqszzNQgL2tdgxs6NNqoQCvA41fLX6ogyfDhZ1DxoqbXBrV0SqPmSckN/MzHNSU1USg86NB5P4cGP3oZ1nc3sQHJguzF2/CG8+ugtiIf6FDHnr0xVKxyFbVaTvIDQjo1WXLDOKlcKyz3VcDGYX1nFn8TZq7x5VRtCKhVFhnvutKYPlYtUZEaz+ztJtuR/3XYFdvauVI5kk6SI3L/3yzj05PthNntJ9PN3Msj3LW3c78GtgHrdbIJJbl9uqDPLSWG62izYsEqgyGzFph5eioJOoFJVoBKQqM6mVWXjfOiCTX1kYT7k1g9+sPfIAG6853tod+UKwOr2wtbQQdFu6SJdZPSEahMeN91tXtWCL3/kdrT7ci2TmIphcN+XMLj3i+SdyWbM027Lg2nqOcUsbXYK5jzARm3WiF7gS8BjJVjgPOtbjsZnPu78YU93RLlHsS+F2XCusi1U5dl648/hbd9ZfJMeP/AHwrjqw1+FTaWL1kzvLi8vt0QdMNzRwu3SatOXeGD53e++Du/YtZ2iarb4uDThXrXjz90NMak97oHFzLrlRTDbmyxUUc4IhIdCGiwt4Th3kyflxUXnYhEEXHj7H+Cs7yy+SY/xed1orXeptoCwDVjKZj1O0qKVG66rtQE71q7IETQTnR1C38tfRYqHK2oImsXM3cRckVq/kipSLop69F6GoCtDSkzLK+aqwbOurA6Pslc4WVf+0o2d8kAgNaREWHlUZki4orz8WO4H4dxwa7pasbI9OzccwxXDE89/CtHAYU0PzdaCB8Rzr5qcCoDvU0PMFYUL1GRK5SKkRRJ0aavAZf3GRVTx4jG8aiTDAeVReZHIcqTnrK99BkEw43WbuuFUWbR0+LWHMNX/kLwojhZrOgWsWiHIlS1DzPogRYLmXsW58Dhqh/dSmIXiE/1niXrr+m5Ek+qi5hnZSwL5YpOG4pJUS7qArMdcEtEpDO7/BxK0do/iptVWtDUvr04IvcNa5kX6VRwvHYuQl15NkVq7oq9Flqhb6h1Y2+SRvetcONVAvo6QxYLTF0hcJqlBHmtuWlquHA4f+g8kYyO0p15UrSAxc4eE4Zv1BVvdcEzroqTlcdSlkKUCp82GLWva5eGAc2GhL0205r+d+/f5PtvS1pBjPeLhCQSGH6VH6l3enBuOu4mroSNiuSFSJTEUoZJZ7dqk7XJTXilki5oEs2F1OxIqoua2W1FO7l1u6OZRETW3yrR6cv1yLHAS0VmedZz7zfCX1eQ1ZxK0GOgLuiTcmswzznJgP12/FnZ3q3KgOLJEzdPsN3U1o2FOku4zcF4NrbX6Fg8StJrJIjzO7OGvPK54dvIlxEPq1oMz1nOUNiStQ+iizAS1/HQMnrbXg9NzlEKOEta2+9DRrO6ruRInJUpPhr1Q5lbyuPcwOH6AvqDcz8rN6l6PSWPNPoNKw/KaDIiq1kMiW9K88nX0qLRwlCPqjhYvukjYarFSzo3Mi+YsYUdMPiTy+LEg51pWP/l2n6FoXUKXKxiSVGeQk8og2Lwl+2kmR9QelwOXre3QbPSWEjHa9JE4RhIjiAYO0WfNrSTKYzp4cI/a92ZQccan1QNjOp1EfdtlsFg9ypHiyVEuD0O9YutqSKoro9MfFZMZC6Lhe5eSVCKIZIzTveZGaq4c6jlb2rKFLhX3IE7NaLV6pNHYdSVFa+1JH/OhGo57V7fj0lWt8tw/NRJBv9xuXWkkXuxG5d7i+62Ok4cb6JJgmMd7qFsPq7Mddb6dJVcSGc0rf9dtVyGc0igipBQSs2PKXuWQV3AytFtVcMCZmOFsWcqBLCS4G1bC5dug7JeGpiR2bFyJm3f2aEZrzvXM8wcNDIqBu8UjmlUyE1xNF8Lu1k56WQiaouahnR98y1UQ6KeWfY4GJuW8dgYGhRKJSAjH1AMlO47GjmvJay+s1Spv4d27qg1v37UNcY0mPHNaRHxmVE4HZmAwH+xmx6YltZSNhASbsxW+7suV/dLJK2ruNr/96guwqq1BvTOGEJMxxKZHDGEb5MdEJTtFaP+sequHlJpBe+9HYbZk9xqXwrzVLDlaX7MNCZVmM4aPyvndSNjJ2QnMt4KUwTKFhHJqRFS3sukUrI4OdPS+TTmwMOYVtU2w4L03XIQ37Vgj53hW46ywSdTR8b6MuJd49rmBjiGBTPolTKukFmMkMYbuHR+BYFfPPVMs84qa4QxO933gFmxf3appQ2ToOSkVR3RmDJGRY/KM8GR4GqlIMDNOOpWcd1Obm2hQxZCg+ZKeOJ1StR3yDJf6tWjuuVk5snAKEjVT57Tjyx++HResWSGPt84jbXmYama9QvLb/mFEpwZI4CTykaPzblzxNKgdeHbgwGgKiYSWYiQS9K2wu3NnNJVKwaJmOprrcc+f34hrtq5GSGsK8Bz45lS5QQ2WASzjCb+IkUlJPQiSRXXW96Bl7ZthERZeQTxDUaLmcSEbuprxub+6GXe+/gIMhvIvUWGwjCFl8fgOth3qXeKESYKv+3rUN2/nncyxRaAoUTMsbM4R8un334wHP/o2mOw2ugtN+b32IsDvzrPJDfQNX6cEiXhgWMSBE1RP0mwvkGTL0b39w3J+j8VkQSq55cqt+MWn/wzveeNOrFnRJAue1/pTS4izUDjP36VbVil7VcAy8Vw8ioIDMQs5EJYwMkFiPp7EqeGUnCJNlXQSZosN66/+yoK7xNU4m3ZsIaTIX58cnsT+U2N44VA/Xjk6iEOjAQgkcrsy49XGZ1jChebpkrOJFN56RS/+nkoHj+uc95oe+gP2PvIW8mPZY2/5nmprsqC3R+CAUBGmAhL8Kovz1BT0PbO14GjM4o7F04hThTC/oDgFRgo9l/4fdG17n3JsfkrKpbcYsAXhJaEjsThGZyJ0xw5hdGIGpycD8M9GMB0sbnIB583raKrH1TvX48ZLNqLBk50BU6+i7qModZoilsZYsGUMCV4Kk+X4EFZd+D9hsRae0bRiol5q9ChqLoI5i2dMswlrucLd4ya0b3gXRelPFd3RUlKCSIPFgYvfeNIQ9Dk4OidgsdWje8dHSxJ0sRiiXmR4dEAZ6slVSTrNyY8SaOx4HTZe8xWs2rl4XeH5MERtsLikRbqxZyEm/HA3bML6q/8Vvdf9K5pXX7ugKVrFYIh6KSFPaTKxya+ljcd0xGEWRPBa4jZ3C1rXvQ/bbn0UO9/2S6zofTtszmb53JcKo6K4yIxNiTgyoDL8liKY07sBLWvfyjuZY1UPC9UBq8MHh6eDBN0Et3d1Sel358No/dChqNNSHI1db8O2m79Ge8ukZ2YRMVo/DJY1hqgNag7DfiwymvYjnYSn5UqsvvjjmQ9YQXjchathNWyuJuWI/jE8tQ5FzZgsVlisbh2I2iqPY+7e/tfwdV+pHNU3hqh1KuoMOpmuRt+R1dmKbbf+BO6GHuWgfjEqirqGxw7rYDNZkIxNYuzYz2i/tjBEvchwBuRqarBLRU8pj2oHQ9SLjM1qgpW26kCCJNXelDxD1IsML97f6jO+1kpifPuLDE/w4ZV119LmdprkyF3pbbmte2O0fpQLvTgQ+hynhlIYGldL+SWidd0t6N31DWVfvxitH3qABaSHjW5qzjZa4abxJcUQta4RSZSj520TynGDfFS/qGsuAtEJcbughcKr91Yy6D8Gep8FNjyFdPvfIWmqp+eL6MDJa4P4yWppqSmcqha1eRFTVekDFjR5X8+1wPpHgHVfBppuAjzbSOAXwdT9YVgv+A1VGD5CJ1/gmOW8N32a6iPln1611FS1qK3OJtVAw5MstBMS6hheFsJ7C7DyHsDdqxycg9UHrPggxM5PkSYDykFtOG8KL2yvDonaRu9XY1R3pLbYIdg8dG1yi2NOVVCxlo9SMdMH7vw4TPZ22sljC8wOmFveThH7Y/MKO0WqVl3UnjDR33PUrVf2aofqFrXZBUc9Fc0qZSznRJ7hDEnVYhm5Itj4F4CjsNRq8orEbe8BhFba0y6VorG0nDlJDZPZCqd3pbJXO1S5p7bB3bgaaZVIzRZkZErMk6BQf0i+25VHBWIhP1x3DWlafb0dlnI4kkkFpobZbCNRV1F+wgKpalFbBAfqW3fINmRutGJRcyrZqRkSfLVEa1eRQ0B5TXa7drLyJHnpUT9VPJX98+H0X27f5WQ/2pQjtUNVi5rzSHiad8Dm4syZuSGZK0mjfgmJlHqk0hvFr0xFd6vWmoN0ZcenJHnJZDV4GZOOzXcqe7VFVYuacfs2wN28hR6pX7zpWQmnx8iGKPu6JnJCeVAgaaoBxkeUnXOkSeuzIQknNddZScDhXQdfN1mXGqTqRc1prFpW30ERS1u2PO5hhDZd2xCTE5j4obJTIIkxIPQ8/a6gHMjc2rwK1qGTGk0e9AoTRKzc/rGiso5WE1Uvaqa5541o7Hyr7BPV4HEPvEzDKV6qQa8h2+QFZn5ANbtjyoECGKfXJ/vpQca2cITmkunkUApxDU2npSQ8rZejZc0NypHaoyZEzRXG9VffS5GnngSsFaEyEfvQqSSi3BqgxzNPRYHhz1AEnlIO5GHy17R9JXMzcAlE5zNMNovPL6LRhMf1DsHmROfWD8DmXPwM/nqhJkTNOOraseWG71FliytO6heVI7afiuZ9R5PyYpVy/VFXloRsROAJYOATQGyQNBjn0Ko8R9ANm074kR55gF7zfjpQTzI1IxRJY/+RBI4NpvImeueUus1rbkXzaorSS5jbbqmp6vHUc+Ea/cC+b2Bo/5cgiSQIDcWyuPma+rxmrGiyoN593hQsPXwbabJRdh7vcSUkx2aYbY2Z45FD5KH/SBblWYik3lDEhMlpCeO0JZLklfPolAXdwCl1d32lKpvxlk2KBDUS0RkMHfg2hvb9X9o7V4FSg8UtUGD38BSsRjO8HjOcdj2JO0JlaQNtVKHjjyVOI5VKYCogyGvKcIQuZMUCXibZt/JNWHflZ+Cq0h7EZS1qRiRvevq1H+DkC/8DZhZFAXCUEywmErgJXS0WeOvMmSZg/nYq9Q2dMYf094NhCRNyZ1ImKhe2ngxn8Y+gdf27sObSe2B3c5d6dbLsRX2G8ZO/wvFn7kIqwVZEo5NiDhy9ebNSkG/1WeDj6O1ke0LvYOb80vSllfEbY61mVrtKI0KReHxGlFs04onM59Jcxi0LPgkJJnMK7RvvRM8l5V+SotwYoj4DXdjA+F70v/xFzAz/jnZFEqVNeXJ+WESMjQTtcpjlKG4XaCOLwiK30WOe2Mo6k/2s4lzyct63zc2LvGRbMkU/qdbKYzS45SJMl4QjM6+UzZ8hn1fOhTP5J+Fq2Ii23veha/O7ypIveqkxRD2HWGgU/oFfYXD/A4gGDsJs4S+ouIafMwJngVnoV60kaHkjcVupEDCTdbFRdOdozjeBGlFuaqP/2TokSbBJErJIguafPE7j/CGixQk5Q1oKwupcgbZ1f0KW4w545J7W2sAQtQppitqx4Ah57X/D8GvfRFoMkmcu/IsqBNJzXngsCr+Gv/AzN8liwJ1OYjKOhq5bqDL4SdQ1bqTovLjnVmkMUc9DeOYU+l78KgIjPyG/HSFRUKVQDo2F+e7KQ6Fe9iU8c8VKIr4KPZd/EvUtW5Xnaw9D1AUSDQxi4tQvMTPyNML+w0hETsthNLOKlM4EzqtegbOpkr1xNsPhWY3Gzl3wrbyBbMYmecB/rcIBx24vfATjshY1w7YkGZtBZPokQlN/xOzYqyTypxAPjZBP5ldYSDAcJYrz4IuBvA5hOk4lCX0KqwfejutIyJehzrcFDu9aOD0dyitrG7PZDJut8Ar+shf1+fAMGjEZpS2I8PRx+Id2UwXzt4jNvgwxESUPbiKB11HkKE9UTEsx+gxsh7i0AFze7fC0XYO2tTfA1bAOgr1BTtpuytxtywZBEOStUAxRF0A8PEGR/BimBp6haP4y7R+i6D5LzyRJgCnZk2eUaJGtrhZyPVL27tylTRfJFCeBCvJNYrYIJOKdcDTsRMOKC2nbAbu79mallAJbj0ydpzBMiUQiLfIsVYOC4GgupaKIhcYQD44iFp5EIjpKIh+AGJ+AJEq0JSFJvIQxKZxULguX7IuJI47VBcHWBMG5CnZnC2xu9scdsDka5RaL4me/1DYWiwVWbjctApMkSel4nHvcDBYD9ujc+SGJmS5A/s9MlTie/S2LW66EGhRKsVGaMaUJjtTJpPY4ZAODSsARmiN1schVev7FYoy4gUG5YT2WImhGjtTKYxgR20APlBqhz5AlaoZ3U6mULHADg6XkjGMo1kPPJUfUZ+DDLGyqSMqPNV5mYFAyLF7euHOFBb1QMZ9BU9QGBtUJ8P8BcLb6lmAt3/gAAAAASUVORK5CYII=;imageBorder=default;" vertex="1" parent="1">
          <mxGeometry x="500" y="190" width="80.45" height="80" as="geometry" />
        </mxCell>
        <mxCell id="uJWLFALCa80SSZRDJl_V-18" style="edgeStyle=orthogonalEdgeStyle;rounded=0;orthogonalLoop=1;jettySize=auto;html=1;entryX=1;entryY=0.5;entryDx=0;entryDy=0;" edge="1" parent="1" source="uJWLFALCa80SSZRDJl_V-14" target="uJWLFALCa80SSZRDJl_V-16">
          <mxGeometry relative="1" as="geometry" />
        </mxCell>
        <mxCell id="uJWLFALCa80SSZRDJl_V-23" value="&lt;font style=&quot;font-size: 13px;&quot;&gt;NÃO&lt;/font&gt;" style="edgeLabel;html=1;align=center;verticalAlign=middle;resizable=0;points=[];" vertex="1" connectable="0" parent="uJWLFALCa80SSZRDJl_V-18">
          <mxGeometry x="-0.0425" y="-2" relative="1" as="geometry">
            <mxPoint as="offset" />
          </mxGeometry>
        </mxCell>
        <mxCell id="uJWLFALCa80SSZRDJl_V-14" value="Solicitaçã foi aprovada?" style="rhombus;whiteSpace=wrap;html=1;fillColor=#008a00;fontColor=#ffffff;strokeColor=#005700;" vertex="1" parent="1">
          <mxGeometry x="415.92" y="420" width="118.08" height="110" as="geometry" />
        </mxCell>
        <mxCell id="uJWLFALCa80SSZRDJl_V-22" style="edgeStyle=orthogonalEdgeStyle;rounded=0;orthogonalLoop=1;jettySize=auto;html=1;entryX=1;entryY=0.5;entryDx=0;entryDy=0;" edge="1" parent="1" source="uJWLFALCa80SSZRDJl_V-16" target="uJWLFALCa80SSZRDJl_V-19">
          <mxGeometry relative="1" as="geometry" />
        </mxCell>
        <mxCell id="uJWLFALCa80SSZRDJl_V-16" value="Transportadora&lt;br&gt;recebe email de notificação: Solictação reprovada" style="rounded=1;whiteSpace=wrap;html=1;fillColor=#008a00;fontColor=#ffffff;strokeColor=#005700;" vertex="1" parent="1">
          <mxGeometry x="200" y="435" width="120" height="80" as="geometry" />
        </mxCell>
        <mxCell id="uJWLFALCa80SSZRDJl_V-17" value="" style="shape=image;verticalLabelPosition=bottom;labelBackgroundColor=default;verticalAlign=top;aspect=fixed;imageAspect=0;image=data:image/png,iVBORw0KGgoAAAANSUhEUgAAALsAAAC0CAYAAADMxl2/AAAAAXNSR0IArs4c6QAAAARnQU1BAACxjwv8YQUAAAAJcEhZcwAADsMAAA7DAcdvqGQAAF8cSURBVHhe7b0JsG3ZWR72nT2e8Y5v7n49qLs1tKRuSQghhLACZghCxoBs48TIFEOqkkpCAnEldsU4pFyJnRSJk5LtclwpAwY5OA6YIIFNwhBASEIDAjS1uls96vXw5jucYY8n3/evvc8997373ju39c57p7vPf+5/99prT2v41r/+f42NMQlLWtKrgA4Eu7yKokBZlua+leUhJRfkiOwjA8qErgY54CFC0WjYdYVIvp5dKflfvrOTnliW8vmSx19j7Fdnh6OSmdtgXntk3/Pg+3xXQ7n90mkf2OXM89yAfruI8DYghmRvnDNQ8iE1BPbQIK3rohrsDcJWfChaIv0WkCG2cs9IyhcxHxPgRQZx4sD3GwjC9ksG/QTsAniWVcC6jVRLbckDBo4nBLxF2sO44U8ksrzow2PB/ywIh6CGXlB/aEnzI2LysILd5TlzWYBmQanzGmNlmMu0MGoR+Kr7D0cGdklz8cLQlSBkbOW1X6LXkafvWBE/XGkfV+9c0vzISWRzzk5Wk0vA6WmWFAq4q4jvDMIQQXBIIUeQjxdBok+oRrSIgFRVNu2lJGgwMRrmW10R2MeHBDtvn37vkm4+GUzLQ6K9IatNgteJNAd21eiqx52vMU9CAt4PZq86GsPh8LBlb74ke8Fi5Rsg8ymwK1qKsmeJIV+nrTfG1PAPEwvdu1ixfmVShddDkYG9Fr71C2Sr+VaPi+QTKPuZh3E7NkN2FlpAsDOi0tu8CCVjpaiLFB2BfVyktNDHLAgRk6QxuZ4x8oOhc/u8UWpfST7IlpFU8Mmmuy9pbqT8K66FQ/lX6e/xPgpphMw35XExHGClFaFhea189FD6zcm7lKWhnmWt4TMjw2bb/G9Eiwf2kvAtWYa9FvIK7DXQi9EQNMgxGKVIGHmvG+PcAPilD/8pnvzqRZw9exZJmlhTVckCo6ZTyn299SrylkCfO40bJfnghN7Z3sbm5hF4vofd3V2cPHEC7373N+Odb1rDazaZP0mOFsVZO+Dzno/dQYao063qcyCid0Mq0niEuLM2k3RfQLCPJL4ZwTYyRkBgF9CtKTIbIs15Le6iz4Lw6Scy/MNf/DV86byP7SxElhWUEAGtdVZ7VIfGEu0SGwdQxpfWTVtLmg8FkrzX0NlbzSbSNEVRNYyUvC+l7fiN93fwEz/4HXjb6QYkr9sZpZkAMPaR+3HVHuPw4Ct/CfYg7tFYlc/1afHAzsA7a7xNoDvtXDZ3pCjmQwp9SoJGE08xDf7uP/kNfPbMEJewhkEZ81lq8NRhPNZ9RcYnlRjSaQ6iJdBvDV0LXQK51FVJZDMyeSxy9MqzePPJEP/Df/F9eGAF6KUDeDkx0WxRdZWs521kQds6EykcvaCNKGrS5/q0eGCHFO+c0aBkZ5FWtWW9qWPKeEr2kqDeoQrza5/dwn/zTz+MC/EdLBSMuqxZJZ7A7bN4OGXPJeqVpBir8liwmL/SqFQeSO88iKiaGAnsYjVMZCmCMEG4ewYf+NY342//9bdgdTRAJKNV7wqFidAEoJ6W2doYJ7TLmojjG+vtCwt2aWw5y64CR9OE+hlL97CPUR4jW1nFj/53H8YfPFvicnya/ucZExaNILDuZVWJJfV+6XHXqt6ukQVLuqnk2s4OojRJKI1jXh8jGyUUQCWiFmtzCqywTPCG7jZ+9Wf+Co7yvmDcr8DeopHaNOmu/AspCj1oOEmEZrOj116XFhDs0tIL/lRuHdhNUyvVSqMKrIlLhY8f+p9+F7//5ABJsIluM4dXDq1jrCyYADR61AYrShO9bz+pQ2mpr8+fGkxo7zr9Hz5rYQkodf/LvsqpxvSLABHF9uuis/jHf+Ov4O3Hxhhdeh7NNeo01NnH1ZARZZ9HsLuRUj7B/jKU7AqM4dCGCdAo4Zn1k0lFEUqpvyXUz/7cf/v7eOQsqzAWgLrDYUmLSIeTKgXzvEm77U2t8/hH/9Vfx5s2aIcZsglrHk35sV5W5nhDWrtnX5DBeyO6drFbcFL1aB1KptXXRWTJi8cvjdwYmfqE7+HfnkCTy13f87sxvWzBvqQlHZaWYF/Sq4aWYF/Sq4aWYF/Sq4ZefmCnVa6hM+oplXky64i3JS3pZSnZZYEL4oexxJe0pKUas6RXDS3BvqRXDS3BvqRXDS3BvqRXDS0c2G1ii7GC5pZS0Mg4NEqUDTXDlDYAblwU8IoxfHr5vE8G67zZ/l/pqQDv43KKda5n5s1Mq0OxxpmU5OIAVjofzG7m0XxZOe4Tll4Z2dS7hkbs2QDA3HDAkNBTo6U00K9hAOYdM5HuXSxiBN1wFxc0OTXUq2Bki0bGEBPsvFSkGcFeEuxMnHHDAD9P1nAjNXNWrupnuCGrCZQZtY8L4or+LJlzZwK40WAoZ2SNJRdsDmSG/SCgiw+8/yazEtX3AnhZiFgYFwA04hVDYmBAFAgLwoaD+d7YqBvT4oH9AFKULBWM92gspNFPA8LmzvyWktRYbn7a+TG56WnMM8ubisf01DzJ+TML1yFYNWKICAHiq1j+hNlVHB3gNw/WsGAWLRYupuUku2swX42Bw9Digb2Oj1SAyumOdDmE7QGOfqUBzx3nyfqWA3nlNlY2TJ9P+7uwe+PxLWB953Ac8Bce8AvGYl69gn0xn5k3K30L1t5OnaoScUL7Tg5NCyzZmSOk6eg5twOTxjGXrJI1/pnyqgLZ/Ph635hIcwbMMf14JA5ZZnnHvFmhOMj/GszbbakR1TwHsZvptZ/tGmuEebMprI2cLPtB+U1SmCd0JeCnr12fFnDCdXUUfKiLSltzcGbkeS2gsTL0mnjnT/0BHjubIWYNkAd7C+jMjwQpO5DqQOpI1viF2m1UHxXeKzNnHuT019mJaSa0X4v2gesWU8i8DnO8udzCP/tbH8Ab1+jXGABRiYSS36OqQ8tDppuLMguGm6nU4vH6tJhqzBXkvPjfgONmJVFG8dRj6Xcs93yZ3+bRhaY66nziN+VfM5/JaQ/Onwlev5ydtZxWY8TgDq/mxgF+NevavNnPMPYo2b1Ksostx6XI2kn1X+SQ4PjGtMDT8pxkd+VW0Kb5R7DrOGgE+K4PPoovnhnZfMWg3UJ5jfVh5kNXJnAJrR9eFDmDzBAWBd7w4BsYJte8dxCNrydZD0UTRBxATC8V0quoQHfVw513RZbM1FBsUQZN8L9uMt4CpOywKqdgxxvTEb7r3ibe3KUnC2bpZVRtYoqTaG81N+r1TrIHL985qCLNLXVzUBUV+rJqNbAzgn36/7sffBxfeG5IsDcwYi5p4eq5k9Us/I4rjfpnRwG3BrvWrNFKZK9/w+sxZpVcaumqA6haKfwmUV2jXE0HgX3cyAj2McF+lGGlB1krW8itiup2ajFa27PF778x7eO77+4Y2D2B3fR4gV0GNG8UG9il6IYvT7Ar7UW2EYGBXROuGUTmQDnWXg5j7BJQ3/nBJ/D55wZoEmQpI33NNQVvFjEIrhqdTi65HdvCTFrZgGApqMO/gWDP/RxJcPXqBjedqg64q4l+B3qn6K7lOH3XCQurjE8t/6xV1FQz7YtiRfK6FSsyFF6IDj/2xtEW3nfPKh7uqCiPWECl1gjsgUl2C5BqzQnYX4ZLaUzAXikwTP4qcgI7DRMm+A7z9js++KSBPQoaSJhhRdVUOS9yy0Iot+uUJlnmO8mu5TtsGY8psI/DAmWzjtEc6TrLVRxEY0rJ7lpByX7MtbKQvYBiRC0ABvar09JirUvudG6UsCZq8vsO7Gt4CwV2ILCrgaLRJC78lwz2w6XSLaLpBDU8Ge2ltODjWBo85a0WR/LnzPrGlUxFt74myai1wuX2fa0bHlJKGvIP5IM7h14is7Ad6E8+8Nt2ZAIaM111lGzZ53d7WFlc0jgtPRZCek1jQRig1xWe+++4Hi0k2K8ixYe8P6JqjbEWZjOw5s+qWaiD27E+r5geBY/GlVv3SgnWwp7zZ9aBh2bKSB7VhNeQm3HSOBTizPyuxVe/5+ayyIbD2O8GxNp8hrsmxPKT8XaNPmEG0UPsHud/ZZgMxZLFnu5aAMyTx7Yi2JDugK4GQ7fFUKqqkqRSCPoWvo0sRY/VbqbiSqvKo34/T7YxJcZBxSE5qlhWhawJFUBJJOrBVBWcmyE/iC1GN4v1HebgFWzjWSwMV7OSjbGxo2xYCxNPtAdSzXYDuW5hvRWsQifQq7NQkYsIivE4tHO3HBZJkTaHWtxn32JIhXUCcB2tFquklDWPyUSvjloYVytGz5OL8cA4Ib5HDFSCy8gKFoCMJwokU4L5gtYoQyPRsKDABZFV87zZ9SYyKRjOklWuO/LbpjOTFTAF0sCu9iHVBLznAJ7UBDeFKYgOYKuJDvgpXKYAMhxi5jTPeKwBX3NdCBSvW8RuOINGZSoA9GP6quTJdlM4nQBmGspbDxQUPBbAGxNrLS0P6Vqy9YgArt41LRfZ9wJsU//c8iMMPB/NxhBNDObKETMvGkd0a1VHrfPYQdCQ8cHIpz6N0R5lO2V/2UYypj+Pkrhu5OEcmd90rHMejdUUWvkx3LzN3aMjM6DSMJe0IORFLCIhOaCq4o8TAi0hqFNErIZdeXJkPYjmmDNbmZXa4k7Vgm7jJFSAW5T0xLwKYtlmeJq8I9C9DKeBbY7M0Ez4qmsVyK/gJS0WebbTRblLprwshmSe5wkCHgMC37ctAQRAXvJaKP32XBnq3WB9Y3qjqQJjA3tKsPfpJ6BLq89C6u4Rw9zhGcOpHRzmz9kBLKWyAriOKqHV0dxLWhjykkAdHyG5R15DGq4TSGvUmVYo7dto5xF6tALb1J1GzNHBnDkfr7FUHbUmVK/0WdiOscaJ4Ml6JdKlI/M2tAcZVoZ9xJcus2YaI9Dux3NlViK1O6j9PGNWNgZwkcJWc/1/SYtBjQvDoW3sskW+TDD9yRd28NzzF8xI8Km7h+OcoKcq4XnYDbV4/HwzsFlIlSKoy1UaSUPyZdqk1N4J/FEyQr+RoH38NH75d57BpUYTfTWMqEXEQe4WEOM/sdjcN5Ph0CqkUpufqRWEKuHrXvcAtGNlTmGicqC76yEC0vVv7nCBw1GDKuraqofTp49Z07va4xoswDKc1QhSU10z1ccZ7cCviRJ+I6Skuzcf4P139PANzN+S6Zj6CUPpoaUqv6CuoXzn/RKKyoZma4ZtZi69OBx/4nng1//sLH7/6Ut4up+ZUTq2hlUpDANKV4nUForiJM+nUmMO5GPHVKcGAd6gQex5WwS7b4UvZoYIPJnvY9g4gVxbejM43SRHM3eq1vxIOS5mEluuKx0suZFltHHikOEtMWJt02DaHT16BJ3NLlJWSTL61emUSxUiuuI4uq1b579qwf6Pf+Px8a9++gk8thvhrLeJUUwVJuCDfIt09pi6fDSmLs8IF1CryHxjrME+Y6ktY3UMj5gxfdYsJc/VS5hVvWsuLIXmUhJYkdSYuUtKvV/M+E+DneG0gWCBpHxJELOeJDq6vTaaqy002rpOMFGaa6cJUa4xKOa6PfRqBbt/+b53/fRzRRPpykmqMm00oh4TI0LMTGzxRV0CrUN9ucUMC7wMUWO+TIuTMeggYFQCAiRkOELmQKAYqbIhyNT7pybKmOpCkwVAMBPtazG52cwcd+4qkfVj7uuncTEOBwQ91T2f+ryG+WbjjOlJvZ5S3fZkrQBvA67q1q3bQKqBms0GVlc7LIiWrKyNFDsd7RajOoSTkN6CIGvUgM+0Xme+PrgS406Gx+FbqCYelNtMd/UDKDhWEOkIQqL/BuQNGl1GMkD//ItYH++gO3weq6Pn0EueRzd9Ec30IsJshwaitmWkZGVVPFcebzM8Zxmf55kJL5IvIscllvhtGs8jGtEZDWjaECH1+XDAzBkyrhobOQXMebCkM0Nj41CuuCZ8WAcc79EGZoK+WmkGgyGGoxFVMc3+Zyjpl+esMQn+Jd168l5I1jEsu+h1VynNc0TZLvXfLYTFDjNvhIz1xIi5OWSRz1mcCpaqeXKDBSooBhWP4BesVigVNQZFwz9Lr01VhyoMax+azyjVbU9wMbBzZsk/cXUukVgdJcUVRukBctvoR6aXQpUkiennkuhSZyTVa3VmSbeWvFHnPgwaa0jyAGNKnojgjmhU+dSFxxRAKauHfhxjFDVR0iCcN4cEiVSmFiVlk+CPWYcFUmIa1MnGLeKpQ8itsGBoa2/WSjxKf75S2t58dlXmxD3FBnaBX8CnoSywS50Jpb5QkiejhPepqVKArwuM6Io36XCLqQ7JQXS9ay9H8gJK8UAtBpTeBcEm4zT1msi92KSmlgiSvixZdCuY9T2lt8/vN5F5EQ0TAsaTBk+w0CwNMaQev0uDlKoLgePGegiCGog1T9aQCg34ckMrbECVvk3h4Nn++gSxxztp6NnYdkr5ImWoswjjhHemKeKwRFu2v5ooWRPkmXT3EEFMQcLCQbuL77g1iBeQKUuM7ZxHG204xYzm5FrtfjmT51FVkc6ryLgEJ6QaBBiNQmUsbzGJpgE6e1JufiwSuGyAl4XDgU1gV7u/QB7Q8JNberSjOjfmzYbGyq2DEoUgt2PN7rJCptGSAdWtPM0w2NnCcHcL+aiPMdWzOFSHlIzVsenxDRm5NGxViG4V6Uv2tSo69fk+nrr2cifl3EJRhZVD8aKSjFIlcJaO0N/dxs7lS+jvbGPY1/CMHHGgGpN1k3R63mdC/ZWAqgWlxQM7M/uwvLAAkZpFgxs0ssd5Sgk/RNLfxmD7EoZbl1hbEvCU8AL8mPdpsVYbwrqkudDCgV3kxjTPxgb46rlFI21RPs6d1I6pskQKbJ5QldlFn4BPCXyPBYF4pzZUEOwaVMZ7ljQXWkiwv1JIhTCgzRFQPxGgI3KTyG+RGwT9zqULJuVllagDTes2LrJa9nKnJdjnSNLZjXVC9URDHgJKd4HexvkkQwx2d6izp06/V9s8j7ebqlbU6qRy3yqeIy0k2A9Kg2vxopM140kPt44nMlWVBlmNmJFav9IUWZLopoUAew10sfrJaqBP+8+b50ULB3aBQwO9rmL6a22Yg7huHls0ssZUDewQ10nN3LRmVh2rnNVKZ/LVIvs6Lmk+VOXA4pCyX8C+kjVA6CB/sU3EXUgSiKtOKEvqSqWRqw4yj7qm+zR3fgn2+dHigX0KxPsATdYkvStZ/aeLCnUBV51iroOuioSSXJJcIDeWW8NrNcysum9Jc6HFlOwHMTFwkD+14IWlWqLbUT3B1MfrgqkiKvckvhXgBfwlzYfmCnZVyxp6oMzWOBZ/XBh7xtVw2Upv1b15Q4vhhLzft4BpSmCzHKJT9NHLt7CSX8ZKsYVesW1+7WKIVjnicYRYht9YwJIkFbgo9TVFzvQFtYQUCEtNMeTbiS5r5puEYS8cCqvC4qSsS55p/fowJNg65n+B2HR3p7/rbQ7wgnr9VR3F08/efHa059rnnoqm+R4+2l8z6buTZtgqEC6E/D9lwLvrswewcfzv/OmMd9cf2fvYjWhY+hiOQ6x4BCRGBK5mmzSQE3BjG/fCd2l8SNDifTF2ixABRXWTd60FCY5GQ5yIRjgRJ1gJMxxZacILIhaIGFuZh/PbKS7uZvCSApeyCI8Vq9giqHM/Q4CBBZXFC3GeY43famu4bc63xx2M/ITf14whF32BO/NCZA29X+PNNRZH43BSFpLM7tP1w5ArHxoykCBopPAbQ3IKr5EbxBHGSGh9N3vraK1s0BDn+2dP3pdM2slvZSXAnXdtImNArHZklDWz0ZsSfwqKsGR44smMQPmaKI+AmN96cLSD953u4a22oUYO7bOU26ZnhIwSrw6cxnUx72ZasvpQYD9kFWszePiI5miqfZnwdlKdntJjL/dHiJottCMPXjbEnZtdvOZEF3esx7j/znU8cBI4xThoMqAiqIlMGr6uEZqKopbVGNAx3AW++gLwuae38IWz5/D4Vh/P9HPsFHxv3EWbKoQ/SNBibsZ+GwV1ooHA7hHskup8j2qTnCAXoFXDKL4Ce1iBXXccFuyS6MJOAwK6ZlSNGHe3qJ9qnUYYIaHlLbC3VzeYvBFZxWresCqwth7gjruOGMBzfY4o0hQ9JpUj+k3wVNGt0LByJnGT33kjwf7dBPtDWl2FeWAbinlaxbfCgm72lFJKzxnXZ58n2FvlgCrGDrb9VSRBh8EK4BcJQgZcq91m2jCqLPGGTR/vffgU3nN3hHuPDijFtwk9N7xYpVZcspYYqw2SgNPquAq0WIV8l6iPeexkO7jMOuQzWz4+/AzwyScv4onnziMb0YwtmSDxGtWfDHl/C+MO1SuFg2B3b6vVLn5L+jW/rmtSuwIWLd1h6w8ehviQoKudoQR2v5HYUXNAc03ZM8lOsHcJdkr2sVeDfc7EMKyvewT7cYbD7a+kUZeFGtY92Q6VKmXhd0eR7KZ5UxZSSvP4Jkn2u3t4i2ZpKv1ZG2WU7Br/aouwKkyLBHbKLcTUqUdpbirNuLWOMl6hKjFGmG/j3m6Cv/TO+/FtD8U4xhKtGmuV4AILCUWyAVtVgwCt6tbXqV6skk1VSBJSrdNnL6botWK04pQSKjaV6CJvOzsCfvtTz+BDH38Oz5THMWidRnN0CethjpHGoRgQZUc40LuiQ7BVgHMZLZdLosmqaDOSOoh8coOSSYB3w6lVH1HSh4GT7AJ7b8PUGEl2xXfGDHnJpMLW7o6oxgjsVPsI8kZANa5kwY60SoKLpwBl44/oVphuBdiHrLYjQuCN6Tb+wt0reGuX+c7aUFv25BRp+8DO8Iytppxtmxm/+57/6Kcr9w1IMT1cbDVeW2uWK0MFwrEfo8wSNIYX8c0PrOEnv/81+J7XBlhLM809slk+MSW/KbuZ5qSWhAiVn5CAp1C3tU2ZEBTI1O2pglivZIlOj9UbpVWZJtQ5S4QedfzBRazxXV//+pN44PV34sLFEc5d3kJIlWmkkYiS0tZC4qS4stOTpCfgteyfWr0FOxWHehOxw8LQUotx0Xu1yFIUUj+PaEPEIVLGb6xJKkwbP2wxXG37ssJSN0fOi1WoOx2P0r3LJGDAWFNa4TOFnffIppJAUXrzaFy5TR7MkVOCXWA+RtXx9esRTmqyi0ocU0bps6caVv8YSPkEwY1VzPnq7AbgjPpxj3oGjcL+Lt6wOsJffPgkPvBNq7iD4fNs2T0GgQWBGjJ1+x16Dvm05LZWrNFR+iSB4rVsY0CtOEDFmujnBQnoVoaUBUIKR6ugAp+TtfKvpvI1Oujz+BS9fvkTj+BDf7qFF6PTrHEIXou5kk+S3ennbmKIM1yVuNLfxUpSyj49MDvp/dbnrplJQxZULS8oI51SXktv0NiWgdpa2aSklYHqFqGat87eoGBYWc1w52ltM0OBIgnC0phTsnsqlVYbKWXI1VGkUM03ZMCItbkM1IeyXXzv/Wt4+4qCJhuHNZCpMa4wWN7xPqk3AvssW0PeVLBPMqk65Ax4Mtb65g10gxzHoxF+9Ftej/e9EThBcBkoA77TdPHY1JsBqyVQ8oWEljRkbT3uaU4npQ20XIKWVGA1TNSQWbWpOZFiJy2YWdEmn6Nkp5/GopRlgME4RJvf1rooL2zv4le/cAE/+ztfpppzCmW0hoGWvo5YhKSrJgO0fBYZLc9BMSYjWq0zqYGQQZWefYjsloTUKgPaMufC2WdZ8AfMpJT+qll4g/QyqnforCLqbTIZIlc23ONzI1s3Zs3D6btP2Ro2TClTUZSiFq6KpgEvuhVqTEJbLmJ6vZWq7I+98/X4pmNMd+af6ngHdrfNzB7YVQNTFbzl+6AqAGSBXjPpS0rrodfBeHgZR4uz+A+/9QF85+uA9VSSmyxQqjlAakI6ssVxmnGPkWpiZ0jwErpaRSAdN5EFLfSTEINcC1t3sUMNX4NjL7OKu7S7RRXBp20wwoAFR82QfV5PqH9q9V8Zlg0C9WR3jO97sIcffvsa2ttPw+ufx1qb1zRriImVMre1woHI/Xe57KTt4ZNKqq82FotCFkHVXnyPtqAJKNHVhGo2iS89PaRAEFOVUFjtOEc20FD1G7d5FHeYBi3CiO7Kz+dR5zq6e24NN1h3jykAZFJpxRGbvUXaP1H9pdHNlexS7HRUoPiXBF1COsYb8Tj+02+/H9/3pjXCl5KYhtl2KhBQR9vdwUqHsZKkT1Td0x12kVGX/DLt1M9dBj7+xFl85vEzSDJKwZ0BejR4HzpyBN/8+tfjrfcBXZb+lJJgvdu2DQ0Ey3K3j7VuE0U2wrbfsVWlpIQc164eoyF++sNfxW/+2YsYxhvoB2s0oFmbxC3aAn0EuVYho7wjWiXZE69tyRyZgTljcolU4Ck5tVfrmWe+wkAlrJIluimp+G7NsbUFIVs9GqlHeM7CKX1ZaT1HksK3vhrjrrvvZHrlzBENvWBQmHCKXf312yHZh0yOgCrfw8U2/uP3vBbfeIT56ecUQiMKLbc15EuV7HM1UJvZNk42LuD977wPf/mbNtGlHh3kWiI7s4ndKSV6RhVC67/Yvj6U7P1wFV+6VOBXPvFl/PPf+iw+8smv4HNnEpxLOricU+9vsACxtjg7KvCZZ87g3/7J0/j0i6wV1o4jpvTuxZRHxJAWIgqom3pq+ZAUJbhGxFk4pj+l6Ym7T+Ls+T6ee+G8tkBAEbJAUI2w7KYOK0NV0lxL7Ekd0/Nqdz9sfksA+ATRztYl916rIByg1fPALGBgm7TfWaBkG5hAmS/r1276VGVWoN05hBvJTZHucP/coW6NMaJD7nlyTlGutD/BvHzHPRs43aa/lnVRkVStx/RSEure+iHFZ5aFp+YK9qPZGbz3rhzf+20PgloGYgYoZCSQ7VCKqvU6wpBh3JYKzhvGSYGf/9Lz+F8/9TR+65EXcaFcp2Q9inRIQzNRtUttjom/S736fJzjuU6BZ5gYj15q45HHzsHffQF3H1tDR9KThlZoIoBg5zdjNVUStEpMLfhE7QWd9hoef+YFnBtR1sWrYJFh9an2cNUOTGCTvs5IFdnyHeaana4Ldr7bhhCErFEiqnsCu4lP3TQ/1lJ+Whpxda1nYHfhUVpVTKpzm0kwcetf7Z4XZ0wgDRU4UaYE+/oe2Cm41PGnZkbFQve6hwR1J9xuRHpubnTHehPf/67X4l5a1GoF7RPnA7lam9Q7htS8t3B8sA3aSra36T/9kwy/8DsXcObcEYybr8f5YRsXU5bpZkCdPaFOvQWPqkCXOt2RYhUnk+M4ndyBkwTp5X6O//NRH//1//UFfHbEQkRQX6RBauhSy0y6jR5VlFXmpZZVamcFHn5NjLe+/l6sdWKMhmrbVwGkvkj1wjUDTpL1ayeHoYosl65mk+r65pxZ37FWDEoZgsgM/smxdju2voyp87mz1TF1evBwE0mxn4nUuRJQCqhlYcwEUSO/05for255JmAajJBQjGnCwmZ+Ht/42hN4/X13oMdAr0qAxXwPFVh1S4Pqi6wQLygx4rV/8buX8H987HE8329ii8gfZSG6a8fIGxR8IdXaGCurLVa/VEMYlvGAqtA2C8DFBNuXd1iQSrzAF338+RL/8689ic9dYGlf2XAJpg8K9JTMY4JcLW3tuIEehcF3fsNpHPN3bYjCSPNBKdm0anDB+rug1HDSRPG0topD0jR4K7eAZpmo8z3ay1e55swmvZmGlRR3R3duv+qo+yZu+z//X0OtdxRmFiQmkbMTeMJ0m+jrrjIyUg+qGolnoZnB7hNgLVbxGhgFL6E6QNCos4TIiYbq4g2xG1zGllpWePYW/6v4C193j20Pg3IHfrllXfpNftHXJEwafdoEbOiv4feeB/7lHz2NQTZGGJWIggEjtINsdJnG5A4BOnJLUWRkVm+Fl9HgJDdZtXUJ4M0NjFsRuskZHlfwe8+W+FefvIzzDKptmyNdnGpK4beQsrBpWeQ+C0CTCfWmI7t434OrGD//RepdHcYitdGUhZ9qvzImY8Q0l7zXy6oUnplUxap1pQI7M8x17NCpf2pO1StZuMY0iJVpZioeJPFuJvMbDZ+Rsw4l1mBUp9TBZUeG1brW6mPttnydP/tqKCjUWmTJZa3SSpeGbC1a0BZ8FwXGRU2SrJFVQ81AeufMVI8ZcfqmY1EzVvtwgVDt4HlCQzHF1z/8OtxxJDQTTE2L+pS7uyJlbtTC0zvAL33k89ZkqAR3upcQ4L7k3AeQin4lddTzp8VCA+npAWVwUeCTX3oKH/38BV7tMl0s6Wz1LRMK/KewaoeMFr/ynm98Izoh35f1WUPxbnu1M+T0GXdOtg9/LTTLG/ihudPV31BqLwYph6qCzyC5kE6J8n1UYXHGsM8MdgFbe1NacxkhrOq9/kgYh0iSISI/piGYokvJ/+5veJgA0vgYkgw8rzkVJLkKJAz/Jx67gCde2MKIhVNDf5NUEvRwVFLqq9w1/MiWquhR7Xlhp8BHv3gGT/cZAhqANtGZhUJAl0ajiAeUZAUBf3wNeMuDr6NeP2ANJukqkLPapPR14+4V3r3QL2mORFvC2Q3SHBzEDeam1+hYsdHh8mVmsKtsaV8lrcGoHYdrsEuXz9XjSINQulSLYH/43mO46zgfyNQFr0BrjLhGMdYBJyL5prN94Le/eBbe2kmklOwFqynT5w9JWohIL9Y3ipEaEjNknSP47AsZPvWcxkKz5tEwY59VIWMsLUqLimojX1WN6tD8d77hHrRpNPNOe6ekuRp1NE7Ggd68lzRvEsg96uEC/BRZHT6NbTvqn7BUe16fZga7JHtOViuFOkKky+kjqkSG6S4CGo7FqMCal+Nb37rhFrXNqU+V2pqdQpOsJ4QZ08/yAo89t43PnR/jEo1RLVct/TGMrC44BNXaHsGupsVhH+nuFgbjFp4dNvF7j29hh2A2wSDQ8lBzOtJoRA8tVlb3nQTuXWshZsDV4aNtbhzInRLkUnpJ86Y9m2WvQcBUlWtIdgndKY/rkuXjLCR5pzZq6wihsSBDRiTJnpYjSmUGMPdwrOXhzadoD/KyJz14TGOW99VgV7D0rhGN0Ue+ehFfTbvYzgP4zY61octmOwzpfapvlCQ+bQBbHZcJlnotjNp34FPPjHCeZa4RsEBVA0/0TEj9vqkOrZQGNj3UMvO2e07a+vRqhfHUyWX30piz42wJuqSvkSo1ppbkgsOeTq5rPNRMmgvY9T41x8mh5qH6A5KqQcxzn7Agoh84voljMQNBFcbebjrwfhI0h40m/uTx59EfU5fXhmV8HzULG5h0WJIEVotGok96AQGv2kEjJkOc2SnxuScvEN1tN9grz5HxRq2f7lGt8VgIFK0eo/DQnasoaXuoBlNKm2S3xOe5Fe7ZEnVJL520U4nn+8gIBkFBQ4oE6LIkPjSkRFlQZUOWsxY2BM6WLzOD3ZU0GWvSZfkYwSA5LwNu7BXIaOj5iHFqtYUV3hPaGBCygFKR3c8jL+NcFuHcUC+LrBnO8MRI2vjqQ5JFl6+SimU2BY/q7VQ1kYwjfOWFbYwMrPq+SxqFoQaxrA81i27wlpBqTEZ/F1IRayzSrAm6pK+NNEsqittod9ZsATXKJxKFElVU4USLxbrMI3Rsh0LxbHlT5+gMxC9Ql5K08yugS4WRVNR8yozA9qk63LG+gq5uVZUja5NGoz5iEBb41aNDevx8hnMD1gq80Cg0XY3v8zXl7iWAXYVF4eBX1LWvo2ZIhWVikuGLT1/ALj8t6S9gy5jWoCeXSGoSTa3VaD3IEVOnKXSdN1ji8m2uIWxJt4La7S6SlLVvxrxh3qntYZSoxm8QXxSGFKJjqszq8c6JL94yM80Odkl1ZrtaJ7QchSS6dGVxLilKgARBB8dWuvB9VUEaTUdF2EaqUWLaSxQ0QQf4wvN9bKUNtMdDBDRkvSKzpsGXttZhLXdlREcGeM19bRfbCFmQnji7RSOYlykqrICyBnHjXviUmImn8G0Q8S0NTaCXwO3aejX6UaBX8V7S/MnDoJ+hoB037DMPJB+Z8OqVT8sMOdHfoEQPI/WTCOyz42VmsLusdvM1BXYn2VUA9EGCKKCuHHexYiMtMwuI9mjSpAzJ6gnY+Yze9LkzWyiCNuJiFxGN2HHmZiepGjssTWDIg1sKI0Sr7KM37lM9SbGTebioPevNHmC4hW+6rCuajjELa8g4rMYNNGMHdo0cqeW6QryU7LeGhsMUR4+eol0F/I8/83P49V//sqkyWhEioCojLT1N+vBDqbwUbtbzPBvNLtn5Ss1wcc1xAnoFeH2KuowCEUdtUDDy1szmNEof1zhBfURNeI4cbJ46t4uw1UWY7hKQOY3bkelj2mnupZGLsrW1NzQ9b4jOeISYYW7EPVwW2BUG6Xxyks1lhUvNixlaVGEigt028tIlsuKlo2K6pPlTq9XB+fOXKcE9fPXZF/GTP/E38aM/8l/ikUcexdnz56yX3HKGeaQaOpBq4x69Ic0Odu0TWfQw4mEUDQmmhDpxiYQfTMbaopGqQ7iFtt5I4HpaHYCk8YMClYbK2udYEHRlZ1hi5HVsbLoAKn2MpqrVFoelkkao3h00dtHKh2jmBXZZ2BLaEM1iBRFVsERgb6zKquFRYyocmE2Pp8SXehaVKe0HhqLooqRuWFJylNqOUo2nnlYFsCeWNEdqpBm6zCM/bqERrcFrnsK//diT+N4f+in8vQ/+On7/o2eQp6sUjLTPUuaHJvBb4/aN6RBgjwmCTQzDBnabu+jmCcFRYkCwDwkolknE3hmCfZvWxJAAYYkzSbpLGMEWkLCeUwGKhqNm411OQgzjYxiWTdYKHbR8VlWHFqCqW9R0KbBvYyXfYdhSXKJFv+OvIcrW0BjuoEhyK6+a5NzAqFJOSIyDen6lz2tNG2R8V9YDI8f7aZGMtXCJOjmkZi1p3hTkOWLiZsDjqNHGKN9AGt+HC9m9+Ge/8ij+s5/83/F3/84v4cuPEeRj1sQEkmrlWWh2sEvqGjzINNikrbuqXbpUw/RgA3NAuR1qWQi+vJLmhiWyk4v6JJ9lifQo5aUOyV+tJupUMq3ikKQmUSpXBG0TOSVy5qcEbpvv9pCy8I2zEpFH9UTBYTj1HbXBWHxYWNX8qOF1Daph2hBA6o5ad3SHHSte0vxpJy5xoc1aP9RE+hzdNEcrVe3LjOPxyXPb+Jf/z0fx7e//Mfwv/+gj2LnUospz4yl5okOAXRm+B1kZd/vAzrOMnlr1S4DX3EZdU6OjnphgRQWAbFPnGBkrMiwpGgSmNVTqntnDUN1a0ij5XT6eBtTBCyUAw+Nvw+d7e9R0lF6qZfLcYOwAXIVHbZHqhFIU3eKr9LYmVnUu1UV0SfOmMRO7aBQ2hDzzc2PNnSis0T1EFKxAk7786A78/X/wS/iBH/5pPP28cvXGNDOyHKwJKbXAmDR2y8TJ19rI6Z9Qgu5Kj2qoC7WCBu/ZKyIkk/Y+Tm2u2DotpjMHNCp5g1b9OizY9V618wvsXqFdsamkBHxn3jSwZvEAHRa+jS5BznulrXueGy+t/gIXTq1wE2KLWswokXrmDHEVBk1KsXE+kwgsaZ7UysboaTUs5mk/ynG5myFpU02JlQEBumUXR4OTGFxqYty8Fx995BL+4c9+2D18A5odWcp8AYUseKjFQ4sS2aApk5c0CmkYnt8VpChGNWNJULwSvHxO+Lr/1AZa4yHjlCLWeHjemuvCS5DshkM9qnewMOVUWazzSMWMdsBqy8dRquEqdAqplrPQVwRipzsxZvQ7R7V8tz9gIaSKZcVH0t+1JlktsKRbQKplA4Ra8JWZFWq5COvHIVO9uegluMDzcbNDjaKLNtbwZ3/0WPXs9WlmZEmq29huA7t0dt8AbxJV6givaUXdiwmrIUlCgta1TutoWHRkhQS4a7M1AXsUaNgwgcjbX1qnkoghsUFcbmEjmzvJcMlu6EZjU5sUDldUHRmA9VGqMFJ/zlOyD0ZaFYxGtEl2B3bH7pklzZeEKw02DEofTeFb1T2NVRvjHkq1STFqN7A72CGOPOZvhBP3vqF6+vp0CDHqJKUAL7dNSjaVhNCnsalWlO1+ij5oJLpWR+q/DuaCl2OdOx3+jXd3sRpIS2ZVdeEcpXtMDUf68yGCVJFJXka9bGj0JQsT1ZkSO0y5EcYD4MH7T9hCYip7Ba13qTKTMRb8phZG2uHpC9KqeN4KWScxngq+57m2XK1qtqT5k1Y2zr2YeahlDkMap9RgBtIvR3BdqlrklO6VMZJmH/1jPpK33V89fX06hGQXO6nuwK5BVwKu1lMpMBr0rTXjmbPb6Kvm4V0yXJ36U31ITZHVG463gRMsoe2AUjemZKdBG1F3NxAegvQ2p18T7J5WdPXo5vuYID7VkXBU4O0P3Web7npS/QJKfm2drkKrNTNYuPxmGzsUHM9RjdFsrEA9uhTle1MPxUu6FaSGipJqaMZ86GtxW7o7UQe9UkNAQnQ04lYL0xI73kN34b73fzOGq1q74sZ0CDHq1BinytRqjJPsIa03bUfux108+syLtg6M4KGr9hz/O7DzAknXjreA+473WF25oQLtZoQs1fS6wwNLhY2aOhNG6hTPSxZLIlvrwB9vxjh1jN+nv3b0kFKl+aq+FnMR8aDx6yMeH3lhTKmiUZCasa4CXRXvJdZvGRUUXB4lk99poQy1VqhkJGtXAr2xlaFJ9eaB+x7AA9/1rTj+7ofw9MYYoxkFZJXjs5FAbtnPAOzNNlfTI9DpNKlTxXjmxUvYZcGT9Da9gayPGPBNsjuwr4dUL+45jkY6gG2Cy5vSUZ/qgt1yKNIiSDKSZTBrqQ9JZlOz8iEevEM9qPwmC2lANUerDZj0VyhkKPCgBqQBg/r5Z1+0EY+ULywsLNC6pQa8blzS3EkNeUkjteEjTeZnXESU8B4uUaXpnzqJ09/3Peh+87twod2jSGqinbfhKaNmoJnB7rLbsaAsoBvg9R2COI7c0Np+WuJzjyTWyDENdvvQFNhDGpBvINiPbfSoxvjY3b7sZvxLvTgUqRHUGchaK1FjcDRtQ0MQIkrvr3/wTvRYi/iaZV0OCXgNX7B2ItPJFRiB/UtPDPH8tpu4oTFAUmOUhmptcqrMkm4JDQYI+juIlZ/Mst2QaufJ42i/8x246/3fj/PrR7ClFY/bR9EfeOh6a4ht2cIb08xgd1SDnS4C3RUBqVCpqSAaAuBFLfx/f/gJDGVU2FUnE92H3LlRNsBpqhdvffMbKIEzm0HU7bRfgs4urlQrln4bgizJzlJ/z9134eveQKXEBoHpxiFrDo1n9DHU+B1Z1fpj4D76yU+z2myzkCq8KhACumMLtT60pLnTMWoFp2X07eygH1KkvuU+bL73Pej9+Xfj4vETSDdOol+2acB2CfIjSAfMcy2GOwPNDHbTa6nrJg1+yJYWJnDIGvKbUopqSea1dEsiFH98bog/uBTjgpa609R9Pa9/1PHzLDEdG8UQm3z2+99IFcgbYPXYJqVqye8YXAlc6m2e1mgnODMam/kIIVWQJsGqgV1SfcaFhncSmp01W+O8HA7RizVs2MNdfon3PHAc96wCRwTUkoj3ZchoIeYU8e45IrjEFlPg03T+6VcL9KjvaBOxkddGVDT4HhUMFuIG7YlGqy6mM5NqDr1BRpedKBzSSXmwhJc+aMy6xmoSHqVG2Vofh2EqiQfw3sJHVzCfSWnkyVDPxcojpT1tKhVzG9bMPNKvdhubT+U3xbRuGK09thrc3KpD6TyAtYeT7fSh+Kr2pJ+Gd6eUKltM+x2/iWNv+Tqc+MZvQuvoKQqsHB7zN8t2MQ5pj/nMfxNqsgNnk0T82myk6jxlAPNGk4HSti4ErXZ/Y3R9AkzrineSXZue91zRxL/+szHO2oOSuk5SpoyE8qFId6nHsDQOzuHhdeAD730Hkq3nMGRBkBpjw3x5pLi31pNeu4kuDdgOjU21f+dZBi3trCbDlKL33G7K0h6g3VtD2k/QTIa4Hxfx/q8HrXggtqZQJidBrJlTaqbUuPVkNAJrQvzKH76A5wZtFjFmEMGeskCHLDAhjW5tX2PDhm0u02yJWpNl4JQaJONb2JbFwGSA9lty4eKBNoIb48P4M81mZz5xDdZSISYQrmClr8aCKzqezzyhW1PcZLRfydrxULuEGE/57buPoK3dwZS/huPaasoHsG1lw6ib/cSq1fcDqrEhUi/AztjHjoZurFFV6azQAOVd1IujnCoq8yPDgOlEQRswHtZ/opS+Mc0MdsskBW6aK39losYWa7K0oB23O/jUH38WjzxLYHtNFFrEiCV9RKtakVOn2Cg8gqR1DNoK5wNvC/F9DzARJRGo3rTKXYJtiEae2LtHjOgLl4c4T+G8zYI2CteQNTeQtzZQxGtoM0Eu76R4EUfQardwsnwBP/0X78O9DJsiqFpuHFBxp4TWcnaFtioLVzEk+B99EfjCY0/DC1s2yZd5MCHJG9kCCpeOhyWFPVSmq4QrQ1k47Z1ktXqqydSIB5cyvI3fcWrZrKy6Q3z1NXvxvgxzrO8HBJR+WkWhQTA1qoFD5pYfa1ZduxbbPTVP3bvPn0xJcSAHRKm+r+/pu2VWIqe9l4wSjCiEUqnFVG0FZMOXaoFrkLUpzECzg50f1VYvLEzMNMcGfl5TwPRF7bjWoEHRWV0hyD381se+gLNDjXd3+32WYZOleUxJy3szgjls4EWq9nrPj7z37fiB1/m4I9hxEWMEGXdcpqTeSZiZtAU0wExSQaoNkh34yZbNSGJZohHawdHsBZxInsLf/uFvx5vuZRhYWOoY8hMkBwEpVheSGBfp+Zt/+Chy6upacyalxFOhdWQKEh+nNNFkFAOUe8uspE875nOMt018oTTWxmdiczNNG/qumOfqk9YSVIdnrXK/n1W0D/LXrLFIg6roEuhsU5+S0KNU8MeUvOIp98TvOqx7rmStveOK1NU/VxCAnHk7on3X3+5j++I2bb0hUtmAtOM0C8nNXJOQmBHR16GZ12dXl7kkk7gGuct8ZiDBqVFp2hlPoN+lRb2+eQTnn/0KTm92cfedq64q5+UWgQPNO6W0TP0WLlPqyk5c5/Gd631cyGI8sdvEpZ2+gbsRU8NmQUlo/Vr1RwAH1N171Nl6XkarfYjLSQQ1RH1d8BX8xPc8jHfdT6BTgnna2oPvdg2kLrQCu/Ye22W1/NEv9vGbn3oUF4s2tkttZ+MjVJVsANeITElIRdY9rTgflpRWqhm2L5wjmDOGX920GsrAA4Gu9Sc1yTxgXEumbUkVTSucjSXVDsPafe8Afxn/B/nFLNQdCoiMunAyohRNCyTDFAVrNwGwSHObA5DXxxsx77uSM75TK68ddG04oPROqJKQda6ebQG7rkCFF0l0sdLf/Oy/o9qtfLmjG+MHH9aciuvTzNvMGNhVGo0YKPu+jtTZKc2TlDo8AVRIXaEhsbq+hnLnMh48uYr//H2vxTee0DiH83xGVXqMbExJSh0m53vUbtNmgnWLp/DV8H78q0eB3/jdz+Mrz11CHtPwbFIX1zPUnbXdpMBbal8mGlfah+k0Nbxvee0G/oPvvFMmMdShpnKnfVi1SNO4oaKg0TLgN/iP9McD4L//uY/hkRdG2ImOoLFyAlvDzBZJ4pdsSxkzpEl1b7Eb5XkI4uOS3Np47KuPP0LQMzw0ttUXoI4tWwueshzNHuLVTdYuEatuFobqu7OTMsMBYj8xa00yXk0x9eM77rwDKcGfqDWMQiqj0W/LmVSvUoFUjHW8ksyruu/Ky/W5AGsG9wHUlCFVgdndUQGbD+t5Z9o6ql2uHDgNvb4uQfKOEyv4jQ/caefXo5klOzUwgl0BoySqw18dZVRqS0ElnJY3WCHQz1+4hKC7gafOjazKfut9PayNtw0Ampg3oGoTUaQ3hiMbCNbWDKbkPN2buOdkA9/yjmM4vXEnwnQHTaoqK36C/OIZbDT6aA3Pkp/Ha48E+I6H7sbfeO8dNEZXsEJBTlvWwtP0+F21wFC0qkJXt5OSJ+C/IQ34D/76Y/jM01tIozWaOk1ep3SNYhrEql5dJ9U+aa6MOyzYJaaYHhqQtnPhLDGsnfIYT43NZjiEQxs/5FONCGxSIgMvI0zqk1ptZmXp+1f7C6RurrDLqmlusiZZ6VGQsGZRMJWzkqy1Lk0N3P2XPm7qiHzcT1/TQD876rxyi92bdCTL38DMn7n1HN/EYzNuMZ61pUKq0sPeO3lucoms/7WP8xMpj+7sRvhrD69WPtemmSW7xnUHVCf0Ofs4HW7SBH+V287pthfyWFDv055gG1GBv/q2o/iJt5Y40gmsQPRpYGqrlzC7RPQz82XEsYZw04jkblHa0CqnOL64TbDs9rG1pTXeM7SDAke7AY6vdZhrRLgGwzfaGFCvV/giSCpfpks7KjX5PX4zazCDW3h+F/jVjz2JD/3xs7bNfObFSMhuKxkmPYEpSRzyaIZpJUME9Hq7mVnJdHSBjdL6q49+gYWetR/BruEVpsIws3MCCVEX0co6048atb5LsB+KNF7EYn41mbS8ihrotldx9NhRDGgMFoyhFzKvKOGnlzOxwjJ9JFtaiKvX2pH3O92a8eJRLqWaXaveVw/R0MA6qb1qSTqY9DH3DrFo8q0qBPX7Rcqjd57s4SM/eNrOr0dVsZqR+C37RH2cJIGYkRIz86y0KhNZZXepV8v4+5VPfxU/89kQf5JQkvo99Ao3bpwXWaL5fNRB36fepVeNdwj6LXh5H6u0iO/aCPDau1fx9ofuwkMP3YcHHnwtNu98Da3S4xTVLNEB9RZ+rk0R1aI0t7mkOdUOcko9VFvatNsEOgX9L3z8DD70J+cJ9HXb31SAUwuIZk1JT1e/gYq0maa8JhbQJSsPSy6t+F/Ms7ppUVmlL6gVRW5ds0LBoxtavPfYTKzn9KlZ2Z7RcU961lSfX33vFFfnosnRPPk+gVuNFXYU01tJR1Y2W38Cf26g3cF8WLo6FgfTzDmoIDAoDIxz75HF0v0E9IpV9WkUY8DAqwNoGG3in3+J6sPvnsczeUhJEjGfmdmUajJCt4YFdvUqgt6FSiCgvkFJ6Ok+OkdU06naWzdCynt2GJBtAnpEqV2qRSiVNOeRakFmk3UDCv4m4s46zrGG+OBHPouPPHIBz3qbLFhdk9SKi/oKnDR36otIw5e1Fr2bpCKdfeak2iPG3eAtST3NihuPAqncDvjyd6A9HClDqky5gu1dB/jv0b6TCU2HQe6aRdPnNS5tFxHz4L+qVU6NFWqbb/g8t9GlvE9gthS59m+edIgcVKa5jJtWV3QUKeL1RAcNzLE9lsZN7Ppr6I6H6GQXMUhL/MajI/wnv/AVfOx8gC2ak2NWb5oS1+y0TBvZymiwYZOAXWfoenxpyHeW1nu6HiSg4oFOmVPHz9Cje8WjotJiNa71XpiirEvQJ9CHjQ4TXbvBxfjtJwv88D/5JH7x6S4eY6WBcsBwC2rMDP4X0DVhQ8MMJN0trgZ7vVPr0FC9IPgPSy59lFZKHAHcpaHLdPcV/dfRSTSxSIl6E9gy5yB2X3Xf28/uVxVIC5cV18n5Pta1CfNpJpF2ErfeUaqkHlnA1yg/XVNlr/irN8Zh6Wp24TocWa0yA80MdkVG7f/iOrOqdKuIkZz+8YFAPaAE5MDr4HIWot2gcUap+9ilAn/z5z+F/+33z+LTLwDnqNtrQsoxvo+2BgpKfXV1T+o/SgtbxFKWlFoqpO8xIGO13TMFc/qXStCo6e7je/oM4GfPefh7v/EUfupDf4THByvY0epHbdYcLRYsSyGpD6W1ujg1xunoIqkuTo1x0v2lSHalkyYLKxMVJoHd0o7u+qgw2DVLUUtVHhTXWdle/BK4etRI+Vl9X2F1LhdOO3NuO7pDffcU87/ukWSXbl6xSXZTa5hfvO6KznXAPgnTzadD7INKUkDIewGqHfKsXXu/sBwiLvq4HJ1AFq6gl1/AOHHt58/lPTz6/GU8/tQZ7PYpteMGTvjqUFJzpCz2vbcbyNVqoQLgxzabSIP7E7Ia8rQbtgHTo2k6GuMrT17Er33safzSpy7i159fwZm0w3tDrGqeVxja5JKQzxrIqRRJfjtjVFm2p76Yri49VD8GRurOocgyjyoK1bD+BY3F4YfJmqCupgcpLSqs1lkWt4hdgdel4eyke/mcHfezvccK9dUcRRE6nY41NwpkAqiERt16Iqrvrk5dvk+5neCr/A3QBDfZQK60s7LoCoHgoRgfLCj3SHVt/f2aLAo6TvnbO0jKs9O9GP/eQzexnf1qqmJwILlAWTc2MzWxAVhMYBqPZq0zIdRuLSnujbaR757HerOB1xxfxXc+eBLvuv8YTp0MNKbMpogWxAjxbWPeBTexPq2vSMN+mvwFqut/+qcJHvvyYzh/cQsjqi9abWxLa8mop5LPagdttfBoYJZ28LfJKHxbPdVQJB8NlrKj+bjvKFFrqX84Yu2RJ3j+y5/ny9UcmiASABgmpUEmpEQ9NFfWWcCoLjFsB7egXI8MVZV7j9xrDngXvdqdHo4cO4ZhojxhSALWrhltFiV0Tcor6eMKLsOcqlAIzGS1rshtINeH+GfpZYXFBUfnFbQPQXuQrsrJHvHdqhn0RrUgKTeEsXef7OLDf+0uu+V69DWAfRZSjPcFd0IKct0EVWiwDG9rxk0cGTyH1f4L6K22cO99d+G++06j22sS8NSrmSFRGJugv3BhhKeePINnnzuHzw9iXGpQNZGUUukQ8X3KEA0uum3EuBMOaOQjPPflLxjYtWlxRNVG7esqUA7s3T2wE1xXSrYbk+4/+JmDCo4yvN1dMbBrHIryQGmrLvp6qIbdJ7A7h01ITz0HdrEGf6lgWE1wwDdqukb2X5NqMOoxgV090Eb2Hgd21SgGdvmxpnz3qS4+8u8vMtiZgDbEgAmmKlWkhM8aK4xEG3mRMGIpfcmSyNT/9UyD6oXvxZTSTWZMTMGiXDiHkIaqjZuh5FYWKQNNKt1OWlCwizR4bgJ2Sg+lXVq1swvsdbbZMA+SgJUJ7AK3gC7Qy13xtehWgP3PEey/NgPYlRe3jSaJpAiRdR5Rz1/x+jjWKrAZpuiOd9HMttEp+1jzE2wEKdZ57KGPOL2Ixu6L1L01EIAZRKA4WeQ6MUxKLelAqoFkoHJelnKqF2tAlTQux2o2pP6o1hXXMeTS1YHcHrv9NGNAbisaTCozhW2EG1UQSWUtMR1oEsjgAqJsFyt+gbWwxEpQoOflaFEyhvQPsx20xn30Ai01LXWFWjgjrQ1/pXtaLcHjkg4mwUOZL9CL7CCA01XoSNa4ljENp7E1H6rtPDDVpQb7XjF5edBtF31KtDrxJJm17sxWuIGd+Agu83ixsc7zo+g3T+D8eJV+mxi0T2LUO8njCd63aeuMSGORcecMPDW6RLdXX19wMphWQDcSuHmQ2mFSXUywm3RXywDzSPlkujoT2CS7e/K2k/J7FrqtYDeVgwFVsuknsGuOqKc1IKmzawxJU1Jb4ocGqmYqhbx/nI14WXusjnhPYZNDpKNbZlDyKCO0HUmmHftexSQQ1EJE6aMt982WoUDQGBXdoGtqJizkz3NJbvV+WmeQmsMk2XXfNKD04upYO28nzRqE2wZ2k+iVGiPVQyy/uJGiTT29rS1iqKuHVGnifBetYoAgkZvqC/V3XW8VO4jyLQQsIEp0m/NozYiuJUYDj17dVMOAYoWgVu0nL3XwqHdT7eCFNTv6BnYBPYwjBBGZtaJrhqya++x5FprquEe3H+0sipXr+rRwaFCHUuJFjn03IjHxmuRWxXT7YvlHSD115b/aQX0wqeBLmkuIyKaRWhcGGk6srrSx7XAoA7SkUNCoxyCm2sfa0fA7heFar19UmrV2WTiUKF0nXep2rnIrVieP2JVjd5+7d0k3ployq7k3y3MzQjOlM6W65uQ0IoJdg/NklNoD9tgE9+JFpVnDtnBg96HRh9TFx9TZay7pp3HgNU9fI9cjFZe0nyTRa509z52qyBNTYwRuGZ92FMDlR+DXgkQkcNS80GCfUbQvHNjV0VKPI3fDazXqsHLvY/m5ezVAdkkHkcDO2rDSsdVxpE11V9fWETQjgjuwebrW8sLrpptPoE6iUxVnzS938jTVTmzLINjIHZVuAcix3JPxmYcmKR2C4p4yssciqSX6Br/NM03CZvbsAXkf8OWuzvmMsQHdGVG3ghwUpn/ym+YrYsi/yV2GmP33uXArxvzxgklQ3VA/s4+vTTUYq09MyKl56m3kkVI8bDXR21jF5vGj8AlybZ6rOacCu9RBGZ/im0bTgZkjuTS7MXnRsMRm0EOcahHJFhO8o4lvNPzI6rbXmPNxG40ysh63eqrZLKyx4bZTkSZGUFcUmOWno03xK7U6u7ZejFjggF6WMAy5uY3tHYTzVSx/Mu+pewHnTTZm26NZ52XVkec2jptwNrAIwHXhdQtiSP8NYvrEDazfcQKNOGJalkikUvAhn0Z2HLYRB00tZsF08qAOywYjtcc6ZwD4HTWnMtqUUAGNTIJVhZ1IDvhcxPdp+SftJqLBd5LSeZmbXt45uoFj992N9btPYdxr4ZJWTuaHNA1PK4NpxKMMU7nrAnJT2CXdXImfYcrNJoi9lDbJc6MtDNseLhOYiRYxb2QEU8IsGzC/dvi2LSbOcCojZ2ON9ci0HosX2DDcVCMOyRkzSVvBZGRN2dNR52qJUfBVUveYGX4g793Dj82d7TtGSt5pmlyoaO8hDV4bDPs0CFOsba7iNfffi807TsELqZoRiCP6pyzcyiunL/PHwrD3jj2yTCXIrQOObhtbQ2ZSWNOhJrybccl31fp31Olg9cgmWisdk+TSzbWag0lye+srg/by5vrk9cMEF4IhXhwT0MfUtDckpIdoleqO30LUuEDRcQ5lsO3UCOnQM7KWvkitGTHEyJc7NHdKtzYLzildNJrOltZjIRgEmvjsW2YuGuv/9LTDev6m46oATlQ2qWO5SWY/FPAkaamU0b2xuYZ77rsHq5vrlPgEOKVsUqS8WiBjradZPAcS00jLyQnsAnjduqJfwoIzYMERC8xxp42No0dw5Pgx9NZW0GyyxmbeuUVjWf9YVfEKIpdBN6TGa/7Wb40vhBHBGCPwm+hmPtpJiZZVaRmyYIRhRAlEqVKMu3rEPTkDqUrVymFKYKvk6xJIsLhq30HFbXLg7tnTwxeMGFQXwivFiM7rNJm6RnFjozb9FO2IaoeGH4/6rO9KNEP+z0tsbe/ixXOXUGhtj84qjUbt3aoP1e9x6eOI6USBYEBnutZgl3/BwiKpjihCi9K8t9pDt7di6skw1ehR3lu9RgarVBatlbn37sWhfTHnyQQzFlTXwaWaqR71qGUVv+v0Kv7FD9xht12PvLXiIprZRaxrfoXWNeHLpW9qyWctYppaRw71eLonEm1WltozpkpjwHaB1zv4WRdQfkXbQ0qfl9/Qb1WSXRJysVgRUNjdOioqoGQLtcWGbOa044ZsFdoeNCp8lvasGCGjBKdyTbWtwCAdop8OsH5sE/drpYT770G82kFByV8wd5VWB7F6OR0zq5l+6hxSjyc6Lfjrq1g9eRRrJ44i7nYwLDPsjAY2E8mWkZNU10v0z4D+CiIrCDemxt//vcfG//qzj+LJPk1J/wiKpEnDr8PMpISlaE4C6paB9vUHNvpav696cgaSapJIF/U0eY7AtmYByTaqMHyn1lBpsYB5NFSHfhsX4y5W8svo5tvuBQtFUh80GZxkSmLNTBgaqnvnJLtOv4ByKNTyc9rNm/HnfVovk8gzVULT//yojfbKJko/wpkXz2P7RU1dVEKJlIt7OakFjRxQWdAEdBvsRuN+o4NGM6KxG7F2Zg1McOda6o6SSyuoSexYWzTPBXobGkAD19Wsi0VVClrIZpXs7717FR/6yzeW7I3Hh8PxJ5/J8YePPI9PPPoizm9Re2xoO3ZnMNma4TY4i7VkIePoEAnEAtMYs5YIaOhSH9UU0PFYa7UEGEXaH2eEXj7ktQ62g1U81TqCTnGJrCUAFowkSgV2i75yoGYCx7Su6nyqIGiPp8KnsS+QWyuS2yFEnGvnBqqOXtRB1F5BSB7Tlsl3Euxe3ML58+eRDgZ8DT8oFUWv1MdVrlhQwlYLve4KOt0u0hbrEVYxk7xx1bOdWY5V3vJz44fo8NSIUF9YHLJokhSyK8GuAqvoC+gGdru7wHcb2G+8/F1jZ2c4HjEPL1KYPH4R+OzjI7ywNSIgVVXzY5QC0jfVxJZW6sisFFBiB3lAKb7LRKfuyhwpWWuohWaXBaCDPo4UQ+qgK/jSpQZ++dkdNP0EXdYmi0dEk/obapoCtRsvtXdec6kRmQS8qTlqdmXGGNh5LaOUzrVybrOL9uomVY81prnSi+nGvBj0+3j++Rewde4c85MeUQxo+iILRIsgX99YN8NT7eJ9qk0yTEU1fBUcA0zFNZmb19zCT9NXFoOUciILN0/2g10p6YCusT1O4TsE2IcXthhnNy1O+ZmEUj/cR0P+i5S+ZPOwTCXPSK4U8p0sTHq0JQzzPdqZ7gI9enSvaIHSsoXffzzHj//fH2fG8aKa0RaOXCvMHjHwBnBekeS1BFKM90hgF7uJ3e7oZJPupNpYUKBQdettHEfUWUPCS1L1tMKuSEs5X7x8CZcuXKR7iDBqYm1jA512lyqNG+MisZ3zdo11maZpsIumjwqp+gT2fBeHXIpWYefJLGB/391r+MUZ1BgPTb5FCjklEMYZYuqEPZ6uUKK3rINHK+ESkLYiLg/KqxmZ+YyQr40p1WLtvpunZJehHd7SavAcTj9vNz3KeV6ICCpKqkVjT2veaLHUCWujBPqJkTnWUGPGoWbrXFM6KNOoYMqorY13j6qcR1XCtpYnq4Wk5D0p032omVYEctBp4uipEzh1z904dvedOHb6FFWeFkZFZgZooR4o6u5Cgn1jig0slrKO6LXv+EqiiZp2A/K2KJW2qVfuxtQVm7uUElpC7hLBqqP2SKL+HNGqbyYYsgIYHIJzsgSI9H7tl2Q7GTBvtOiXIN4nQAwNpB1m9nZ7HUWzSSARYAvHmnlPQ1PcENOwNhbIxbxHIGc86xYcqSt7a9rXXNUQdIdBjIjSukHQC+h6QhuYaS0nRD6BXxjo404Lx+84ie7aqg3eSig8GiELSxjaMF1BWHVBzdeS2QJ6za8cmj02TBe3TFBmLcAhM4a6YdEmawngTWT+EVzS2ohYQcQ7W7xzVpbM0Re0KJ2WMwJBYrmg3CAVtnKAqzX6WYodhiChEacri8cCs6R4Jc0nAK+5AjjBKpCLJ1L2Cqmun5b8ENjjuMX8ooGZ6RkantrWPiTQNaGF9bjc6trP1Dwbelg7soH1I5v08zDMR9YRZVJc35lm+VVcE70n/EqimSX7WNUhgSkKwYSmkWStDjLGKDSYB8xKl91qn6kzchbWEhhCvEwhZiPPWZAIdEkfNet7akaTAWvd5iM9AXV2ODgs3s8CP+EaStNusg4TktRlGliLFl3MFfVCqy+h8COaSmStg8NaTatxufgT5GQNAQg1xtwGazE17b00egluP2ig22uTO4ibakLkjwi3wVzVsf45qs4m/otMdRgZyjouFm53ZZLOZCFl7/zG1BgMh/viPnmseq/7iCNl697ZjSnjvSpKAjbK0IwogwYLQUIJGOSsftV2TJ31I88m+MCvPo4OJWYv39UTB9Ds3749dGWiS4jILqGYkHFFHlNlUdPr5vFTPHduHW3hVBYG13LjVLtZaXdnwJqhtPHqNpeUPxVOmxxNrntb3ZQ6vbtBGUThc1V4bz9pnTSrmvin0Dnec1k7L1nDKrTS27hI8L33ruPn/9IpXr8+WTvCNE+oOtGhlmWOpu++EdfwnHKbc4yQmauBTWrvlWedIZLsqk0OYm0ottg83s8syNoPSgshqQ3do8oSNimNW10D/6RFRH/MYCWN1YiHYqDb1fCALqV808asCxxqhVbPqfWgshBoISRrX7erLj8WlVysrqb9/tNxuNYT+6kxvEKy30zKmOBOsjNgpaSYK13ScdVpZbap7bTh4d+cyfBDH34CbSq57TH1+wPItmR/GZFWMSvKFAFVFnXrhwSjHzZZviOMUo09kkRnnAR8SnWB3+n9SphZiQkqo5fvUKeLtrccjYbo9/v8PlWoKs1qiOse/TzrDZbPYpEku9QWCXcLr7H7b/XVRLKrn4L/Kdm/7zVr+Ln3z9CDOk+wC9ICu23+UhDsTPca7JJ2DWaMxrUjDvHbZ4Ef+zdnsNptoqNhxleQAmnjO15mRGwx8E5eK/LKMIFaW+2YW2C3THTXKH7JhwO7dtwLrAlTH6OQSXMkSWJbdk4vFOUyWkB6qWA/7P2Hp5cC9u9/zTp+9v0zqDHVcW5kyeNS2R1rNx0TJ29SU7NaIrQcdcpgXcnaE6PkTS8ntrH6iKDt7tU2lZaMCwu31BsDeSWNTQBY5hr8q0SZndxiUFT/spwAVytRA51OGz2qNk3WJrGWxwi1Dqblhunue5kxKy8umUCZgW4N2EVML7nrc9s1TT2FJtF4mf+UCdJqkmvwiALv5cQJ1YvRWJseOzawl2pGVHJIZ9/LJaVC3dp1WLJ0tUJDyaec55/SU0OCBfYoihFKl5+ogYf/xmLTbPGZK9iVCfaBKiySXvvIMsVJ+NTaNgUEVWPSYQ9iQuFlxKaPC2B2ZMHWTKOKdV1UG+ZujRcZkeZ9KFJTpQxQpaeGLujVMlCV4GFIwLdi2+a+3aKUj0KzfdJ0RPVHjcosdnxArGek52sWVTmWouCKY339thLTRemk2VkaJqGwSVi6ocuzJdrcwT5JIobnoORSoNWGrOAaSMzvlcHT5NKC/xlHk7776Mq7D0tXfnmKpf+SfQoSqTIR7aO4GaFNNSei+qOQFGMZ0g747n467XkCafpdC0F7YVE6qgA41NyY5gp20STd6uM1wjV9Sc+8IlgZUWWG2MbKVG753xyq31On4DSrpnAsAKuDSvq7tslc6fUI+JZ1XCmskur1fbUk3/OnlFfNsaB0tfA4mG4N2K9BliW8Yfqo++vVCV7urAmGtpIC2W1ORiZo3OjHuhCI9p8dnmpwX8l7ZBKQoFA7fG2wxjHVm1bL9HpN+nBSkkCnmmNgr0BEuBsvKs2aanNXY4yuTvsJTV8S4JniBIMA/0pgTdhwQK/Hs2uorxtHsx/evH1fWtwMElbF0ufrFXxrklvXIurw7QrwTRqyblI3gS6u7hWpICwsTQf0OjR3yX5YUrgPBs7LkVVw3XzUejx7LfX31Jj6+DWQLP+DuCIBPadRpzFIWZYiL9T27tQWU12IgmYzRm+la1v+SKKbUDcQLb4ao664WWjukt0+oCUG1IchsnBJwjnpJmkeMh0FDi2voYFSptK8EpgxVIuMJmo4drLcxsgQTYKjk+9fI+lj1yHJaKeSWIoT/C7d1YFT8KfFnrxACzpRtWlF5BAhDVk/JIx8vZ4hnAxddiGuQ7/HV1Idpivvuz7rKRshymMdYoXUzfOVMlX/eMZ/CtGsNH/JzgBlDE9Wf4luJbIlHKWbBbZgeSCPaEClvgPFK4HdCEct/qShEirIrjDX128K0GualLA9VuUhVnt7oK31tVy157bjEcAlhARm6lcsgJT+ZUbA+2j12mh2YkQEvQqAH6pPRPmWsRbQiEy1osqIJehsSLZicVBM5OdAOitbwSQsHYvqd/O6RtHyKKjb3Yyj7SNb3Xkjmj/Yl/SyIunm+43Z2FpvZMjWkHL3CG6EGQuvoysBP+2eL9WG9I1oCfYl7SMDshmve2AX0LWKweraKkIatNrsbZSOWBPQFpn0yoquBPytobqD7ka0BPuS9lEt2aUaCMjarkeg184dzXbTOqPUG6shCCwRpvq4hkn9BPX6dwthvwT7kr42ImAr4IvdToSltc93KeVXVnpUb9z4+T2VuYZ3DfVbBveZaAn2JR1I0yDX7Cdrp7emSunzMNBLyq+srFgNIFm+9xPMl2CfUKk1T0jqxEBaQkuEK23cGixLWgRygCfABXa5+XPNlfRTcyTzzAs8bBxZx9rGmo25kZTXXZo3q44pm0BCH9kAGoCm5fisNriJNCtkbhvYFXnXmmonk6pw4rekBSOCe9JZVTOpAn0Q+mhR0nd6bTNiNaJSO5dXN1l+i1RL5JWgu1mkxtxZ6LaB3cgwvgfuWZuQlnQbiFnjIM6f2td1bkf5EEismiXZW9TjZcgGGkrsaxEo164vfd9WEzZVaDZwzkpSomah2yvZa4lubh0rXtKC0jSo9tym2xPAYuWpBppJl19dXbFmS7XomM6vNSt5r020v1nE91Enrk6uT7dXspNqae5wvkT6QhOzxyT7vp/zk3pi+6vyKCmvCSMaQmzTAqMIUbWctnpz6zy/WRSawXdjun1gV4TrSOswcd7chFjSzSEHapLlFV2TI41PosiY+VkDXx1PWsdGDQ5N7dLX61HFaVvLjQaj3Uza3NDqdTemOYNdYzA0OcCz+ZXuaxoE5jFBmCg8atGMHdZqa03gXf0ncGL3HFqUBF7oYcirwzBBEqVodPikn9ia5xrXUTDRtPXNKAihBYZUSJa/+f1sncqSOTdhnYuZy2SN9auG2RD/1MsJdi0loosaVxNEkvYhOt2Wja5Ui43j6Z8K1A75Eh0sTWPt3thFSAxFnlaiGCAfvYhOK+GHUmxntAXC03jtMU04vzHNFewa1qPR24K6Wcy2RIaaohpIUpZ8uqRtaaHTjS7wbd0Ux8oBzl7exohSodPtmX4n8Pd3t/iU3qjUnU4cR5N1FJc8N95bnPUKpuBqkCeTViq2PG9oLqvmjFK0EfRRzPykAduxpfu03CIxMi6MlaNaGFabN6iOsAVgS4KDhUvrZQbeGD0WmHy4g2ywgzAvcGotxr0bFQhuQHNdN4ZRNVaJcs1DzkBhTJAS7OOgBW1jyHKKHaL+iWd38Hc/cxZf7t6HYGeAlaTE8Yj3JJTw6QBlk1UgRUguMcLE0EGSpVB77lL7WVBSXk1njiQ2Cw9rY61UprVt0iSz9W001sYvV5mvIdWd81ZjNIomtYAm8T5G0MoQBxEuvnAOp9ePIsjP4TvfdR9+/B0tnKJtcCOaO9glvVW17YFdR5GkPq10RnrAEFzczhA2Q/yDzyX4f8+FyLZ2ERceWgisU0P7eCbjFAVTQBvu2swfvksTImyHvZts9CzpZhAzVtliCKvzR0fmfcE89TUryjfdfjRMMBxRcc17KAn2EOeJjoz5SwHXWEHusRag7s8bcaLZQHzuMbztVIkfed+b8PBGBytx7F5/HbolYJdk13zMPbCTWe1pZaScpXyYUnujW6XiE0PgQ58BvvTUMyhbXSRhTMkdI9OL+FjA54OymurG96kQEfK8uKSXBzmwaxiCLdlX5Z310FKonWM1388baBUJ83jIe0ZI/A4Sr0dliLruzgWcjHfwcPQEfvQ9r8Gfv6eDdriBONb2FtenWwZ2gVKyfAJ2LcsWRuYc5QRw3EbK427g4QX6/erHz+DjT59Bf+0oLuYsFLRQSx5DSvuAOovp7hQZMlYzVnFU65b0ciHp+ZqVxvyWhBepWVIrm+X5FgpKb3/YRUlVNy+GGBLmCXM8LSNshlu4q30ZP/5db8C7j63gBNWgoN2DJqbciG4h2FmS7awCvFgRpQ6WE/gyZ7QfPys3a2k5z1D91ueexu984SlcKNrYKdsYh6t8TuuRSzHS+xT0kjp8QTXGJdqSFpn2VBmb9EHQj8nT1PO30CwTFP0eRn3W+sMMSTGg6jpCs13g7a/bxF/99tfiOPX7I6MUa0Ebcc8ZujeiW2agmnVdw9+k+/RnecckrH1yytu0+8cKRlvAF8/08eiFIS5FHfRZ+jV9TxSw2gvViWFAFy9pccmpL3sktwP8HlEXTy+j66fwqL4OdptI+m20qY5vrAF33UmpfrSFdXVQqaleLZAtH2F3tqbHuYLdyd06mnuSeO9K5dQddZy1WZnmNbLK0i56ttQ102RI1q57imNdW0i+K5piTdhe0suIrpNfanHUevyUYwaTmNiIxBKSmocqnVU7w/CeeGU2qS5q5Hk+nl7W+GaTaw13rr0gye+g2NJPI+XUPEmVJrPFQBtmxKo0xES1QO6AXrW5mzpEn2Xb4+KRZYnymY5Jdru8rC7uUX2dGNbk/ITyTkNoVIlri1KkFUarvWAR+giaoQ0ZnpUaYxIBf9OHXTpSKFU8nUx35CKp8yuiS2KBEHBJfcZBG4qNeJf6RyPK8xa5TdYKW669XiVdkl7WwNVvW9Ii0JU5Lbfy+Eo/d64lvm1LNGZtJKDbvoojmncBs3vDZJpWRIhZEJrBjdvWp8nALofaOm++hBfQHdjFTpFxwLePklwU98jG+pMKlXA+q5/28ZMkN/PVHq7ex+pL7euu721Ji0d1Trv8clS7r/RzpOEjArvWMmix1m6MBzZiMlVfit9lXgNd2m2tQ0j0miZgF8kpCS/g3xwS0PUuRUbtMa5rqU6CmvaiCuwK7SzRq5LntLYxZPQ1FSVkUdbOEgF1eNZvqofqZNT2qlYIlrT4dIN86jObtVtLrxzCl92WajNdqjUacNZtoBPEhME0YmYl4P8HEgiF6/BBWqkAAAAASUVORK5CYII=;strokeWidth=2;imageBorder=default;" vertex="1" parent="1">
          <mxGeometry x="261.45" y="360" width="77.92" height="75" as="geometry" />
        </mxCell>
        <mxCell id="uJWLFALCa80SSZRDJl_V-19" value="Solicitação fica a disposição para a Gtransp Aprovar." style="rounded=1;whiteSpace=wrap;html=1;fillColor=#008a00;fontColor=#ffffff;strokeColor=#005700;" vertex="1" parent="1">
          <mxGeometry x="30" y="435" width="120" height="80" as="geometry" />
        </mxCell>
        <mxCell id="uJWLFALCa80SSZRDJl_V-21" value="" style="shape=image;verticalLabelPosition=bottom;labelBackgroundColor=default;verticalAlign=top;aspect=fixed;imageAspect=0;image=data:image/png,iVBORw0KGgoAAAANSUhEUgAAAMIAAACxCAYAAACWV2JeAAAAAXNSR0IArs4c6QAAAARnQU1BAACxjwv8YQUAAAAJcEhZcwAADsMAAA7DAcdvqGQAAHLXSURBVHhe7b1Xd2TXlSb4xXVhASTSI30mk+loJZIiJcp7X13q6lZVT8/qWWvWmrf5Bf0yf2MeZs3DzHSvXjXTpqpUpVKVWl6UWKSkoksmmY7pLZAAwl4TMd+3T1wgEggkgWQaAKkd2Lj+3HP22fa4W8iyrEeAQNuF2O12h54fxPzZwe0f4Y9wL6FQKCza3gk9zxt6fvDZQSikaWqcO8jYOfMvtR2GeRo5DO7/Ef4IdwuDDLuQkRdizvxLbXMcTCMHE4ScmYcxfo75se/7CMPQtoMJrReQ+La6gO9xJ8sQcVMo8GwvQ5Z00At4IfDR4fkEBWTcdpHCQ4wKfJQRADGf6nGrx4oFtEmmmPf5RKUnTJheu5CiyPtDplPgO+3lXf5LeHcxQs8voMk3xHxDj/eR+rwTKPGo2E0RMH982PLQ4hV3PWAemMWU/xKiXqYXr0MQT9KjQZIkth1k/Bzz48FtjoK5LRNhevOCkDO9Es6PcwEoFouW2HoG48V8Sxr0spRCQfYiZqSDoEvaaY8qBAXPJ00kEB3yWw9Rl8c9cmfXQy/NUCiGyEgyMasoZ8jESVUkhcx4lFXGc0xUKJAw9Omc9bp8lu8h/fN8WRpdPcu6YmK6npqIsKJ5NuJ/z0moEwKX1LoG8Win05kTiBxzhZ0fDwpCjoJCHMcmCDnDLxQC7ZdKJbMCjwyQ22JqmS4tgW/lLvCUcS98YdZnWGldMZxuoebNyJzkf2NaQcY0ij4tg5hUHCzQo/a4TvB+MTppToliRVGIxLU61GUxstKXZtdWSfUZW8IV+xQBmhLlTlZFYuB+Ekn3hrnXPSIg69But00AViIMBUrRbYKQM38uDI+cEBC6JGZKphafg4xcKDg3xydDhjxJjwaYIk42KABVYCv3xahjRPolTTJpyhMRObAkJlcYJuEpkItpPYyZxZ09cXgPsWjOE54X0Pr4CCQATeJsm0g3qcXEY2JAaavwBeOsD76rU3SyqHQqFCQTHiHfIbdNyFvsdY8S5MKQC8GgUOSCMCgQggIfMEFYaAWEcoWiSE7mowQ9NFqzKJer1NYeiUp/nAGDXI3uLHDxnas49drbuHX6CtpXbsFrkk4jFWx9+iAOvHQM257ZgoxMGssyeGlfEMjZc4JAzAXBVL1cLtJf9/VYYRm1VztD4/ItNC7cQHazgZCCECXU+2T2cLSC4t4tiPZsRLKZcYGqh48yFJF/4A7oLimGiZl2mXaCosyjRwvo6ZirtFAQBq1DLgiGrVarNygA2jKAthurVWq7RwzkAjW6LYQedSn9nKL8dirl6dNNvPPrt3Dm9+9j5oMbGMkilBIStZmiF/poj0bwt5aw5/nH8MQXn8LYfmpuX0xJnU33x9wc+TYSBvGlPCCaFjk04l1T7R3uxAVcffcsEgpAeqOFoJEhjBkjdGgzKAi9YoB0vARvYtSEobZjDNEIn53jddYh3SXmypJUMC6H61GERqNh/BwEwZwQ5AKR45wgNJtNE4TcCuQ4MjJiNz5qIA9nFm0yEJlNjTdU2tkHCX73o9/ixCvvoHOthSj2eT1iMEyXkgExKY0k8NAJ6MrUenji00fxqe99Hpgg41MeUgpWLySnUrACz9qIjFHl55PYJkyRV+KLUzRPXcbV98/Db9PTpxUI+Iyskd4leYmzhO+iHG2oINxaxabHdqD0GCWB3hJvN+FT6J51O3wXK389Nxt9CIivZ2dn56xCjsMEwZNbNIh6OL/5UQXqEHPr0SIyDHj7x6/hzM/eQvlaivF6gJF2hKBDGnXJ1IEaM6l1Ux9jaRkjMx4u/fJdnPzhPwHX+bwMApm87UVoU1haBXK1jAD9eLkuPbpCUUghmI7ROn4B7VPXUZnOUGn2UOqwkiSIXQoO66RLgQPjCLVMlRo0Medn0TrDl1ziS/jHqqNRYR0y3Yhxjd/mw2qBekRBPCxeFk8v5PMcc5gTBN2co2KDRxWkVEti7DqtAel06h/exnu/eBOFy9SwU11U4hARmV7NndZyQ388JfqkoQLpWhIhudjAG3//OqZ+cxKYobKmxhH3q52/y/2Ewa2d4f0luV506OMPJnHtvQtIbtRRYoARJrQeeoHew2c6epcvgaBw8JzXolvFYL1JN23q+Hl0r7HeKAihpIzbAuMNxRwDPtMjCeLlQd5eKAA5kGqk1wJhkBQ9qqA2/mgaqJA5z/7iFH77w18hvRVTKCK6KGQqBtDiXTWtkloUBvrkDHrTpIWu3BYGaZXiCOKZLn7996/iyisXgEkKCN2sMFXDJjW8YgOanKoiWgpc8+QkphgYB1mAuE2nSe8gA6t/QKEFq6/vFsVIuom9V/VVUF9FI0XryjQmKQy9qymKfI8Etce4AhEVGuOKRxlyi7BQCPL9HBe5RnbyEXaLFCTI1Z989SL+6a9/ju6kmi+BdpsX6MKkpE1K8mSehIBMK9+F2zDsoZN20KTPn9IN6jKYvnluGr/561dw45+uo0DLUFEjURLTAMS0IJSmWR6emcWNk5fQmGyaC5T5FAa5TXwHjYIJg34KuGkM+B4G6MRuv4dbPlx3uoXWWVqGtz4ALjO/tDRq8k09CoRZo0cXxMvDeFw4CENjhEcaVHwy56/+84+QXGugQKFIqF39coXuCZmdbnoc0B2Sr0/NTrEgg2bwCtQ6ClhLHm5Sczep+zMKw42TV/G7H/wK9VcvW99A2WwCX9Imw56NMfn+JbQnW7QoPbQYeKdRiBaZvM3b5HbJ8hRYL0FG14dvK1HDyePpMCjuMACXq9WjFQmnO6ifuoJbb50FbrYtBmlQBpjLRx4GrUGOgsH9oRZhXUGPrKDmyz7kpZPTkZhujk3rSosqMFaA+/P/8A+4+f51JDd5rakWtR7iXoqEzJf4XQoBmV4+FEGxQo8BaZPWIChF1NbUxEwvolvSacUYi0Zw6ncn8NZPfgdcIPMz0B6LR9G92ELj1CXENykdzdRah4p+0YZsiHnF4HO5Zvr2upR5SZQfoirX9xis+xTEwOKNkMF18+I0BeImCjeBMQ1yIsgQWVpKQ7QgTTQwQz91/KW8ypp31+dJtW5gGI8LB6EwPT3dS9PU+g7UI6fttm3b+pfXOrCwZFALGMlkxgdEOX4JVX0d0xQFD1WMYmSa/vRx4L3/73W8+svf8IncpeB2jmb5uf6J/qG0toRDwUOB/r1HVECry62kiepYCX7Fw9FnD+Ppr3/OmlRnT5xG/erUXIVY5bgdO14ISmv4FXdNb/PpMtEnYmgQYXznDmD/OHqHgFuRvRIltSAlNHG0YN2IVofnrEdbloaWys/4vAZS0epZousErl69an0JGiGhrVCxg9CaTuk+mUUQLNyuG1C8o2ENLJYxDP+lYlzuhxSBWlpGdYY1fxX4w49fwWu/e1138f4clUgOOhg4kR/20dI3VKirk13z6d3gvS7+8Pof8MaP/jvjgktoTjFAyGnd38oFWgqWvjL3erNMWZKh3WiheY0m4ew0CoxvSiys9eux8DEzqPhDORS/0wYRnXIwsyPPbZ3BMB7PMQcr/8Ib1g+w1jWkQb25cy5SRldBrgAd+ixELa7Bm/Zx4r//Du+8+Tbj4tj4fyVgzM+kC2TEgmKs/nskCBKIcqmI+uwsIgqFBuJdvnjJRrQapUXzBdu7gR7f2eWz8ofjOMH0rVuYungBrZOTKGtIFJNN6OJ16bKlQYQ26UGHykaqagiGFZn/6KG5Aq0jGOTrpfh7kUVYb2ADnSUIYrMCmdxiAvr55PawQV14DZj86Smc/PmbmKIWnU3q5uqsBHQ7CWlbew+Zsic/nHFFxsC5PjuDkVoZRw8fxrat29Aloyaxmkkd89tWj/WPVwx8SELQoxDI4tmwcFqgdquNS79/F51TLCT9oFDnyfwM7/mIzz3SRe6Q9Vc40U24IzFej3AnXl/nFsGBlUhmn76xgkR6hhhl5RfJHNO/uYxf/ZdfonWlTveB95CJ+7p6RSAhkGtTsOfNPNj7Cp7bHj70GDaNb2DI0kHkB2g1qKZzetuf/t0l/aXB+ZgJA1FjkiQQcsd6021ce/s04jM3zE2SZVAcExUUNcg5Egs4M6BkclxPMMjXg9t8X2CCsJ5B494EFtCSQfUrqdhN4Mavb+A3f/Vb9CapDes9FHsMpPpMtRIw5uEzThDE0hI4vY26lwr3iSePYGJiG8rFIoohHRG6UOWShmY40BP9v7uGglwtxQi0Ct2uxhp1kaUpah5doZsN3DhxHt1LdYQdoJrxXsUMyrnFUE4Q9D9wZx8ZyIXhNtdoUELWDSTk+enEhg2ligvI7IU63YM3pvH2D1/FJXVmtejCeOog6GKMjNNvGV0Eoo8m0ixEnQ/JTDaTTXM8JXTWA5zixU9/Ajv37rQg1HqF+/eLaXOwgV981loviHJxVopMVLxsaZk5IOgNcZJS8AroXJ3B5NvngHMdeLSEGo6hKQ4KnlOhhIeulLOKSxBgDcMgf+fbQZASuA2G3bSmgZVdLWoETsQgkn5yUgFO1/Hqf/k5pt69hG6bHEEh8Kitw0KIgBqTjkX/4eWBKKY5BWLyAk2KhkL4oYdjzxxFbXyEapaaWk2WzIzucc8sTWdduRtcDHLSKGSMgAvNDM3zk6i/cx64RKKwnLKWyo1a0DSrTpOCjEjrDD6Mp3V9kSCsK1D5VdMqJet+lE5Rci7Ga//5VwwizyK91bS5yHE3Rpto7f/qfboz3YYAH6Ds+IGPdtKhMAATe3dg7+P7UCgWkHrUtowVNE+g70P1n7v/kFgnXA9BQksz1cHU+7SA71IYrmQ850gjEklgzI97RGF9C4IUO70hqbyyfKPLwB/+2+t462fHEWYRwmKEYtGjNm8h6bSQ9TRkIaSGcFpiIS4tIXyRBCrT2CNg1/49OHj0IDJfvdcJt7QEGpxHnyuf+P+gRMGXcDMm8CidQUCr2E5x48J1TJ28gO6VFBHdpAqVRI8uVE8CWqIUi26PGKxvQSBoKmOiyTO3gDf+6vd4/8fvoJaNYna6Y73BHpk0IsMW5aP7DBX9qM+ow35LQ0qXp0VrsH33BI4+dQyjG0fRoZVJC4o/aBH4Lhuxasj0HwCz6RXVqMyysUwm5D69wAhJO8Hk+eu4deICcJ2lomWIGMR06L41mdcHJaSrCda1IKhCtSZQ0ktx/Cd/wLs//j2iyQJ6HVY6ub3ppdTiTQa6GUoUBIoLmcENgV4JSEQU5O7euweHDh9GsVLETLMOP6J29fm+OQHgnQ9ICAxIAJ9uUZmCoBigRWGN6b4VPFq9ZoLGuetovUc36ab8QVpGxkptll10eNRgbQmCWjRYsfqp6oTOv9XMrC5Smnd3QC1MV0ZjaUozHpq/mcJbP/wDsukEYRCi3pxFtVZhlbPy6TpkmYdUva7WAqPQMUexRK4fydDGwRqf4vM1aiDVsDUNWktQ21SkO7QXG7bU0GrX6ZdrqDXvllvC9H2iR1OgFhyFCpas3K2hmF//aKhNq5shVvMorZ3HfAcsQ8BiqXUonm3hxrlraJ+9aatyVJMAta4GXSjIFj3oztHdc73y+VboCqD0RSEdrXVYg4LgKkEjPCUIqghhWxXGClQTqCYMJBSKNu9p/aKON/7336JzsgmPAWOz18TIxgrjgoR1Kt+5zOcjIn1oPi/HqAAGvLQlWhBFqbsYocBY0l2VkBV8z1qHJAQbtlax98h2CkOETlbnHSkqmhlFf9zTvOPEt6mcHvNF78M4R82nNiRiCN7LXxKFaHBr83So8YtdCmWSoaBRrBr6PRvj6slraJ2YtBgqmiFTMH9ykGTJChIADdRjWUGaDQqC/uf0X+uwtgRBCwVFZCbWTZkME7Iq1G2lShvxQwRq9SCDatJKKQ2RvnENP/2rH+H8+fOqVqRpglarTY3dogW4U/Wp9USkyVHVTveHbo57Ixlc6p5cvWG8hqPHjmIP3SLZiyROqHylfWVBeI/U5kMFZeD2TCifgeczLo4Q0iI2pmdx7r0zaH1As0DulrAW6Dv6sl50o6zLQyjLoj6KPtconZxSax3WVBlS+fHq+lW0SVcm7Osj9eTSv0FKa6D6kneTXEzxu//wM9w8c4XuUGBt5O0ONXjqxvjcmUM1Fkd9rNryXdZJ1UO9VSeD8yxrv9mexcaNNcYEB7B5y5iN7dFgNw311SC7Qr9zzLjloQLLmedBu32kSUQ3Ts11K/YYM03Xce0DBs8fNBVY0YVifKM+ljiDF5ZIcrmRshKub0LWQMmKgf4oCA8Y5KhodoHVgJiZPn1AIWAVaSoxK4zWgjXUvgK88v/+AtdfuYCw41YySPoCUC6XEIWRY9KhIE1OATB0gbP4Rlzk0WfopE3U29MYGSvj0JH9mNi5BXHaRqdDR4zpa8CbWqm0uJTgocvBACgvhiyQDYFKydJ0kyKWUwsWdKYaOPf2SXRO0zJY9hlUq3+NiicjDTVNVcsOaDUm63cgzAnWGoc1JQjqEqCeQldrBOmAzMmqsvH0ah3yJCnXgdf/409w6qfH6ZtX6day0igwwiAMLFiWVdDxcFAFz1sEd6w3adZZQDchQbVaxOGjj2Hn7glSMLF4w030YNDNtDWBvyuNq0Fv9vTDA8f48vWVE5cbBcMeNXxId9L6GRgrFLvMPy1A/coUzr15ConcJApBQU2vHZZeFoI0kQDkZTLKzCe7pmFNCYLWBA1JdPWNKZy13NO0Cwtq+Znq4pd/+VOc/fGbKM8wZsAImTKj2+JWSI4oBPnMJLlLw0EVLQHIvV8dyyXook1rUKmVcPjYQezdv4txAs/FTYSRBIfBY3/QW8D3yPLYkJ+HzCSObZ1dM8Y14J5ajwo+ynR7AtIvZCAv7NUpyDeauPDWGeBinVqHVCC9NCVVv5wm6w3WlCDQJqNzq02GjK1FyIRBmor1FU12cfqnb+Lir4+j0vQRpAFaamFibGBjgHhrmqUWKCcMmhUsu9agxajV6AJqS/nDmeYV0PWSJVA/8b4Du3Dw0AE+HyMhVqtqgaKFofbXwDlBnMS2mnYuCcPecSe8l2Dp9fH2d9DFSXtoNdqMFWi5iJrFNhJUELboAk12cO3kJeBS2+guJaRGCicG7mdWTz3S6rBc47CmBCFpd1CqllCm9lczqZyiTlOVGuH6b07j+N/+FtnlFophhX675h1oNu7KtVdKxu6oyZCs7yxBC0HRs+HU+x/bQ4bvUhA0hUUWgEIyMJJ0tYFG0rpJQ/N51J6zDzmKSkS6SR5jo1KvCJ9mt3m1gamz14ArFGrGDKEsMlG20oSLj6oZWbjWYU2VwK9EpH8XFTo9Y2R+q8ZCiFvv3MCJv34d9ePXEVGbzVLjJ+SAgr48Y23eKwE6RoE6zLoWEwTqGaYl2L1nAgce24sS8xBTSNSKrlYUDXNW2/9qBGNx5s0EQazPbS4Ei1Gs4ITBjxUv0CpMtTD1wQ3cOn0ZuErJoG5Q06qWxy9kfEoWL6A7pQWX1jisKUHokCE7st+CBlCc5rnTLfz9//VDXHr3Gkr+GIKoiiZdJ2ntXpeVpw6glQDrVKOR/aCAVtxAl/7AvgN78NjB/RYLtFoNc7H4Am4pLuSsKJqfZLPawAmDwxzo7rsWaEO6f0QFwXSOWA4qAQbPYTdEMaN7ONPB9LkbuKERqzdIT7UmKT2WX66fqLtSVbMaYW3ZNIYDWuUto4ukykhOzOKn/+cPMPP+JC+UERcCixv0lRo18sFnNa2wbU93t+MWt5kFwuowe/aZpzAySneLlkBLpQjFBDI26m2OiiX38CqEvHnTsH8uFwRbO+k2lCBoKIi+6xagRKurADq5RRfp3FVMn2HMcG3GCQNBzqkEQbgyKq8+WFOCII9f/bqdyEPr4jTe/KtfYvrVMxhrFzHF2pihAEzTd69Rq2kVo9TXihQrrSINc1AMEGP//j149tlnUCyHaHeoDck8NiVSLgZNgR/QPSv46GjV6VUKzumR8zMPoogwFwBzjSQE/X3rZ+l6DKIz+y6Dz3isoOHb5y5h8oOLtMZNMwOiAyOkP1qEjwRyWbpSLQmZm9qXe9Z3o2vyfoQdt9Pmb5q+UDoTozobonItwB/+4XW8/eZJdLXcuoY1qGOIfqvaxdtk5Jj+TaqWH1asmGAY2ngfujcZA+sen9WwA+VgtnUVmyYqc4Po2iljAvnBvB4nXZvskrOWWp8Si0WUIP8tQJ0eDoM5WR7aomFLoBFuAcpiqbuERTMXzqaHErXkjMeLPutAKPWirjJPvWeFGLHfIf06vDVBwPu1Onel6SG4maB1dgodDdKbzRDQWgRMS4NcVJOqP40B62p8ko1LImpr+zxnbqpo536rCR6iIKimxOhOp4iAOlIdZhIAo5MYQGFpD02SucowGReA9/7u9zj5m3fRnNXSLNJ34DW1gzPA5TPSz+oB7dFVkpZbCjQeyFY6ozbUban1PncxtrmCA4d3oTwWYrp5Cz5jA7WMpKp04yWnOV1HHSuXz+ZVuxDvCGLglSBftNRv6MuJyqcGDEou3TkJAq0E8+4PCgPrQgJRKDAOK7SQ6ispvnruPSoYD8UOhSEO0b0Z4+q7F9A8dQVokt50o9JWh4KghXIkEqqtft3OIWnUFwLu2G+1wcMTBAVbcvrpxmh5FbXT6AsCVlf5R14CHwlNs8a9jNHhUU/auV++gV/+8GeYvnQTfltWgMEqHV4NLQ5ZwdJQgVWwQ7HsMJAAaFyQRwZXj7O2rU7H+gWef+45bN8+YR1v9gUhCoiGeNsk+UcAHM0cw7qgmiIipLXNGGHfujGNC++dR0z3VHUy2ivbJ7YCPabedG1tCAt3tJnvmzQY2F01oDw9JCB1CuT4nlr7yZQmCNInia0qHVMzaSJLIQsRtYhTBZz92Vv4w09eQ3KziTGvilJGIUrpDtESBKR+zvyeaTnuSwOxLly1LkaZAesN5v2afC/G37FzJ3bs2MHr/DFNfWhCa8JK82sg3aMA+XAMxVfqstFgR40zYqjAswyi/ap9M+LKO+eAswyekwJKvFZiXKF5DpnmSZO2iQZJisaW2gDrm4Xr768SeMg1K4Ko7ZraZE4QUiqZDtqFLprUxDa0mr7O+V+fxhv/+HvUL81ipFdBMQ3oCqkHmcloFCW1tfxeWRWhGvYkEEtZBDG5hmVbwMeKU2/zSK2K3bt3W6+w1iuVAMgiRBQGfQN5cAmW9QoSAkc/anYKgpZ6SVQFFISswBgppoDok1aMl+vnpjD51nlbRl+9+/JtQ7pKFnsxFTlbmtURcytXValadRgOCMYqgIcmCKYUclrYgSpAjJuRcOJuuiseTQOjsMa7Dbz9D2/g+vvXyfg8l5DALd5Duy0/3VOTKkuSedJg0kasCO1zm79nIVpnGJlcnWdewErjfqVWw8joiA2plrWQKyRB4O0ms3xS/9Y9SBjyzjethSqtLqugOc9kdScIDdYQ+b99sY4bb5xBW99yo3CIpaKChkHSrSXRcpwfsdqvgFUGD08QiPI/DaRpyXvKjNykiMT2SEi1zjfOpfj1X/8SU8evUQtRs1AjdekS2bxbteKwwvxixIpScylRWyHfoA4jZ5YXo3qDbYCcLRWuySdMh/valisla0nSYLOI5xrNpgmEjlcjyKrdS8hjBIHEIe9zUOtTMSqjWqwhZB2U9YndToD4egNTZy4Dk25ckg1sIbO7VHL7LCtBYDpSeoarCB6uIOQ7dEuMyowX1EqhKY5aaGv2UoZf/PVP8f6rJ+Dfoi5iFC1z26UAdMmUqXJfIqP2EvuKjb4w4z7uxyT9XIvpJYtBwbFmktnSiET5/9qq13h2tm6jVX2igupKWeuEMosPeXCZGD4fUj6IdxIEXVs5upYf2/bPqaVM45GSToKkHSPU8jA0w90m9X2zi/hGA9ffOQ1cj82VzWix9UlcsRhzyXqjm2k1znPMMzWL5W+1wMMTBAWpootyENHd0ZKLmteblTGOUfSuxHiNluDM6+/Cb9D9obNqkURBviqZnAxuDE/3R+OKEvmzPNY1tXK4SEHDo+f120K0VaNZ2epAk2BICGQhokhjmhwDSINJQCw+WEKo1jOoyCQv9NVQc4ykQIiil1b169IKy1o2b85i8sJ1XHr7BLrX6ihSybiPJ6oW1BgScuvqQ+OTXKvS6oGHlpsCg2FNkpeuoB2lFqFUqFdNPTP0P9/+h9/hxM/+GYXJBCUGxgGJqFUY9JTkR5rexsqwlvKYQOes34ABuAvCVbylBYEJOq3KI7k9+jj1rekZlGyqJZ/LhYEQUlgtcH8EwJXYeif6QkDelSJQPwuVhdZ49SPPmrk7HmO6bmIfZ+/RClw/exkfvH2SwtBAtRDZAEnNftO6SXJ7TRD4vH0ZcRXBQxMEn8wbaeGrXsdabEhZnqVloBCc+tE7ePNHr6Fys4vRhJqEJrZALaLuGmNrCY7EQfMyjbQ85p8mj2hogJZuDLoUHn0QfInAzMy9DZrj8xIewgwF4dSpU3ZcKrL65DqpD4Go9B8JICnyoRainaZ0+hQCCYL6ZwoUhDhtoSUs0E0q01LUihgfHcdIVEWZzN+6MYNrpy4Ct1o2azBiOnJ5RcKkp+VvpLT+KAh9EFNrTL9bHUjrscezKc6+egav/OAX6FyYwQgDse4MVY21S8tPdYJgrRpMwW0dmuZipalTRx/mC7q+BXTSa5KFhShmV8XkQbNLELh48SJOnzltc5AVQ9hcA/5lZAC77xGAPnXtf+4WSRCopsgwihvIzFoRr0SXZ6yE6qZRjNRGUAno1lbGMFqsIplp4eb5K8C0RqyqKbvPbEzUBEH7qwjuiyCIwXIcBu68SEEBIIOTzgzCgLMnPsDf/uUP0KU7NJpVkE12UKGGKQahNYuaX8qnbRBZLgTc5uZbV7UEiW+C4NBV52KwtBQjdDNaJLlnBZQrFbQoAL/9zau4evWaBcfqZFOwrLhBaTkWyXHY3v3DuwXReyU49zYeiNZuTgOVURqzrlIbhFgbo/bfUEVQoyUvipa+0UgfQQlFe1rxZLqJmSuTFAqaeXV8Ml21BroaXF1QmJyc7CnYUedRjjt37uxfXib0eZpltIBVg68E8qiLKrE+1q3gSEux8KTGpWgUqShdTHwEjQJuvHIOv/hPP4Z3jT7n9Q6DY3VgMVk+ow9vq0lUQqNn9MurzOqMuzYdU6peJ3SrXVCrETWYuVALwT1oqUiozFRLtJSzJkZGynj2Y89g154JTN68gQJ9WvU5OOvh8hYE7jN8mpoZ2PiCfp6WAc67W/79gjxeWQnI4q0URDt1KGobaJwVFYZm5DVjujqMDWobqP1Hy/R5eF7WgfGdWvR4O0HWO2MQzW3QRXlTDWM7tiDYsdk+7amITHWqOEPWxcCyaA/3ob/f3+iy0NXQykFWXsNpcpRyy7+sqdZBw/69Hx0G6K3i5Wigz57yeq/NeIBMI1fIDYBQE1wBjfem8ep/+yWy8w30rnUQ0iUq0MfveqGNcVFLkNP/SiZ/UZ8sfebXdQXLtsYohcZ9GZ/mux9HLEZ33p406rpzqvzIK6FOk378rXdx/uwFjFRHbGRqlxaiSK1XDBn6eQEZgOXgS6NQyyQqF8v/6XUShhWh3jHs/BJoRdJGr1su8v6umrLVeca4TA0S6uDsFFIUSmSgCuOukFSTYhLtpID4spiMn1hnJh/lFYstGB/0GgljhmnW6y2gRVvA+gylNGWF7W2DuBiWvnJv4d4JgkpPUIL9sNf2RVz3FnqG1AShllThUZHEqNIdqp9t4Vc/+jk+OHkO7Ta1MaXUjW2hNSA6IvTFgNotb8lZiPcU1OJUCHD58jW89+77qM82mG81qZIpOhp3RDGmdVC+sm5sjLBugPVFipoF1L4aMuQlyGJWa1XUqjVrQRPN5VaqggfXiMopoWoXxq0Obt2cxI3Ll9Gd6k/qobRoIYC5u6SJtGvQ35k7drsDh/cF5kvwUUC5FF8QpCj0wToJg8aWSvj1EY4GA+MuiavPq3qtxNbl15Dq1//uN3jv1RModctkMqoRWoGE98VMT/0Dah4VeeWjSmO7o8V470BNqnQJvCKKxRpuUJu98eY7mL5VpzAUzdUQcyhgDEKZVR2rdtcPaNi5KlLuUMzgTYJRKhdRZQylbd6MrDkcc+OvyAO2lysFCQixR6uZNWO0bzUwe+UGcHPWhEGKxjHOAOYCISQsrNf+6fsC90QQpPWlvS2nyj25Xx6JyJX0EpY7hVcq8jQJFzMAJZNhsoc3/u51HP/pGwj1TbN6SuaL0KJvGtMiuIFeFAQlRJQ/eT8JMQ9yXAK0aJ38AvPMgp2mtXr/5Blqxi414oj5mRqwp74QCYNzs9YLyBqoRPT91UpHpVQk86shwZa5H6xnoiyDWtaMaQf8Md0iQVDjRdhjnNHJ0Lg+jdlL14EpBs90m5wvpjtzdE8Lc4refvX+wb0RBOKcpXOK25kCEsgWw6XptH5Jng/CCkCmP/WT3+H4P/4e6eUWolaAqBuZFu7Q7VBg7HqK1d4sIjviyjdZ6ncvQR13+sKMRgF4FE4/KOPq5Zt4/70zmJlpME6gZWA+FSSrUBRX9+A6AFFSHz2UAvMYC1RGK6iN0h0qBWYFbfW+AXLbSFNrVp4/aYzLQ6EJg5ijRbd3toP2jVl0Lt50lsF4pI+Dafa3DxLumSDkOA/ujAgVkKn0oiChRrmV4vyv38Jr//AKejcTjKJqQVQtqlLLUgtJECQE1Lb2lRljNKZlrtGDAeW8FGmlOjW/BqiURpClBZw5fc6wSVPv+6ExQEph0FCNwXhlOWi0WeHP/S3/50ry4SD/37Wa6YCeC109NTJE5RCVatmEQFyd97lYGdzd7lkyu2I4a9K+7ZVqGeI1Vp2+D6EFh9FMaRluYYaKRQrRNKgEQtsFVXx7CZZXlruFeyIIOfRJSegXQWYvoX9JQeg1aRMSD2f/6QR++l9+ivgGbSMFIMrIaLQE+pyRGE9jfdSmJNNsaIxDCknrGAPdf7DvFFP7CayRT6+mie92PZz74BLee+8krQUZRXnlVqNXFzL6cnCuppeJfGrRuTuhXrFSsLyRmwMyf6lcQlD0TShMAPhjFekuu1fsr1YgG3vEU3P1b5d1ZHfQ0tPiM/aTi6RPFaW0DLNXpnDz7GUqRjdIL7cOuSBpM4+DR/cH7okgKBG1BFk+dWDoCFHSxzWmUpSpUSffvobXfvQ6ps830LrFgFNuU/8x7bmJNSmJoTZsqQd31f139z4QsBodfJtOkDGKVdTrLRx/531cOHeZZ1nBtBxqSVqrIMZXP5LQxl2xDiojZYsLfAqB6lKCoV59VxMOxLBic2N1KrzBhcQGwY6kEGU11MHZo9BoqwWHL9zELQnDLKVgwCo4znGgdyqN21O993BPBEGZVs+ugSjkunkddGBfaknPtPGr//pz3HjvBjYGW5F08o4ylt2jtpH9LEgAGEyTGkbUAcK6Sfg5ee4n6H25epIwCvRez1q1fL+MuJ3RKpyx5lXfL9IiqI1sbUJunSQEcnOk3SvVCooVxkZqCFD96B7Wq2PJAdBh/5QTjNtryF1W/45q0V2VIAgDKsaQblLn2jTiS3STZigFCrlIeqU1CPmbF5y+p5Cz60cD5VC8wx0FtwnLrE4wK7uU5YUYv/jLf8SVNy+i1Chh+lKbPvgI2n6GmJj61EQUBlkBN9eYwqCtWQhHQvf/AUFfKG8XBgqt3CAGz9XqOFqtBO++ewYXzl+hi7R6F/j6MMgFIfBl3SKUK4wJiozpKAQ9KjQXpTlnVRwqgVgIOiVG0taQ+7orn8xjyGP7fK+5mBQIucxUkkGri5kL1xBfm3K8MmAVlMY85nv3B+6dIJCYQnmSeXkMGhl+8t/+3pYZr8QRYwWg7I/YighJwHtJbDel0kg1JwxqLpVVGIT7R4ZB0FtcXm5/o/oWaNlUq8xdFJYxNXkL7x5/H+fOXXC3rDGQAAjUIaZOMo2pqlarxhVivDxWkrv0YZALwBzwQKnnqBQMeaOlprFH/cXD0kYb01dvoHN9EmjPcY7BYBrC+wVDBWHoC5fIke2KClqT1BMjq//Ac2OMKBG/+Zuf4/iv30JyvQ2vxXPqSKNGkE9q5laEodblKe7zmlLkn3ZzVFK6bgcPCPROB04Xaet6UCm8MQN7ZlbCMHlzCq/90x94WtzDDBraAwTt9HFuV9d171DS31NwJJM7kqM7r4zkul60p+aBF9EtKvkoVhnTKVag9VNDgLYCpUPfyfaXAqU/d4fe19914JzcPAs+g2xPHychHehcoqGh22cv2BBuaVFbbJj3qdVJz8pfcI6y+82ndG9g6KC7iZ07+q/n//ydg+91F61ORSY6N2hhxgpVptb3m3QVZjxc/Mlx/P3/83fozfQQZgyneZ0kR8ZAWuOAZHKVlFhinogspvmUt4MqUu9bKTiirQwUGDpQIftbwsAuQUcubQ3UK5d9PP+Jj2PzxnHESct6nG9LR6U05mf1qvXEbOb9D7K1jqkUv5ieJhbq0NXMMg2M62gFP1rlUqWIcrUMX3M+lGfL3wJGdkVdEai+bjPq3M/TtNW0ZV1JEnXa9ULmiSyShj3sPHIA2D1uwxO0DiLK+v4z3TeWIY/GrFl2MId6Wf9Qr8xfq1OX7vegu/xlIrLaFKIChUB9BbGH8794C6/87S+BWZ5PQ9dSwHudFZAAWBfbXAZMqAwXC4HA+aZ3g3cDyqkw32U6RI0pUu4c6lL/RwZv1Ns48c77uEkLUSqWrSlYBM5TsiTmtnebr5WDuT/8czkhfan01CuuoRMaGVeqUghqJfhFKaiUHotzTZRPy2aOdwFWVkPSSziQoCk7WRjSSTTUes0hXx1SN0yeu4Ts3A1raAm1oDOvaVlnN9VzMFv63wdXvLuGoYIwJ20D77EXCfWELs29WAztoZQVEdEaaNGuS6+/h9d+9TpuXZ/u3+hutszfRuH1AdbxRlV7lX7uiePvYXJy2lZ70OhUpxHniMVd2dAc7z+IWexHuuunGM4+ckLNr7igWq5af4G0o/L5wBYxEx/0X2XcQEJp+Ry6J5i9NYObV6+iSzrKaGrtKp/BtRMkx0+DVHRq6XbIuW7xleEwvNSWM7drkKdoQuCI6l7vWnrUUVKq0x2qB5h++zp+8oOf49x759FLnLacA8tV/vx6AgbSfolYxsWL1yyA1iC9wHfr+7hbVOZ+1Wno5UBr1H0Fqy/nhlqYymNNSopKRVQqVWi5S8XCaaqVh+iNhA+qKdhZhFxAJQg2ZolBtIZwx7Swty5dA264oRgRecmGalguHTrRcOIhajqudJDftVxYtiAow3KB9FPG9WplwRJIrf8QrTN1/M3//QNcfPcS0OJDzLzmD+dZsmTzgtvR+gBpfQ3I07fXoqiKCxeu4u23TzDYZPnllOfKgGV3TbN5td1/sOHUilfITao7LWZWqpSsdUgjSdVrb3NEqIlVT3NDLe436DXqdCWKo6yvgoG5UAs5aMRq48Y0pi/RRZpyvc/quBv8uUT6fDWAd1OC4YIwKF5MVRl1ZHQ/JwS6rotMQjHfWeC1v3vNOsyCFgMRxgoRf7lF0K25EMwnvj5AakAD9RJqs2JYZtFCE4b3Tpwmk6mcpIG5iAIdPzhB8BgYaxKNlq1Rp6U6yeQKKUC2qaoUALUMWQzBLGndojyn9xX0EpGFG0cRJwz850asUokUMx/t6zOYPH6alsEtHqa+2ry/Vknkz+coyLfzOx8OjksXwkAC7gXSKI6JO3EHXS29ktLkt5mVDnES+P3fvobjr7wDv+WjjAo8FiJvfrY0eJsTAlcA4YMAM7krxBUDCyMfW4/qY+PqadbHyj/44CIunL9MRqPrxHOdjpvEqhYLN2JzODhKr+ynPAwe25f/maeMwW8n6yDpxTZ+qDpSQ1Rm/qiU8sUInBUgyjVhIVQOUWHZyH/uuSFovwX32zOiteMqgeWA+dDYJblnBQpDQqvQmWmiPdVAcvG6Ddi0bwtT8SqALnCrRi49OxRkgZcJwwVBMJdGXhhZBRKYFRwwIIa+ZikhqAOv//Wv8Pav36T0tlCgcFSDCkZKNeuAskKLxgOZWjLj9wHcWy0XK8AVgj1C2rAibagCyeprmikVxsn3z9I6XKHmBUrFCi1EymA1owtlo7OGw8LsfBgKFmwdI3bRSTU1NrURpOVqyUaU2iA6WQJpKubZBKH/nIbNG/D5ZSMfvo35B5D/PhwFlg81Oqgpk2xJemVtxi2xmt49m9jTlDDMkvvlxdFAeNzOjXHrg3bdYb43cPEOsLQg9MElJeKwkrMeymRyy4i4m9L5/o/fwCt//wpmrt5idK/5qJ7NSlLg06HvaSav7xLNeQeEgd21DybkxMEAWG3xvQAz0w2cePcULl24hpBuk+/RMrQ13bN/370AvtoxnTsU7a2JNI6tOTSiGzS6YdQ+zcvaMGFVfcw9QLD6MLMttFP3HSzM7dMuz414TR156jfyNS+EirfbydCZbWOG8UL9ImOGW2RAueN6gHSUQCj/82m430pgaUFQyn2auERp3guhq2v1DtPKX3rlDP7xL3+MoO6jxGvVkISma9Bstmw+q3WnSwj6qJSUrAU9g1Kx5oFlk61WrRjm4KFSGbX5CycYL5yjqxRFFRQZULdbzk26VyBBcK4d398XCp0Li6FZgiKFwRQt60XCoPhgIbgzD65e+ixhr5yTQaJWKleLkqyDGhrSmJat2UGvkaJ+4Tra5666AXp6Vg1w3IiRtRXkyQqXC3e2CJZynhwDGLUxd7jLUzd/dw2v/PAVZDcprQxkPLWQ8B7f820Eo3optRSIAjVnERyo8EaAdQUqkNSScFAYREDFByVM3pzB8XdO4vq1KYQ8Du/1QD1zb0hn+fk81OJkxVIR1RoFr0Sf24QgRZzJSlMQcq5ZAEucvueQv+f297nmUKdSuN93lcSmNlCPrpI3G6OpFTEuTzmFLCBPGl/1DwXmiRCXy2p3FgRLxiXFbDgGZi6vvnUN//iDH+PyqSsY80dtgo3WqdHrPZ8Vr+8VUPN0jOjKDH9z3O+swbqzCP3qy+nloGCaX26QJv7PzMzizTffxqVLV2205z0DklK92KKz6C7KaiRprVZDsRhZy5G19zGylFukBc204PFgTh8GzLFEf5tbBJNSooRCqH4PrSJSSMlfdJMSBtA3zl1EdqkvDHp+SGFWUr7hgmCm1a0+5Bbj0o3MXIM7tACv/tcf4+o/n8Z4MIpbN+vYun2nEVoxgSOwM9ML26Qtv/3C3o0c5OVdCd4VDEtIuCSYt2tbwfytrvMqjTs2zzmKyrh4/rIF0DOzDZcsaZTbENfBpO1SqOvuXfk7HKtIEIzqtL6stYDvLTHkLDNO0TgeXtdVC0atyVTCIMHtw20v6Z9bMSgXK0EHt50Rz3AjXhsclqEAPpAwwEeXbmZWbyNtxJi8cBXxlWk9aXoojxVUCEcNuYHLg+Er3Y1sQNenr1+NMMvktBb1WBwiOt3Ab/+Pv8H7//1NBs2bkHhVNFjB9XYTVRMXwfIpuVKau6bNu66pZYMFnkOBFeQofTvwdhH+dnA3zjeT3n59fFMZTzzzGDZu3IxWu2XDC8rlkvPhl3i/+zomkcpGTEJFTzeUeaI6U1Ac9xIU1E8wWkVIt0gLnUnTDcuyYKn3LHX/kiABWvFTEkz5C8uHIOnakpJdehwUBWRFH5VtG1Gb2Ah/+wh6GrBUpTfi62sMidQCIpRx7eJlWpS7GXRH4nrlig1yqqCEkV6EzpUGXv3Rr/H2796lhlMFM15JtHIdHTRaD1eg5RdrJQRYTSDeWYT9a7eDzuZXFt9xU3MZTrxvHyUp2pf7C6RnOrc/DBQIC1VxqkT1FYiZZYW11pLOF0slWp6iWaLFwrkCyLO/HLxLWOmjkjeznCyzhmKon6Fxcxq3Ll9Hen2GgqXVVUk9Mqd5MHyDqLAcGC4IxcCaQKNuiGKjgNIs8M7P3sRrP/s94iYlszSCJiut2WlTBmIZrBXrg7UJg7W/EFcO165ex/Hjx9GoNykAZWue1kC9pTSsDUqj0pFVsgnzZHzpVPexEy04FqBMQSgW3WdzTUrXEVhZjdZynfifFiKhm6T1kqbVx6CVt9X7TA9GbhTVxUcTBPU4FrSeD9MtJQW894/H8fu/eY1S10PobUBMg9Oin6kFnyoUmrLWNr1LZlhL4CwAtdEQXCn4Fix7uHDhEt599wQajSZdIy1pI51HTl9CGPIAk2/lLWQNntCtodZkLRetuVQ3SWjILu7mVQt5GZeHGqKvpX5E79DzUfbIe1kBUZvxKYVh8uR54Dq1dkol0fXIpRq8vTwYKghdfbRDE4/p9bz/w7fwi//4Y3QvxhSKGrxemd5XhCwgwQMFgm1kSd6Otf5BPD8MVwqm+RV9+SXrXzh96gN0NM5Hy8xZtZD+C4TB+bOKEzJrCrXxQzzWV0UrozVEtAYaxJamKV3X1O4dGtOsCuiXbyVIK6c5KynjKJpAhD26ghkx4aVGgvqVScxc0FAMui3tnq2lNEi/O8FQQYhpXrqMA878+l389r/+HN3zLWxOx2y+QSErohCU4NEP1dM93hgu711rHpzmH4YrB/W6qPe5UNAgAR+XLl6lMJy1IRiu8hYLg1pPyNvMR9cEQUsyqp9GglCqleHTOks4tAKfLUk5tHZXE+RlWx4WNJ6LBJDHkkmRGDIeaNONTygQcQHNq9NoaFWMJulonW7Lq5+hpKqQgrMXZ/GbH72C1tUmqt0yPHVaaJiH/Fha764yRCZQ5bgGuuHglgRcjHaemVwJMjWX6ApAjw26MMvBYfkV3s371YScj6G5DekaZQz49LFzdbjV6w188MF5ixtK1Oz6wLksBLNjg/VSLaMuC2BuKz1fpqtOy5GxEWzcstGYQ/dosr3iAxsEmLkWKKUxDB86DMvUHdCWmyTviX6ijyZDqUFHsYDW1O3RRWpPNnDpvfOYfP+CGw9Hq7EcGHpXoQ689co7uPnBpCXWpcRlfJFjeR73m72EBnM7i8Fdyu+eR/2Gnb8z3g3czXML35vjykGuyVAk6WUNNEpVS8Soj6HZ0OJh7+HUybMmeBIIN4iPDxgoD84aqD9AMZq0pGpDy2O6JTJ5jxmTfp7FRPbcMHy44HoJlo/818+2I6J6noUyfaQGfFrYsEvBaGboTjHAvUXtbe7Rh8PQuxIK0xs/+2ckU4kFHRoaq8kdWhS2q9UqbFyNI6RroMor6o+wbKDLU2DFZSSnNL+nkbo8p09WvfXmO7h165YNVzHtp6ZSExzRmUyvfgQKgvoK1Jmgr1rOj+uyBkbe73D1gsqyMtRoBLKhHal0tm6SPBNij/TzaSH0sfoi49suhaB7kYq8szwaDBWEG29PoX5+BhW/quVn0C0WkBTpkwYxCR0zC/rsNy2EvUNSqQDvj7ASkKcla+DRKiT0dRX/aXRqqVTB9MwMA+gL5i5pXVXnXmkclzSfnqNfTAHQR1ckEIlcIF4wO5tbAoLrmV3N4Bh8uSgh0KQcFdGCZrKdvqMR0xVMFUhrnBt/GgVdmI0RM14At8uBoYLwweunEbW1aGuENv3TZo/IICEuUMo8fSFGs5hYGaS+swjLMz9/hAFgZXqME7TihfoQTKGooqn99WnbixcvY4pWIQho6mUJzBoIeScFwjrUWPkSALlDYoz58VzarnIhsCxappeNtsS8YgQ+q8e1XGhCRRBzq6kxqQioZtNugFBznBs0tzeb9roPg6EcPHWWAVuviLilVWV66CBBFtL/DHnkSQj0uVCZYGXIVirlHnPyR1g2yOURzTRJR4GfhEINCLa6dqjZbC20220GwHJDxQhqqHAD6kIbHjBfdbIKYozFoLPDr6xFkEUQih5qLNCyohIGfWospnQkatSgMCh8LtFFChEgu6UBch8OQwWhxui7qOmYDNR6oYeEmIZquqLJ4ekg48vM7GpYkxucJ60kgVyIAm0W4p1gWDp3i3JBVorGeEviYpBLojH0K8Gep3ljbbTTBn18WlpRkBVa8COmxvfQ3VTsYKNJWckZ4wA+xiphNdMf1tRP5YZVTyHijg0Bt8wTWK39iUHK82Dul4PMCP8p0WGoa0Nwgfb+MFQZzZVbwS/lo4kEgG9Ua5jHypKFED9ST9vqF5pB2WOskJBGWkU3bmsGz4eDSrEIqnGKCoUgYMXoU6AdbtvKgOYcELUQU5B2KRT6WLisRkoGUlUu/pm5ZgGG4pKgCv3oqJ+5DSv8ScOqM2ohLgV6m5SBPky7fIyR+S30Iga6tLJJV7PJ+G5qe3haH8qnW9pxDRWkYVcD6lhdPbWCkMG1Yoa8JXWuaeSpcuByonySYSUEdG3dcPd5mnw4CvQOpbEQ+X4K4mKUW7dSlNJxGny5GLMoHWYt7132aT0jxldF8mKNaRaJErKENGsT66Sh81Y+HIbeNc04AFV986yLkVIVngSDhFVPnvSLGvS6fJEzQvotzSR/hOXAPCNKT2rIsShaLBZ5pEpnRbFSVfnifikdWYo566VJK6pKY/q1A8rtSnEe5mkmJpanaIsWy9XkjVFIZREF8KrLW6dpqCCMPT6ByUyj6zwyf8/Gc3jNGF7KiqIwSAgyorY6duvNrC+YJ/M8qpBDz98liGrzlHNCoG2zMQNN7t+wYdQqN0009IJXTRDsFuuB1lctpYaomUzzL6wFCdFC9vlQsAKt8Jm7AHuDK+7ycRGYE2lbm4dN62jLchpJ6KtkMYqjFbvjw2CoIEw8dwhTaKLrk5RxjPGghFKHrpK6EMj4GX2wTBqKj6stXPggiPegYFgd3AnvruhkWzEvE9DjTgjI0azATtzC5s3j2DA6Zr3D+tC5Vo/WjXKHZBEkHFoMy+wx07G1ZS093qCkLGEnCvbginB1gsqi4gksp1ZE/pNbnqZmCRQvyb1N6bZrkpK38SMIwuant2DL0Z1II3I+KyZkFuR/aeEl+YqyBKoC00d9i9Cn+LoAK84w1EVuF+FdwOBjuSXoO52Y2L4N+/buseHUsgJykdS5Zrf1LUNG4dB33UT/AuMGj/Vi+8S5FMUpgqGFWQJvy9n9hfxty8V5cPQytDIqEqQ1sJlKCqhpQcs+RjZvoIt/h2VzBmCoIIT7gaOffhpZiezOdBr1GXRpGUBTrCy5GEHEdhrNNWk9AnB7bczBXRWfDzmN5vadNXCCcODAXuzcMcHzOmZdVmu0CP0YgTdro7kLasEzAVDvv4SAgatzkRyYPZAJsTMrwQcAyho3K0KjUw4s/xzxiP0l8NJCyqA6QTASIti12ZaWXw4MFQQtav3ky09i4sgOxGECvxKgS2nr+YzINbBLbdskuHpDFbCpXXspUOWtFOXv3Su0Xlk1+y7AXLMOQy2dPgzdxJjhz6wU8oF86juISD+PleqRs1968TnsnNiKTrvOyqciYj7rs3WLCWyoBfMuNymNU9yamka7ofnQZQoCWUXCwW3guxaldtzmO/KBdx8dXZ6H03mlyATnFMFCNKYahv1nRBP1sgtVlRIATUtVf1ca9RCOlxFurAIbimYhlgNDBQFlaqFtAV740icwsmcDZv0O0gqJHzAjIV9OIguLDOg0ArKdLK8be60Aab0ivBtQ77AbeRrYkGnWNJ595mkLkCUAOnY2VyiQ4JKJ7JoqjlWXUTG1E3SabbpHvlkNnVdMQZ6xlSwoOfbsyvDBwLA33wmtULKSRngJZUraxegkHVuwQO5QSt4vbRlFdd82MnH+4IfDUEGQmxmMAgeeewyf/hdfQGXfJsz4MV/CVCVhykSs1doUPbPKclqvF2BZpGBXhP1HF4FV2mKUA1Mulan5qWRoZY8cOozt27fSOojA6kF2NzLpOU1pWllzEHSeDC7XSAtf1W81kbYZGLIiAgqDq4yeG4bhUlgBEvTq+w39Mq0E5wRB5TdByJBobddeQncoozUAxnZsxsb9O4CNlAjFyUM5fDEMvc3rNklwaqnRAvZ/8Rie/9ZnUNozjk5IX4hPFDX+hRlKmk00Og1G6AmzppyufTB6u917As6tkEt1O8o9UIuQzPzBAwdw5PAhq+Q4bbPWyeFEV+HcZTq55++el4DwR42VJV26R200G02zMJrhpuEXqg+1nLiyDDL6cnH1gdHCjCX/GQ36QNlPeaE8XsOGfduBLWUTio7ig48iCIUuCdu+RdvKFzJYfuZrH8PzX/0MvFpkKyv3sgTVosbQMzZg7go2Z3l9QS4Qy8EPg6HPsCI14ebA/v149tlnzD0K6WbK5ZRrlFsEw/7G+hJ43Xxsgo1REhfwWtyO0aKLpK0Egslbp5t7lg+tBFcp+IoNRAOboMP4ie6lVvMrVysY3bQBW/bvpkmoyGNEQiHQBOLlDbBYShDSFopFxgReiqbiYLpJT778ND72qRcwNj5Gv5Q+KYOXkKZXUwXXizW4H2C0MWa8HTV5f//+Azh8+CgZu4c41hRA9YjKndFNYnZt50FDP8SmGm6gSwHpryXUIxt35KFJCz09ywBaq4tIY5JpVisoZytFMb4oYFaxLwhRuYiR8RFs3reX7hAZlR6RPuOnjw9KCNQBsBwYKgi+P4YwHNEe9CUhmZkS3/PxP30em17cgfqmFPXIjY2pdSuIOsqgqtwFcxp7pAWW9FNzln42NM8KwBrUsBjWc95yshDN/x2CGnEo9lguio3MDRmC5rLk9wygUby/WYgGQx6yDSmpQXNu1pS0hzBkZWkQHY9CLVuoHuFZvr+BrVtrFII9qJT1Rf+6WQNNRexq3I6+hGlfw3QL5aj7RuUR3fwu64Tpy6WSj6yYQQKiFhTVfDJLms9kCNsRRntj1pqUdWkl6L5qQS1bEU+dTbTq3KFBJ4rmy0EJ1wpRDDYMWTizWJpaqrnX8yj+cQMT+UpDTVgSgTW2qJBSYYibyPD1kHzFWKB6lMy5d4OLCUh2OShFUqxMXF4vQj9Pi8Cv8cXSMuo9ZoZ4V1IGygcDfPbffAF7P3mIwbMbghHxnqpX5L260+421HROCYEJAPft/ACBrIQ8OwylyIahgbZDMH/7wp+92Yi6AHVVzy1EJrcUWMBmd9yO9uOz1rciQSBZNVlJ6JZW1ELAZGwpCFrbLVvGcOjQHlQpBN2sSSFgRfB503bkeo3hcqi0dMy38OXkEesvUPMpb2c5JAhkGzEzj81RysgFLabUZO21tUahmlz5LO/VFE8Jj9GT91uCjtOWhU4YHB0+KjJBcQlfb//FJUR1i7m6cai7HPIpZPoIouJRj09EpOnmGip7twG7qLTVQkThEEeLaprhUeFWVF8ODBeEPohYQlW0QK2kY7tr+Np3v4b9x/Zbh1uj0EI9a5FOTEqoJLl1Pc5C9X4yFSYxLyz8WU2sH3AUcmVzR07gu/T9NW5I0yttOc0dO3H06GFs2rTZnrg3wPeISfWTIPK9msswOzNLxtEgvtAJIve1+oPu0/HDhHkquX+LhIWnxS85D2o/44VekfkuRwhHytiyazuKOzY5Lu7zEx+dg5Ww2HBB6KeWJ6StVbFPLR93MX5sHJ/71uex+cAmeJt8tPyWacNcCKybX72d1tOpYM6qyNJSKU27mcy7Vy0XVzUMaE4WnlvptpSuJd0bauK408LGDeMMjJ/Gls1bzZ8392wI3h3wOdaBhovLf+50OjbVs92it5wqngsR+REtjwSFd/cF537DsPIZWn77N/VBh475b0ejp/glYtxappUbr2LDrq0Itm50HuhQkq2sbMMFQdDPp0vOZTxgAO3TnNPaYvszu/DiN15CcSLErF83P9ZpeZLXLIG6/oXOMthgsH5K5iqZMLgyrARXI0iDsXb7KCGQkMslkiuSotWsY3R0BIcPPYbNGzcZTRXozT2yAO8GrAfdlJFYh2+nP52mKRqzTWtNUmt44DG+oECIrzREw1WYq5f7BsMKSLSNrt/2esf4uUN4mxDI1S4WkNZClLaOIdq5FRiVT8nL5EdLZ1FRll+2pQWhn8ZghmIGXQX5YcwU6Jbt/uTj2P/i4yjvqCH16YOSI9xKCu7x3C3ybHCYS9AERj6rDpdAXRuGdn2VgoTB4p9+xbkWgYzuZBMbNozg8YMHsGXrFls4WRpba5SyVEvgSkFCoAYFdyQmk2VQf4K+ktmqtygMtNq0DPYhF3W63fYa1cc83kvIS7QQHbiKdT9Xva4I7i55DVKaXcYEmaafVSOM7NmCkX0TTggUCQslCHJC+k8aPfopLReGC8JcGrkQuK1aJhKpliofk0CMAZ/5F5/DJ7/xMrqMTmIvsQznTapKJhcGZxGEH05w98bFuJrBmXxWBVGTCTU+V2o4DD0cevwAdu+amGupUbNnOrei3TBcOUgITMvqnx3TevM9tMfIOhnadfUxJFYPsgwShvxN7omcyjkuhuFnPwrMl3d+z/GO2VTykfgpC3gckeU2VbHxwA5gEw9yl4hCkNLNkxAshvlUPwyWtgj2Flf0waRk0qnibTySsLCtiJf/7PP42OefQ6LRqiMUUWZSkmztvkwiFwTjfSbmisqfMc8Q1AC3YUhNOvR+4oqBjwxLR7hyYIXRDdEcARMEuX4UgiAo4KknjzFA3oYiYwXypTV7prpXSzKSFsNwWJ7ujPpouIa8yApRATENbRUHhIoL6KZqIQa5SW19i0wTeuxF9jKjq31lk1vr8V6U/jzm9ywXh6UhFOTunFDtYMq2y5YEgB6GhIA8H46VsZlWYMvRA1S+jr9sVGneSqQBody9HS014vJgCYtARjeunU8uz6hA0mcaXSZJWAM++a2X8cTLT6AdtpFoHgOlWE2nLp08S/xP4pt9YYnnM708XK0gymiAmz7TpI99KDDuZjGOHT2Efft2IqJVaLcb1MhtdNotExr1Cj8IkOYPvZDC4JkwNGdbiLW4LQkqRWW907YlK6h6HhSlc+XI3T6LGIi3qPJstLNGkqYlD+GmGsLcHRLZxLV9XCq3Or+SkiwtCI7dDSUEOSrjOptnWBOpJaHFPSE+96efx8jOmrUiJXST0l7MO1waum1OGPp7ppBWgvbU6gPLl5opyVStVsM6xw4+th97du/A6EiFmjG2NnANSRHBbXYZteUDAeoifS9AX0TtpV20NC6p3kAnlvViTZCuGt5tgkBQu/6DAL62r2u158DVs9raMkQjZXi1IgJagw17tgGbyWS0Akvxw3wq7rww5+DlwFBBcB6XS0YvEDpBmBcJXZE3bB6xTBXjhdEjI/j+//J9bNq1CV6FT8m3Y6Gc7if0N309YIcrQXtsFYIqVL3CzUYdWRLjsQP78MQTR8lc6kmmbx7r01Cs3DCwPgV1iJlrct+BdZOwhroFCmdI1KoWYODcoTA0rYlVy9PLtTIL/8Dpm3NC/mKqTeZDU4Q7vRS1LePYeXg/sJUuhywBb5NizZVrnyvmnp5PZfDq8mBJQZh/YR/6Yjif6fmXyTNtFdwaPOOHN+FPvv8dbNw2Dj+i0LAASkdP2dNKR7CSXK52YJHUSiPe3rt3Dw4efNzcJI2VV/Op+b0aPqC4gLfrmhjzQYBpetGaek1f8tQSkswMXbQ2GmYZOhYfGDBzGq7xoEBvWsRPPAxKRXilEBsntsKbGHGWQMpWqIIYOu7rO9oDqcyDu2N5sIQgCAeTcFk24On8KH+51unRcpA21oPXtz+3F5/+8svYsmMTC8CgiUHP/LeWJQx6LbM/kMjCNA0WnXgwMDQvBoM0GQQXfO7YsQOPP/44arUqrUPDiCtLoFYiP/BdoMifgsPb6bs8uBtSaFCeLLhpfrlvzIeEUD3RrRatVUduGwVhoF6Xhjvleakn9czi5yQAPhnA679XoKZ1udpRrYxdB2kJtlAIxPOUXQXN2p3PY878Lu38fI53yukwGCoI+pAnjSlRIti3SQNv0UYP6or0WsSjwC+T4XmGVgylHvZ//Skc/PphNLa2MDvWxEzURMoAyOuWgNkiXYkQrSCxWEJrqQb0oyND7tMsehaBUICYnAJrvVGNDbJVi1H3LIGiiP4tRD43DPgILzPFORSTONSYnYBWLoh4l6dVEjqIsybqzSlUysCTxx7D5vFRJAyIi8aAAbqpmikjukNq4uAxa1vjj1IGzGq9GYZWoCE4rBgO+W8oUPPTNUtsJb2MDJ/aFE/radY6VayDXoPP1lnbnRDFuGTjkzJaiW7WoUvFemC5bXlPo4Hewzzaf2KfxuIEr0stbuPTxBFynVkv+tSt10fuy+1x7OujyOQqrRiBRjL3ErS8DuoV0mVHFdtePEzTOmp9VRpD1GOSHpWpc8Tn3fPbmHJgL+fNPucuC4YKggbbCd3l+RcNQv7CHGkWLNDSiIrYp3XYCDz15Wfx9FefQ73UItN30EhbZIAMG8c2W+eOBvMJ1BGlJSR9aikt4+f0JX/2alfJeQ7mKmEA9X/YeaH+DzsvvBO4e/L//FlzcAGtdh3N1iwL3bVlVxIyzLZtm/HUk0ewYbSKjO6QrICvZcqJt1NJJcvTFbijj45Lg9WJpMgaQHgv6SyS0kbZKFbVW9yI0Zlhvts9lAp02+RCUfnkPbxOISg1/etjv0LckQ5Y8XPDaQhzdSfUvvs3x8g8XeQ77OP0zFtWLKBEC7Bh7zb0xiIkUQ+JhvQQ1f6ovhn3Skt4Ac5Dfmae4ssD3fuRQS+zWWvcSjt5Ed0Aah+fBfvKd7+B5z7zEoobKgjLAWmVYaYxiZC+a0htGdgQDEdEjbjsMqiw5WJIJDd+Sa6UBEXa4P5Dv9rmwI77FaqRngL7ECDzpLJu2SQheAIT27ebwswX47Ih0hTq1QzmojGLWlpSn7lttTp2rDFJiidsuUmnjXivPeCeE/aL5q7yoEDa2PqrTuBUZ3J78g7VfHRBjno8Dnv0EkgzegrVjWPYtnsXNu7ajgItrueLhhQCi18kau7d9wvumSAUmOEs6aDVabIglHL5dKLWWIiv/6tv4diLTyEr018eJcNHCYmc0TzKPJPgGpwnt4GohcNsFT0KiqN1bi2okVVLDwCcBXA4V+MEfcu4HBUp9AEZPsbWzVvwxLEj2DGxw66pU8tWpqYAqEXGXKxVCm7uB5ULmVv1l2YJ89xGu+2EQcPB3WhiXZUGl0LSvVbbxHnSyOL0zPUR0wqd0tL1OebXL0+D52NKyWyQohFS04+VsIECEE2MW2Bs3hUFQYJnbp8pFPfO+wX3RBBEOTFqMSQzU2vG/HUDevkluhKMAYJdEb7w3S9h35P7MJNOMYZIUaDJCzLPJpp4XWnYeWsgQZAhFBvZ+B1Ln8QQUR4AOF9WJnngp3pRnqjpW+0mShSIxw8+hl07dxkDaQyPWoPUQaUPgGu5d1kOMdpqBZFT2bPxR0Qt09NgkN9sMq5QcM17tPJ2PmJV/3JRcJDXiShk02m437cIhv3fnADILXJPZ2T0Vpn0HCuiunMzIqLFA7ooWtNJsP4NWSWduM/9LvdGEATU4CJqqVS0mUYxidKWZhgNGVAyMHq8gq/92dex/eBWTGeT8Bkza00mEUgFVbed0FkECoRlzZFNV+Qa3bvM3gnE9PNoGRDyfEh/thO3rYxHjtISbJ8wy9Al4+se8YR9w4CEcK017txqBI1D0hd38pYs6+lmhrV+Un1Ww7c1FMNpctWRBfED5FCN6YRt6Q4pIHYWIRcE1VtuDfrsz3+iqbUOMSbobaygsmMTRvdsd4GxslDkPaxopa6WXLcSB4+pCIX3C+4db8kNyLrWpe8XQiOHeggbZBxPs4dYyNFjG/Htv/gWJo5sRxMNmkFqBFqGhGZZ+se+G8BiOzI6tP88nxN+ScgvL8S7ANPi/FNu9LVKWQH1A6jNvVSK8NiBA9i/b591jikmiEIKO12hOFa/gSyBxhXJMui54Zm4KwHhM3puJcj/9uhSYILgbiRYoZF0UnSaDKDbCvxZdRIS1YC5U2JIWkt7po+D+0TVme43AeL9Fovwpym7dADQ0/AbKsJgUwUjWo1uE30h/onP5RxInJSSA6bTtwp9cbovcO8EQZlVEGnyLymWLlFPagm2pL/eRGnf/Mm9+OyffA5ju8cZJNGN0lAMBtDttIOkq6mMIoMrtBVcFDHt7DTNMHDkX+q3cnBGqmDzaTW9Ue9X06Peso8CcOjQ42QO9drG0Cp/CQVAGlXykw9VyO+3nPWZbRDdtZUBn+SzYsKVIJ9b8G5hPmNOYIzav1+uiHqgYwpDfUZzGTrmlagFzMrIn6VBIVdvOg9US4S8PP2aIxFNEHhGNWcrS9BiqLncq/qobBm1pVfCCWpJCoWoRRtk1mIRZZg/fT3UTMR9gnsoCMykkEmq/UhzZfOeCHuJlIqAwdCBTz+Dz37vi8g2epjqzaBIzZD56oElCch4NBI0qUyuT5GckCLS/QYJQczAl9VsPqp6MmSxilGEw4cP4SDjgmq5ZO6QrEFKKyH3aD2BPkIi1LIwjdmWjU+SgKhvJAo0RMQJhKrDatzqJT+yM4bq/9H3pDVcwuarRD1rRvfHI2x9bALV7fSHXLcDtDKWeGSREBgMpn1/4N4IggTANKHQ2QMJgMqoLRWNKyRNohV1QwGPf+pJPPuV5+HRLDYLDQRlWhKvi2qxiIBaJhcGG6XKZPWtLNPUDwDsq/ZEaUq1Bskl2rFrB/bt34dqpWJ9IVoLNWDAp3VL1e5u5VoXQEvHeEBBshYLizWxh8GzOuJUvxIIW3OUtJEACM2VNJPfx/6+bIVGHaS0BB01r1Y8bNg5jk37ttAdqjjl2L89KqlPwVmQoaB33EdQjj8yKPPidaGyKwYOB1DRMl1n9BgTJPoooQRiE/DCtz6JT3z9JTR9ap1u01qSIlI2YEIBuV5d8AL7aJzale8zMXLwAgllAfVW3dqzZQX27d9vHwCXG9Rut1gYxkNiCKvu9QUKmNXCE5gweIx9KAyNFmIG0Gmq6adqdp3nTSm6/DsZc9/L4PNUZ0h0MeA5KrrKpiq2HtoN7B4j58vSMm7gZfGNUKySmdacB50T3m+4Z4IwF+Dwn7k0OtHHkK+R5pDkdyn1CSWlQyVa3RHis9/4PD72yY+jtqFKxqLvSu2r3mXrYaYgiM3kFunLibeT6P6BWnzUIyth2LlzJ44dO4aR0RGzAtZR1g+Cte8GrD2IqnpwIKdH/GgtlhYPdK3TTU2rmvKp+EJWwD5ewrIrtnBtQ/IFpOZdvYkqEqSwXMSGzRuxZZeGU9MdKvE58oFPVByuIFlzrIW5y7UQ7jeF74kgDIIVIs+1tsQCtaq0h1pgOvS3YxrMdiHGdDdGdU8J3/7zb2HfsX1aSsnGxaiHUmRUB5ojio6UkDseJFT/FXNg13lCVkk4eO9wyFPIkVZJAXCrhW2bNuPIoUMo6VtmrHwTZrWYqBWJW9OMtAqhVp1eR6BBglIE6mRTWU0YqLo7tAhCDY+xlhyiUUyKi1ZAvcd5XKdm0kzNqWT6QsXH6MQ4vJ0bYYOMPNaxlxo/iC/0/TN9uNKQJ6wO+/ig4J4IghKZC4qVe+1IMehkjjynYRU1v4gqbUSZ16NajF4lRmFfiM//D1/F2OGt1Bgl1LvUOvrgQ7uJnkZHttqUkJREYvIa/EUzozZrN51vHvOeTZ/3+KzAsN+qwSsDaMPP6GZpVbUEs80ZNOMG3SFWNgN23+8hnp7EtmoVLzxxBHu3bEGBrlBPeVDrENPTUpe2spzexvcojlgpMBkTpJWhtO/KUIwm7b0QVVHD7pcAxCCzezHLSKVAZi+y8qIuXSV9xJuoaetq3FMTgb64mkooGhkiLS5GIZltzqKezSKrdTEb1jH62AaEjzMuoEeEEuklt4j0DvsfTTR2YZ4kBGIbHQvzay639xf0nnsCt2U2PxjE/sYVUlJPopMhqWPod7YxtncTvvavvgFvnFIz4iFV1zujbbknlXKFQXSNTOgI10/OQGHEIBrMbVm5/M0D96Wy8vO8L4xCREX1e2gtoLZ1mNX4vueefRZbxjeiVa8jIuOL+eUvKN+WjuF6BFldWWRnlR044sr9ycjomvdsUz47Gp3qo0TlpmEnki9ZgqhWQmlDDb1qgB2P70Zt2wZrOgeVlYJn2lSX7ACoyobhg4J7JggrB5FamiCCr9XLoh4mPrYLX/7TL6OyvYY4pB9qg/RoDOIUSZtaXLOt9CjpuJBYOWtKGPJhMootFpPcQa4BrfOLjqqGRUi7F6MinnrqSUxMbLf73IQb10qie9c7iJ7q8RfKtRRINNwgSJ/BbIECQAXWoAKbpUVvUmDkKpHenZSWhJpe3ypok+lHt23EhoP7gHHGBaSj6K3UXAPDUjXzcOChCYJ6GwK6SNZmL6qXiRXgyDeexMvfeZkWYgMS+pM2ZolmuathitYa0RcAR1On4HWsRAkSAqH1O7B0c1ZiCJgrQJdDQqDWIE3A37FzAnv27LXWkRbjBJ2TptN6qa6Hc32DyGVN1xYo608KixaaZbcvqRak+UMqdyqpFpl+qoP6jRncmr2FycYUrs3eRB1tlLaOYIOWXhlligyhzG0lIa2+SHOto7qa4KHVrAVYFIUgKELdV2lJfiO9zirwsW8/j8MvHSERPTS6bfTU/KavGooRBxhbu4Z9morptSshUG/2nSyCgV1n3JAxaiDqCza7du1Cne6Q8qf1QdX7KkWm96iVaN0Dy5r76XKG9N9WIZcg2H4AT8O0acm9lOebVBizDUzVJ9FIm5jtNjG6axN2PnsI2OQsepsxW2IDy5wgME6eaxpfLfDwVJx8F2p5C4+0IhvJrGHa7UIDWZTguS99Ak+9/CxK41VbHEDdOX0lZQwvsI1ODICu5Rbhjp1wrBS5RBonpKmLikV8bmu1UXORNG7IRpLSMlhzoYLjBe9ajyByuaHTeSSnZus+SiB0rm92fd5DkbBWpl6xC2/Ex74nD2DfM4ctMNZ3CjrUX1mo5c5syTMecE+VQuuymuChCYJaDCIylwIw1y2lEKqHhLFBUkwwtn8Mn/r6p/D4xw/BHwvRo9sUU5XEZFKtod/W0AZqcTGy8bpMLVW3+f4Dv6VgfhUJVbbuU1Besjm9SlOtQrIAamHRhHfFCu5FwyGPOVaGluVl451g2P0Oh723f3EoOOZ3hXWYF9sEQ8+LXqSH6kFfWi2NVuFvKGLLgQnsfJpCsDUwZSRBkA2djwhY25q1J+s+l+rqgIdoEdzLpRdyUqtp06Om8CL5o6kJw7f/zbex4+hONKMWOkFqMUOBjKqVDuS3a1VpBbiWAtM0H1RUJ/Y3QyFnCLlENnhMINMtS+EHKNrapKzMhMJHoVNnz50qL09vuTifu5XiUjDs3uHvNrTri8E9NS8M7j/rihd0NiD9ddDKWrbsSqHko+On5g5teWwC2EgmVzjHuMAMB58VzFFOPWhycYe//qHBwxMEgRFXmZi3DPrV2w03LqlIy7Hfxxe+9zlsOrKRrlMPfqWEZtZBTL8zKEbm+pjf2Uelt/B4GNhcXjKEtc9zX6NGm1ooty8U+UhMZTLWnAMFeEsltp6AZXSBsay0qxf586oOoWYhxowFur6L6zolKpKxABPH9qK4Z4sFxsbkkhe3GegbEAG5J0KuMmIqfw8VNLpaHfMarUpvk/+5pUa2YdeyoISJj2/F5773aWw+sJUBWYeVwGzTL427KYpFCkarOcf8avHIm/5MEIjDwCZ69LWjrIAEocV0pmdumRvkBKRnrUbFqGT1xsN1D7IEKWmR0jLLr89pGqjxgMohoZLSV3/8Ku+p8NyWMnY9vZ9CsBmokOVpDdQ/JIXC3f7AS406MhlzsAo1ysMThJyp+swqIXA/H0U/Mutpwy3KrIUycOATe/GF734RI1vG0Sah/VJkPqr9pK2ZVM78c8hHP4zkEgD1D2irFqKLFy6aYKipVGOK5BIpbhA8sGUaHyKQbCYEsgqOqgqKewhF4zRGuRggLHpo99oob61h97P7UX1iJ1Cl4HjxnCbq0nL4vZSCIIFwgjBX50r3jxZhAHLCiGGJ9qkpki1pxiRVgQFxC1mQIAs7KNS6OPa5x/GVb34T1dFRNDttBGFE7aQFdWl0mZarNqKEQGiJDwc3zIACGFD0TBBcIPjBuQ9w5swZCkVsi3KpxUiWQPlZyq9eT+CaSh3afII+LSUMXjdDOQpQrkaobaxgz+G9CA+6ucY2zJixnVZBV2UGUjDaFe1ENmFeQ0Z7R//VAg9PEAZpkW/7BKtWataNX6lo6TwxIP+HvIkxwxN/sgcvf+cTqGwMmPkEnUYLXkp/thvITiAhkVOaAk30gafpHq5Dfw7p7+aBoLDA4I06j/vcUhNOTc3in984jklu/aBE16hsgqZWJpdNF2gqVddfodGx7sqKQJlZKTDv+cyv5aKaKt2Kcg7tfL/sw9Atw8L4i9TUVrGSlZWYkkx1WulejTHBkT0oPr7NCYGnZg49rrhC7iapGWpiT+aiZb7TpS/o7+eHqwQKk5OTPbWcyC3IUUOPVxc4rmlrXBJiBJcy/NN/+hXe/Kt/hlcvojPDivKKFry1eg0EEe+hmY6okpJOhUKy/NGh0l6KMcZGRnD08GPYvWM79PlXdGUh1GRIWtFfVpzS80MUgtCCyEJbVszl86OCLNMwMEZeIQdJK0vbKUW14ognjTeFeVLKf39XZfALqc1C09CWNKFgsIwJn8rKFCrGBNuf3IFNz+4GNvTQ9prW/xKAcdQK8/ag4OLFiwjVX9RHeQDzngCVnLB/7yoHEZhIn1PLupQ2b8ALX/4Mdj9/CNe70yiM+mA8i4iVFWo8EitPHXbNmNpsOE8tDdL8rNhrN2/gvVOncPPWJF2BKjwF8MyD+zZZQsKRKWQJ+ILVPPTCGF+kE+rYnTbI3RZeug01kE6d6D4FXXMJ9CnXHmMAb0OIXYd3Y9NT+ywmUIOGT4bSU3puLcMaEQQH9HQYN1PzMz4o7RrDy//qK9jx3H5M+7PoMY4ICxkqrHG/oxaOIiWd1oACkbcODeJtHDEAOh1rHD41/qWrV/DOiROYqTdo6t2aRY5V1CGosJ6+dJwwP7IGqxMkBObCEXNhECi/w9FDp6VGAu6FFILQQxxmKG1jTPDkfowdoyUY4Y0iBd1CxXQuTT29dmFNCUIUlNGcrDNe8NGJeqgd2YA/+1//HOOPj6NVmGHl1VGLfBSp0bI23ZgkJNOvtIgUFNZpqVJGWCrh/KVL+N0//wHTzTqPKzStRQoBbU9CZqEA0DyQy1bvGCS5QRICbedcIqJgnvkd2L6ZEDJ3L0SH5ZrNmshqwKaDWzAqd2grbzIjoAHVSssJw1qHNSUIyHoMoGvWdNqlIGSMpccOVPDt/+lb2PDYBjSDpg3RCItFFD0Guhn91u5wi6DfMNBZL6Cg0SpEJUbn9CNPnv0Ap8+ew9TMDBkgQERhSCkAWtKkyOuacDTPXqsHlKM5i8AsmovEc8bwumEB6JorPy0BLWKbrk9htEgh2Ibxw9sZE/CiT6EPaTH1qVf1K8QKqq1xdE3DmhIE8/ejIkz/qrmOUWpa7GHfcwfwuX/9JZT3jFIYtNyk/PcQxYTui2p/hdBJYsN6p2XDOUrVGk5/cAHvvn8KjXYbxVIVpaiMcliiIIT0pzUkcHWCip+jlH1ODW0H4wOByKsWsJiKIuZJrxZh68Gd2PPUY8BmdfMn6AQtNAptm26r+CAKIuucXOuwtgQhChCTyU0eiCVWRhBQLCoUhhcP4aU/+xKmahkatAoa/x7RdmtmGevVWgbUUqDAVqNN1WOsodYL0U1ElyFwz6UMjtXD2km7eP/kGZw+8wEarbad16A/9T9ojrPrhFuMSmOleDewlNXTT82fg+e40y9vf5gJn9dqE600RiNpoVcjW4x6tvbQzmcOATtpemt0NzWvgNbSBs6RSvqJrvm01bUMa6oEsgRudrB6KumdsvLon5DbuygymHvyiy/gC9//JmL6tPVeg1ow5l2qbLX0UDhY+foIt/bb1OxKZxHyT63hIoy8X/nA5gtTgNRseoouklqTUjKQNKI69CRUd4YF7/hQvHfAbFqSC1uIdMGaDRn0yw1MSEePrqBfK2K6N4Pqzhq2Hp4AtvFeFc9XX4KSEmUcdQTu/9qHNSUIYkhziwSqYONQImtYy4wXt4b42JdfxEvf+jSirSUkJQazVF4au6T7NM/A2pBDt8LzUmBVzfuFWt+nRx+4p1GxjA1mm228d/oMzl28hC6tgU8rNctAelWC8s9Nzra2tTJxX9aKPwmBlUNCUGFsUPRQ2lXGlqOMCfbSHerLuKO763zU7EK1vBsFmdZ6gKW5YRWCDDI9UlZGXsPMPlFaSodJp4exjSE+/53P48AnD2N6rENXii4SNXZUlF2n/9/uuB7PJVSZ0lZfhX29p880cgFME3o+iowX2nGM90+dxMUrly1gTNXovkohF+h8IOLcgEQKggbGJYxv1DpG/84mMpU21XDwxYMYeXzMps4qMJNVsX4T/p8fEeZo7kREGmltwxoTBGp9othSnrz7jkJfEBJeY+X6UmKbgU/+yWex/aUDaKBto1PlDytGkFXokJHlGw8FYxQKQp9hJAQmHow0YzKOxt8UyxXU2y28dfwdfHDhHGoj+nDc6gOXc1eOQSGQcKucmnVn8y4Cz+KDsFbBwacOY+wYXaJx3sNYqxtoqAr3tSHPqxfdpcOUlU5/bNFahzUlCJrwXcgkCG5NnRb3YuomndFHR1RRue+0/YlxvPwXX8X+Jx43i6CplxKEMIwsuJN/PAwGGSdHa1vnFXWodRIF4gyQyUDXJm/inRPHcf7SRXt2NYJKKVQJjHFVHu1TMWiqqkeaxEmC6oYxHDh0EMEBmgFzKVvEBF7Rtwdyl2rOAMzxvk7qQNu1C2tKEFyNOKZ0cxi0tbPUXn1UfVBBa539g8d24qW/+CwqT4whKHfI1E0UNUwj9JEkXR4zVrAONw3U0yC6jAF2ZktSuuOuHfe0gC05QIv+Sn60oJcskh+VMDnbxpvHT+FWncG3V7T1PNUiY990oNuhxcb0VUpz5wj5RHizYhSwlaA9vxTyfYtQP72P17upGg24E/jWW6wP9XW1RHuhjbCaYvvhjYiephDIErCcmWIjxVGMH+zVuTQNov3Thfke97UKKsXaAVaKOFGtOVpPVcO8FMtZIVQXdItsNCT3xbAlCsbeL+/FC//jp7Bpd4n31VGmgGiskIZwSxC0YK0sin3B0UuJCQPvLjrEmCYmtR5UtVXpoxkx0+jaeKOOOpL8MjVqFTONBG+/dxaT03WmW7ZWKS1Z4pvjpk/l8pjP2ddimJLa6vXOXMsuF/scPxSHCYI1B5NmauFSU69GkPZ8Hym1fEbaxHQbg2KC/Ue2YvypcbR3prhaiVlaLf1eYw5FUFJbwZnom6MILjSllF9c27C2BGGFoGqqdIBPvPA0nvqXX6JUbMQ0rYLfasPXSFuNTpXDq/tiWhitnyQtaBW8fNAanucunGfMcNyCZ/VsWz8eXQ8xvHIiRjZXS6e5Nca+z6A3qyNY70sZB8R8acJYIGgnKLGcQTVCYe8mlJ8/RF9yFF4nwQbmX6z9qMG6FgRpUMVx7WYDz373ZRz56oto0W0aGaMLkFFCqCPty5+EkELgE9Vcapp3BUA9a4uJXZ28jt++/hrTpMaX5mU6ci+sxYmgVxUoISYIdub+Qz4XQdZUq3K01XCQ0E0s+djy+C7seflpYEcRcbGHiPkuxnLr+g8/QrC+BUFAHtByIxKAJ77+STzz7U8jjlIGu3SvFC9QAwrErPrMbZAp+lghm5KB/Ciky9PDuUsX8Ls330QroeYtFfuCoPScSyeC2yQZe/BBgBMElcqtLt61tUnH92/H+NOPUQgi1GkCWqBikIdDd2rFmmAdwPoWBOM/Mjr9/DDuYtNEES9893PY8fkn0KykKNLnL1pA20WbzCBhCCUI0qArAd6uDyeqYyosl3Di9Gmc/OAcZvSlGQs65SKJ1E4AzGEiUz4ISCmcmj5Z5ZtrUYTyeBWVI9sx+rH9wO4IHWZDfTNVSYFMlQsLHjlY34Ig0Od3GFGXGBPIVRl/vIpP/PlXsOf5x8mg1NrdxFp21FIkl8ZcoxWCeR6hb25Wj1F6dWQE75x4z4RB79RYpdw94o4JwYPiNRNQYpFCWmRMUNo2irKGTuyP0KaHGFABaEyWLdXC8neYf2cjHy1Y94KgpUl6DBQVwFZZ6axr7Hh6HN/8n7+Hbc/sxVTzJkphATVyhJi5xeB5KYMwbFCdIa/Z1zcJ+vBgm26RZrmdOHka5y5eNm7zQvfJXa2R5D5QTldpWFpEW0pmhaihI/rSj7ZahoZ8zVjd0xd8jdmnenW0N/rY9ZknUXlqDN2yO+8r88oYH0hYkrYJ7RIEWMew7gWBrOUqtt/Cp+ZWVfP44zU89/0vYdfHDzKwTRG0WnRtMpvwYy0+Q0HsNQyo703L67r+S6s6fO0Pf8D7p8+iSQGAH1hHXFRiLu4hr0l4NHZKQz005zxN3ere+vazV8iQhYyJDmzC1pcOAwfUk8wcU25lLA3IBbJkPRJJv0cR1r0guNBXHWb9Y1a+hKHF+t7y6UN4+ftfsbVVR2k1kqyNNoUib0laCHLrh7XX858TBO66R/vCQObsZD3GDGdw6cpVFMLAhju3MwnFvZMEvVJDRyQAEgpb2JionvS020J1ooZNLxxA8dg4OqPOAIgO1j3CbGglDtoo7gYMEeZHET1KsO4Fge6xNaEafwrEsDym50IBAI5+9Sm8/OdfR3vMR22s4tZiEHMPBZ7vM/7tyLT6aIF2v1dWglCsVDHdaODNd9/FuydPojJaw+jGjbYu0z0D5kGWQKuRiPk12tashBYm2zGCzc8dwPiRrbYeaZpk1tmYDxpSSCSnjkeuc560efTEYIggiIDrClTDrFz7zK3A1LZWQKKMxAk6ReCZ7z2PZ//F56kZGVRqOfj83iGgSwvRrQVEYlIIhEZBbmUVCmRMtSS1yagnT5/CiVPvo97SXAk9eY+B+VC8oI+vyFLVRkew88WjqBzbCX3dXt+VqzJuMILQJGh9WTe/wwmBWQnhfcjaw4QP42nnWvZv0nbdCYFARVLFapQeK9n6y8iEWr5wA8Whzev1EeDYv/wUPvbix7AjqlJZDucEnV7oFjmUEEgg3OtyHlfUQM/IMOWRXwyxdWI7Nm3dfM9prUGEeZoKxDdt3ISJY0dQPrYNdX3EjwLiKSMtsn4vQZPKYIZ50hg6swRuONW6hUH+Hkb7RRZh3YFKKPXPANGVVkTgjueTQTNU6C6IiSsbgU/8m5ew8Qs7kBVpFQqa0ZYi1JLzXoROUkDS5TOFgJbDQ0b1mQUxsY2E2PQYpDL6lGckhvJ4v9cho9Hq9Hg+He1i3xcO4Zl/9xLGv7YDI8dGMFrUWCm6KnyPRvhLSpsNSmwvzyxFqeAGxvmFJjr05NtBAV0195Cpow5Q7RRQanURxV0EUQFNnoz3RCi+NAG8UINXE6OzgKJBxDRDuW2+RhMxHtCYLUeROTppu5hP1i3kQqFi3yYpw6RlTYOKk1cy9+W4kEVtqUcNi9AchzJdBC9MyJyjeP7ffhb7n9pnCxD3vC7q9O9tQk6pyoBULSsBDYv8fzdaNZMAEFtdTWfnFZ/CknSRtLTOEhlOjBdlOPrSMfskFg6EyI6E2PHCLmzYOkLXpEVfnhlhwKoVIcqlGi2KOvUUsppNYaaprgsUEHFtKUSB75Bjr6kCxZTClLiVquX39zb4GDmyBZWPb0NzKw0Bb7WvR+gdzIsm4BQ8fb3Ot3hIImc1LhrluM5gkK+X4vXbXKNHDeROyLUR5N9R2314H/70330fE4f3oEu/2isXaA2a6GYJGbtgfrQG5/mZVsgIqM3JUlmIkKhzWu9IX5QvjtLUVHpo+21MHJzAl77zRew+tA/6FkNAOxDs3o7oyZ3o7hxBo9JFo9c2wRsrVyxgDTO9S33QAVJaobYXsrL4nA2E1dfM+GMw3CtSoCvEakj0sePxPdj71CEEoxQjMrUr3R9BcCdeN/kfvOFREgiVtdPpWIuLmhsVaEoBV46O4xv/9rsY378FvXIPpZEiBSY266G294BMGpBJfQqB1yVzdvUR9YqNU9K4/wJdlKDqISl1sPPoDnzxT7+EiSfI9LQgWjTL1slQG+7RrZh46QjSTSHqdK9AV6nZrtNVczPkJAjgO7o9LWYZoacBcfUOCp3U4gC+Dk0/RbPIFDeVsfHABLY9dRAYp/skCdDQ00enOpeEQb5eir8XWQRtjSHWOeSWQAKQ9tvfi8Wicz+42fPJffj0dz+P8pYqOr2W+d/qItMHM8IuGZ1cKEvgZRKEEkpZhXGBjyo1eitt4lrzGkZ3j+Drf/E1HPn0EWP8LOSz5SJanQSzZOBkWwHVo9uw5Zm9KO8YRcqINelpVCwZWy1QFIRCjxnqMUO9EqI0QCXzUKZ10GocjE4wU+igVQHKe8ax7eP975cxfkg8WjjFOY+4TRAvD+PxHHOYswjCvOVBGnK9Q15etbtrq6mcco3k52dVMi3x+a9/HF/53lcZcBbQ7jboiujjgnmru4iowIPuCV0lfQzd1kLiqQ5/IxM1vPjVT+Dgi4doYqi5Cy1bHU5Nqnqm62tcD9Ma1ZCPfdjx5F5gUxHZKN0gCYSaN/kKDQ0vpvTnkwAlCkZUYJ41g4ymqU0/qTceoXZgK7bo+R30+ClwTYqInH+GHYRHWxDEy4O8LRyE/JxZhIXYUID4CIC0haxBqVQya6CyZ/Th670EWZk31IAXvvk8PvuNzyCs0Vf31UpEUVHvM/15TeW07wbwGS2L4pcCTLamEI6FeOlLL+GFLz5nC+Y2e3VEVbo3nporu6gUy4h8OVox3SVaXwrK5se2Y3T/ZnTo2zdLGVoMsDVDTms3hdTwJekmxh8ayxQXNIsupbB6qOwcx/Yn9qKgucY0HloBv1grMW0NmGB9WkkfXRAvL+TvHAdhkSBIcvJeyvUOuUUQ5GXXsVplpPdtWAYF4ovf+TI++ZVPorK1ilRMSn8+00f0Iq2npJludK0qHqazWfgjAT73zc/ha7Qk0eYKetTaYZnuF3+kMJnTjLB17PIqj0lnMje2FrHv+cMoH9iIbFsJbQbQraBD4UloBboopbJGFISQ7+f7eqMhNj42gb0fO4jKkQ3mzukTvPqYh4RNlkD251EG8bB4edAa5CgY3Pf//b//9//b7Z1DDuUquC/WPHogRjKGJT9Zbytdml3bd0Du+uTsFK7N3KDzEcOv0q0q0y3SspOlHsZ2b8Bnv/NZfOabn0GwvWxMjP4SlXKlKGr9nxMEz2IxVoQi2wIFsuRh09atSLt0jbKYsUSDldhDMZKfQwEoZmhXC0iJtd3j2K9vUO+nyVHgTbT1TfsC4BwwtxSX3vwowtTUlPGyXNZBlGDcLhwF/P8o7UUUy3w6cwAAAABJRU5ErkJggg==;imageBorder=default;strokeWidth=2;" vertex="1" parent="1">
          <mxGeometry x="80" y="360" width="82.2" height="75" as="geometry" />
        </mxCell>
      </root>
    </mxGraphModel>
  </diagram>
  <diagram id="prtHgNgQTEPvFCAcTncT" name="Page-1">
    <mxGraphModel dx="1434" dy="746" grid="1" gridSize="10" guides="1" tooltips="1" connect="1" arrows="1" fold="1" page="1" pageScale="1" pageWidth="827" pageHeight="1169" math="0" shadow="0">
      <root>
        <mxCell id="0" />
        <mxCell id="1" parent="0" />
        <mxCell id="dNxyNK7c78bLwvsdeMH5-19" value="Pool" style="swimlane;html=1;childLayout=stackLayout;resizeParent=1;resizeParentMax=0;horizontal=0;startSize=20;horizontalStack=0;" parent="1" vertex="1">
          <mxGeometry x="120" y="120" width="450" height="360" as="geometry" />
        </mxCell>
        <mxCell id="dNxyNK7c78bLwvsdeMH5-27" value="" style="edgeStyle=orthogonalEdgeStyle;rounded=0;orthogonalLoop=1;jettySize=auto;html=1;dashed=1;endArrow=none;endFill=0;" parent="dNxyNK7c78bLwvsdeMH5-19" source="dNxyNK7c78bLwvsdeMH5-24" target="dNxyNK7c78bLwvsdeMH5-26" edge="1">
          <mxGeometry relative="1" as="geometry" />
        </mxCell>
        <mxCell id="dNxyNK7c78bLwvsdeMH5-31" style="edgeStyle=orthogonalEdgeStyle;rounded=0;orthogonalLoop=1;jettySize=auto;html=1;endArrow=classic;endFill=1;" parent="dNxyNK7c78bLwvsdeMH5-19" source="dNxyNK7c78bLwvsdeMH5-28" target="dNxyNK7c78bLwvsdeMH5-30" edge="1">
          <mxGeometry relative="1" as="geometry" />
        </mxCell>
        <mxCell id="dNxyNK7c78bLwvsdeMH5-35" style="edgeStyle=orthogonalEdgeStyle;rounded=0;orthogonalLoop=1;jettySize=auto;html=1;endArrow=classic;endFill=1;" parent="dNxyNK7c78bLwvsdeMH5-19" source="dNxyNK7c78bLwvsdeMH5-28" target="dNxyNK7c78bLwvsdeMH5-34" edge="1">
          <mxGeometry relative="1" as="geometry" />
        </mxCell>
        <mxCell id="dNxyNK7c78bLwvsdeMH5-38" style="edgeStyle=orthogonalEdgeStyle;rounded=0;orthogonalLoop=1;jettySize=auto;html=1;endArrow=classic;endFill=1;" parent="dNxyNK7c78bLwvsdeMH5-19" source="dNxyNK7c78bLwvsdeMH5-26" target="dNxyNK7c78bLwvsdeMH5-36" edge="1">
          <mxGeometry relative="1" as="geometry">
            <Array as="points">
              <mxPoint x="180" y="340" />
              <mxPoint x="400" y="340" />
            </Array>
          </mxGeometry>
        </mxCell>
        <mxCell id="dNxyNK7c78bLwvsdeMH5-20" value="Lane 1" style="swimlane;html=1;startSize=20;horizontal=0;" parent="dNxyNK7c78bLwvsdeMH5-19" vertex="1">
          <mxGeometry x="20" width="430" height="120" as="geometry" />
        </mxCell>
        <mxCell id="dNxyNK7c78bLwvsdeMH5-25" value="" style="edgeStyle=orthogonalEdgeStyle;rounded=0;orthogonalLoop=1;jettySize=auto;html=1;" parent="dNxyNK7c78bLwvsdeMH5-20" source="dNxyNK7c78bLwvsdeMH5-23" target="dNxyNK7c78bLwvsdeMH5-24" edge="1">
          <mxGeometry relative="1" as="geometry" />
        </mxCell>
        <mxCell id="dNxyNK7c78bLwvsdeMH5-23" value="" style="ellipse;whiteSpace=wrap;html=1;" parent="dNxyNK7c78bLwvsdeMH5-20" vertex="1">
          <mxGeometry x="40" y="40" width="40" height="40" as="geometry" />
        </mxCell>
        <mxCell id="dNxyNK7c78bLwvsdeMH5-24" value="" style="rounded=0;whiteSpace=wrap;html=1;fontFamily=Helvetica;fontSize=12;fontColor=#000000;align=center;" parent="dNxyNK7c78bLwvsdeMH5-20" vertex="1">
          <mxGeometry x="120" y="30" width="80" height="60" as="geometry" />
        </mxCell>
        <mxCell id="dNxyNK7c78bLwvsdeMH5-33" value="" style="edgeStyle=orthogonalEdgeStyle;rounded=0;orthogonalLoop=1;jettySize=auto;html=1;endArrow=classic;endFill=1;" parent="dNxyNK7c78bLwvsdeMH5-20" source="dNxyNK7c78bLwvsdeMH5-30" target="dNxyNK7c78bLwvsdeMH5-32" edge="1">
          <mxGeometry relative="1" as="geometry" />
        </mxCell>
        <mxCell id="dNxyNK7c78bLwvsdeMH5-30" value="" style="rounded=0;whiteSpace=wrap;html=1;fontFamily=Helvetica;fontSize=12;fontColor=#000000;align=center;" parent="dNxyNK7c78bLwvsdeMH5-20" vertex="1">
          <mxGeometry x="240" y="30" width="80" height="60" as="geometry" />
        </mxCell>
        <mxCell id="dNxyNK7c78bLwvsdeMH5-32" value="" style="ellipse;whiteSpace=wrap;html=1;" parent="dNxyNK7c78bLwvsdeMH5-20" vertex="1">
          <mxGeometry x="360" y="40" width="40" height="40" as="geometry" />
        </mxCell>
        <mxCell id="dNxyNK7c78bLwvsdeMH5-21" value="Lane 2" style="swimlane;html=1;startSize=20;horizontal=0;" parent="dNxyNK7c78bLwvsdeMH5-19" vertex="1">
          <mxGeometry x="20" y="120" width="430" height="120" as="geometry" />
        </mxCell>
        <mxCell id="dNxyNK7c78bLwvsdeMH5-29" value="" style="edgeStyle=orthogonalEdgeStyle;rounded=0;orthogonalLoop=1;jettySize=auto;html=1;endArrow=classic;endFill=1;" parent="dNxyNK7c78bLwvsdeMH5-21" source="dNxyNK7c78bLwvsdeMH5-26" target="dNxyNK7c78bLwvsdeMH5-28" edge="1">
          <mxGeometry relative="1" as="geometry" />
        </mxCell>
        <mxCell id="dNxyNK7c78bLwvsdeMH5-26" value="" style="rounded=0;whiteSpace=wrap;html=1;fontFamily=Helvetica;fontSize=12;fontColor=#000000;align=center;" parent="dNxyNK7c78bLwvsdeMH5-21" vertex="1">
          <mxGeometry x="120" y="30" width="80" height="60" as="geometry" />
        </mxCell>
        <mxCell id="dNxyNK7c78bLwvsdeMH5-28" value="" style="rhombus;whiteSpace=wrap;html=1;fontFamily=Helvetica;fontSize=12;fontColor=#000000;align=center;" parent="dNxyNK7c78bLwvsdeMH5-21" vertex="1">
          <mxGeometry x="260" y="40" width="40" height="40" as="geometry" />
        </mxCell>
        <mxCell id="dNxyNK7c78bLwvsdeMH5-22" value="Lane 3" style="swimlane;html=1;startSize=20;horizontal=0;" parent="dNxyNK7c78bLwvsdeMH5-19" vertex="1">
          <mxGeometry x="20" y="240" width="430" height="120" as="geometry" />
        </mxCell>
        <mxCell id="dNxyNK7c78bLwvsdeMH5-37" value="" style="edgeStyle=orthogonalEdgeStyle;rounded=0;orthogonalLoop=1;jettySize=auto;html=1;endArrow=classic;endFill=1;" parent="dNxyNK7c78bLwvsdeMH5-22" source="dNxyNK7c78bLwvsdeMH5-34" target="dNxyNK7c78bLwvsdeMH5-36" edge="1">
          <mxGeometry relative="1" as="geometry" />
        </mxCell>
        <mxCell id="dNxyNK7c78bLwvsdeMH5-34" value="" style="rounded=0;whiteSpace=wrap;html=1;fontFamily=Helvetica;fontSize=12;fontColor=#000000;align=center;" parent="dNxyNK7c78bLwvsdeMH5-22" vertex="1">
          <mxGeometry x="240" y="20" width="80" height="60" as="geometry" />
        </mxCell>
        <mxCell id="dNxyNK7c78bLwvsdeMH5-36" value="" style="rhombus;whiteSpace=wrap;html=1;fontFamily=Helvetica;fontSize=12;fontColor=#000000;align=center;" parent="dNxyNK7c78bLwvsdeMH5-22" vertex="1">
          <mxGeometry x="360" y="30" width="40" height="40" as="geometry" />
        </mxCell>
      </root>
    </mxGraphModel>
  </diagram>
</mxfile>
